<?xml version="1.0" encoding="utf-8"?>
<!-- Generator: Adobe Illustrator 16.0.0, SVG Export Plug-In . SVG Version: 6.00 Build 0)  -->
<!DOCTYPE svg PUBLIC "-//W3C//DTD SVG 1.1//EN" "http://www.w3.org/Graphics/SVG/1.1/DTD/svg11.dtd">
<svg version="1.1" id="Calque_1" xmlns="http://www.w3.org/2000/svg" xmlns:xlink="http://www.w3.org/1999/xlink" x="0px" y="0px"
	 width="91.408px" height="103.309px" viewBox="0 0 91.408 103.309" enable-background="new 0 0 91.408 103.309"
	 xml:space="preserve">
<g>
	<path d="M91.407,73.439c-0.091-9.198-0.049-18.399-0.055-27.598c-0.001-2.374-0.004-4.747-0.004-7.12
		c0.001-3.179,0.173-6.403,0.008-9.577c-0.116-2.245-1.119-4.231-2.932-5.577c-1.149-0.853-2.476-1.495-3.714-2.206
		c-1.495-0.859-2.991-1.717-4.486-2.576c-5.75-3.303-11.5-6.606-17.248-9.913c-2.874-1.653-5.748-3.307-8.621-4.961
		c-1.379-0.794-2.759-1.588-4.138-2.382c-1.341-0.772-2.682-1.448-4.258-1.523c-3.022-0.145-5.617,1.961-8.099,3.403
		c-1.396,0.811-2.795,1.614-4.191,2.423c-2.536,1.47-5.072,2.939-7.608,4.409c-3.83,2.219-7.658,4.443-11.49,6.66
		c-2.877,1.665-5.756,3.326-8.64,4.981c-2.099,1.205-4.248,2.341-5.266,4.669c-1.065,2.436-0.654,5.361-0.642,7.942
		c0.015,3.259,0.025,6.519,0.031,9.778c0.011,6.213,0.008,12.426,0.008,18.64c0,2.523,0,5.047,0,7.571
		c0,2.867-0.299,5.955,1.813,8.238c0.835,0.901,1.887,1.478,2.94,2.083c1.492,0.856,2.983,1.713,4.474,2.569
		c2.868,1.646,5.735,3.294,8.603,4.941c5.734,3.296,11.467,6.593,17.199,9.894c1.375,0.792,2.75,1.585,4.126,2.378
		c1.435,0.826,2.868,1.834,4.448,2.36c3.167,1.055,5.686-0.631,8.331-2.167c2.372-1.377,4.748-2.748,7.121-4.124
		c7.855-4.555,15.707-9.115,23.567-13.661c2.181-1.261,4.799-2.355,6.626-4.118C90.804,77.437,91.428,75.483,91.407,73.439
		 M86.147,78.16c-10.305,5.936-20.593,11.899-30.871,17.881c-1.34,0.779-2.681,1.56-4.021,2.341
		c-1.347,0.784-2.735,1.84-4.259,2.243c-1.336,0.354-2.682,0.058-3.864-0.623c-1.479-0.854-2.959-1.707-4.439-2.56
		c-5.407-3.117-10.815-6.23-16.227-9.34c-5.036-2.894-10.074-5.782-15.116-8.667c-2.078-1.189-4.305-2.224-4.741-4.827
		c-0.211-1.264-0.087-2.61-0.086-3.888c0.001-1.539,0.001-3.078,0.002-4.617c0.001-6.277-0.003-12.555-0.019-18.832
		c-0.008-3.269-0.02-6.537-0.035-9.805c-0.007-1.58-0.016-3.16-0.025-4.74c-0.008-1.392-0.156-2.861,0.191-4.225
		c0.62-2.43,2.744-3.477,4.754-4.632c2.542-1.46,5.083-2.923,7.622-4.387c5.289-3.05,10.571-6.11,15.85-9.178
		c2.771-1.611,5.542-3.224,8.311-4.839c2.462-1.436,5.152-3.674,8.165-2.631c1.432,0.496,2.744,1.443,4.049,2.199
		c1.489,0.862,2.979,1.723,4.468,2.584c2.839,1.64,5.68,3.278,8.521,4.915c5.555,3.198,11.115,6.387,16.681,9.566
		c1.306,0.745,2.61,1.49,3.916,2.234c1.081,0.616,2.181,1.2,2.942,2.218c1.552,2.073,1.019,5.078,1.008,7.488
		c-0.029,6.967,0.035,13.934,0.027,20.901c-0.004,3.616-0.012,7.233-0.007,10.851c0.004,2.661,0.196,5.388,0.018,8.042
		C88.833,75.736,87.784,77.219,86.147,78.16"/>
	<path d="M45.946,75.479c9.02-0.03,17.33-5.461,21.213-13.563c3.957-8.255,2.867-18.286-2.961-25.375
		c-5.799-7.053-15.327-10.189-24.194-8.058c-8.576,2.061-15.344,8.901-17.42,17.459c-1.784,7.352-0.066,15.202,4.831,20.999
		c2.331,2.758,5.286,4.976,8.583,6.446c1.73,0.772,3.552,1.339,5.416,1.685c0.91,0.169,1.83,0.285,2.753,0.349
		c0.47,0.032,0.94,0.052,1.41,0.057c0.441,0.006,0.285,0.257,0.285,0.649C45.891,75.911,45.918,75.695,45.946,75.479z
		 M45.764,73.018c-10.852,0-20.546-8.607-21.436-19.504c-0.747-9.141,4.697-18.022,13.133-21.581
		c9.502-4.009,20.815-0.347,26.378,8.292c5.348,8.305,3.979,19.464-2.925,26.437C56.932,70.685,51.431,73.017,45.764,73.018"/>
</g>
</svg>
