<?xml version="1.0" encoding="utf-8"?>
<!-- Generator: Adobe Illustrator 16.0.0, SVG Export Plug-In . SVG Version: 6.00 Build 0)  -->
<!DOCTYPE svg PUBLIC "-//W3C//DTD SVG 1.1//EN" "http://www.w3.org/Graphics/SVG/1.1/DTD/svg11.dtd">
<svg version="1.1" id="Calque_1" xmlns="http://www.w3.org/2000/svg" xmlns:xlink="http://www.w3.org/1999/xlink" x="0px" y="0px"
	 width="104.5px" height="106.105px" viewBox="0 0 104.5 106.105" enable-background="new 0 0 104.5 106.105" xml:space="preserve">
<g>
	<path d="M26.147,32.216H6.068c-3.346,0-6.069-2.723-6.069-6.069V6.068c0-3.346,2.723-6.068,6.069-6.068h20.079
		c3.346,0,6.069,2.722,6.069,6.068v20.079c0,1.615-0.632,3.138-1.781,4.288C29.285,31.583,27.763,32.216,26.147,32.216z
		 M6.068,2.499C4.1,2.499,2.499,4.1,2.499,6.068v20.079c0,1.968,1.601,3.569,3.569,3.569h20.079c0.948,0,1.843-0.373,2.52-1.05
		c0.677-0.677,1.05-1.571,1.049-2.519V6.068c0-1.968-1.601-3.568-3.569-3.568H6.068z"/>
</g>
<g>
	<path d="M62.289,32.216H42.21c-3.346,0-6.069-2.723-6.069-6.069V6.068c0-3.346,2.723-6.068,6.069-6.068h20.079
		c3.346,0,6.068,2.722,6.068,6.068v20.079C68.357,29.493,65.635,32.216,62.289,32.216z M42.21,2.499
		c-1.968,0-3.569,1.601-3.569,3.568v20.079c0,1.968,1.601,3.569,3.569,3.569h20.079c1.968,0,3.568-1.601,3.568-3.569V6.068
		c0-1.968-1.601-3.568-3.568-3.568H42.21z"/>
</g>
<g>
	<path d="M98.432,32.216H78.354c-3.347,0-6.069-2.723-6.069-6.069V6.068c0-3.346,2.723-6.068,6.069-6.068h20.078
		c3.346,0,6.068,2.722,6.068,6.068v20.079C104.5,29.493,101.777,32.216,98.432,32.216z M78.354,2.499
		c-1.968,0-3.569,1.601-3.569,3.568v20.079c0,1.968,1.602,3.569,3.569,3.569h20.078c1.968,0,3.568-1.601,3.568-3.569V6.068
		c0-1.968-1.601-3.568-3.568-3.568H78.354z"/>
</g>
<g>
	<path d="M26.147,69.161H6.068c-3.346,0-6.069-2.723-6.069-6.068v-20.08c0-3.347,2.723-6.069,6.069-6.069h20.079
		c3.346,0,6.069,2.723,6.069,6.069v20.079c0,1.615-0.632,3.138-1.781,4.287C29.285,68.529,27.763,69.161,26.147,69.161z
		 M6.068,39.444c-1.968,0-3.569,1.601-3.569,3.569v20.08c0,1.968,1.601,3.568,3.569,3.568h20.079c0.948,0,1.843-0.373,2.52-1.05
		c0.677-0.677,1.05-1.571,1.049-2.52V43.013c0-1.968-1.601-3.569-3.569-3.569H6.068z"/>
</g>
<g>
	<path d="M62.289,69.161H42.21c-3.346,0-6.069-2.723-6.069-6.068v-20.08c0-3.347,2.723-6.069,6.069-6.069h20.079
		c3.346,0,6.068,2.723,6.068,6.069v20.079C68.357,66.439,65.635,69.161,62.289,69.161z M42.21,39.444
		c-1.968,0-3.569,1.601-3.569,3.569v20.08c0,1.968,1.601,3.568,3.569,3.568h20.079c1.968,0,3.568-1.602,3.568-3.569V43.013
		c0-1.968-1.601-3.569-3.568-3.569H42.21z"/>
</g>
<g>
	<path d="M98.432,69.161H78.354c-3.347,0-6.069-2.723-6.069-6.068v-20.08c0-3.347,2.723-6.069,6.069-6.069h20.078
		c3.346,0,6.068,2.723,6.068,6.069v20.079C104.5,66.439,101.777,69.161,98.432,69.161z M78.354,39.444
		c-1.968,0-3.569,1.601-3.569,3.569v20.08c0,1.968,1.602,3.568,3.569,3.568h20.078c1.968,0,3.568-1.602,3.568-3.569V43.013
		c0-1.968-1.601-3.569-3.568-3.569H78.354z"/>
</g>
<g>
	<path d="M26.147,106.106H6.068c-3.346,0-6.069-2.723-6.069-6.068V79.958c0-3.346,2.723-6.068,6.069-6.068h20.079
		c3.346,0,6.069,2.723,6.069,6.068v20.079c0,1.615-0.632,3.138-1.782,4.287C29.285,105.473,27.763,106.106,26.147,106.106z
		 M6.068,76.39c-1.968,0-3.569,1.601-3.569,3.568v20.079c0,1.968,1.601,3.568,3.569,3.568h20.079c0.948,0,1.843-0.373,2.52-1.05
		c0.677-0.677,1.05-1.571,1.049-2.519V79.958c0-1.968-1.601-3.568-3.569-3.568H6.068z"/>
</g>
<g>
	<path d="M62.289,106.106H42.21c-3.346,0-6.069-2.723-6.069-6.068V79.958c0-3.346,2.723-6.068,6.069-6.068h20.079
		c3.346,0,6.068,2.723,6.068,6.068v20.079C68.357,103.383,65.635,106.106,62.289,106.106z M42.21,76.39
		c-1.968,0-3.569,1.601-3.569,3.568v20.079c0,1.968,1.601,3.568,3.569,3.568h20.079c1.968,0,3.568-1.601,3.568-3.568V79.958
		c0-1.968-1.601-3.568-3.568-3.568H42.21z"/>
</g>
<g>
	<path d="M98.432,106.106H78.354c-3.347,0-6.069-2.723-6.069-6.068V79.958c0-3.346,2.723-6.068,6.069-6.068h20.078
		c3.346,0,6.068,2.723,6.068,6.068v20.079C104.5,103.383,101.777,106.106,98.432,106.106z M78.354,76.39
		c-1.968,0-3.569,1.601-3.569,3.568v20.079c0,1.968,1.602,3.568,3.569,3.568h20.078c1.968,0,3.568-1.601,3.568-3.568V79.958
		c0-1.968-1.601-3.568-3.568-3.568H78.354z"/>
</g>
</svg>
