<?xml version="1.0" encoding="utf-8"?>
<!-- Generator: Adobe Illustrator 16.0.0, SVG Export Plug-In . SVG Version: 6.00 Build 0)  -->
<!DOCTYPE svg PUBLIC "-//W3C//DTD SVG 1.0//EN" "http://www.w3.org/TR/2001/REC-SVG-20010904/DTD/svg10.dtd">
<svg version="1.0" id="Calque_1" xmlns="http://www.w3.org/2000/svg" xmlns:xlink="http://www.w3.org/1999/xlink" x="0px" y="0px"
	 width="101.2px" height="101.45px" viewBox="0 0 101.2 101.45" enable-background="new 0 0 101.2 101.45" xml:space="preserve">
<g>
	<defs>
		<rect id="SVGID_1_" width="101.2" height="101.45"/>
	</defs>
	<clipPath id="SVGID_2_">
		<use xlink:href="#SVGID_1_"  overflow="visible"/>
	</clipPath>
	<path clip-path="url(#SVGID_2_)" fill="#666766" d="M100.486,87.399c-0.144-0.182-0.302-0.339-0.51-0.509l-0.115-0.108
		L88.474,74.784l4.809-4.807c1.227-1.228,2.241-3.03-0.828-6.1L81.688,53.113c-0.488-0.489-1.045-0.736-1.656-0.736
		c-0.374,0.008-0.452,0.02-1.079,0.202l-0.101,0.025c-0.881,0.179-1.542-0.349-2.029-0.836L51.257,26.202
		c-0.356-0.356-0.394-0.691-0.469-1.795c-0.131-1.833-0.398-2.593-1.188-3.382L38.394,9.818C38.256,9.68,37.951,9.403,37.459,9.1
		c-1.491-0.922-2.948-0.993-4.276-0.171c-0.213,0.132-0.42,0.289-0.614,0.464c-0.433,0.389-1.711,1.639-3.798,3.712l-0.884,0.878
		L15.375,1.469c-1.391-1.39-2.699-1.773-4.309-1.236C9.917,0.707,2.553,7.21,0.875,9.591c-1.108,1.569-1.166,3.194-0.161,4.462
		c0.144,0.183,0.3,0.339,0.505,0.507l0.121,0.111L13.9,28.016l-4.704,4.747c-0.18,0.19-0.354,0.436-0.51,0.728
		c-0.888,1.658-0.517,3.431,1.044,4.993l10.275,10.275c0.914,0.914,1.592,1.224,3.027,1.381l0.303,0.036
		c0.506,0.071,0.776,0.204,1.122,0.551l26.911,26.911c0.459,0.458,0.485,0.843,0.527,1.426c0.094,1.344,0.313,1.898,1.024,2.61
		l12.318,12.317c1.288,1.289,2.851,1.318,4.009,0.146c0.147-0.15,0.275-0.308,0.415-0.511l0.146-0.176l4.742-4.742l11.274,11.274
		c0.987,0.987,1.966,1.467,2.99,1.467c0.419,0,0.85-0.076,1.317-0.23c1.146-0.471,8.509-6.974,10.194-9.356
		C101.432,90.293,101.491,88.666,100.486,87.399 M2.721,12.964l-0.603-0.391l0.063-1.321l0.391-0.282
		c0.023-0.03,0.052-0.069,0.088-0.119C3.321,9.915,5.209,8.006,7.71,5.75c1.019-0.919,2.035-1.802,2.862-2.484
		c0.396-0.329,0.729-0.595,0.972-0.777l0.284-0.151l0.219-0.111l0.312-0.032c0.045,0,0.088,0.001,0.13,0.005h0.732l0.123,0.362
		c0.162,0.129,0.317,0.284,0.486,0.452l12.248,12.248L15.405,26.426L2.721,12.964z M67.253,92.917L54.596,80.261l-0.485-0.258
		l-0.018-0.756c0-0.026-0.002-0.1-0.017-0.308c-0.1-1.421-0.35-2.033-1.163-2.847L26,49.179c-0.692-0.691-1.374-1.029-2.357-1.166
		c-0.114-0.016-0.207-0.027-0.372-0.045c-0.789-0.087-1.141-0.174-1.721-0.755L11.275,36.939c-0.446-0.446-1.275-1.276-0.663-2.418
		l0.175-0.248c0.112-0.124,0.111-0.125,0.963-0.984l3.211-3.237c2.545-2.564,5.065-5.101,7.434-7.48
		c6.921-6.948,10.835-10.837,11.635-11.557l0.123-0.097c0.319-0.223,0.662-0.335,1.018-0.335c0.472,0,0.857,0.2,1.139,0.374
		c0.206,0.127,0.414,0.282,0.531,0.397l11.214,11.215c0.413,0.415,0.48,0.951,0.54,1.783c0.137,2.012,0.335,2.613,1.117,3.394
		l25.566,25.567c1.378,1.377,2.34,1.554,3.023,1.554c0.326,0,0.667-0.047,1.046-0.142l0.689-0.174l10.872,10.871
		c0.238,0.237,0.424,0.417,0.564,0.554c0.448,0.43,0.801,0.77,0.795,1.386c-0.007,0.583-0.376,0.926-0.497,1.038L67.253,92.917z
		 M98.614,90.502c-0.021,0.027-0.044,0.062-0.073,0.103c-0.662,0.936-2.551,2.842-5.053,5.1c-1.021,0.92-2.037,1.803-2.861,2.483
		c-0.396,0.328-0.729,0.594-0.97,0.776l-0.818,0.295c-0.044,0-0.087-0.002-0.128-0.006l-0.743-0.001l-0.121-0.367
		c-0.162-0.13-0.316-0.284-0.479-0.446L76.175,87.244l11.072-10.581l11.23,11.825l1.066,0.688L98.614,90.502z"/>
</g>
</svg>
