<?xml version="1.0" encoding="utf-8"?>
<!-- Generator: Adobe Illustrator 16.0.0, SVG Export Plug-In . SVG Version: 6.00 Build 0)  -->
<!DOCTYPE svg PUBLIC "-//W3C//DTD SVG 1.0//EN" "http://www.w3.org/TR/2001/REC-SVG-20010904/DTD/svg10.dtd">
<svg version="1.0" id="Calque_1" xmlns="http://www.w3.org/2000/svg" xmlns:xlink="http://www.w3.org/1999/xlink" x="0px" y="0px"
	 width="103.155px" height="103.151px" viewBox="0 0 103.155 103.151" enable-background="new 0 0 103.155 103.151"
	 xml:space="preserve">
<g>
	<defs>
		<rect id="SVGID_1_" width="103.155" height="103.151"/>
	</defs>
	<clipPath id="SVGID_2_">
		<use xlink:href="#SVGID_1_"  overflow="visible"/>
	</clipPath>
	<path clip-path="url(#SVGID_2_)" fill="#010101" d="M13.813,67.883c0.565,0.563,1.549,0.562,2.112,0l15.874-15.875
		c0-0.043-0.007-0.084-0.007-0.127c0-1.615,0.219-3.176,0.589-4.678L13.813,65.771C13.231,66.353,13.231,67.301,13.813,67.883"/>
	<path clip-path="url(#SVGID_2_)" fill="#010101" d="M13.738,36.975c0,0.823,0.67,1.493,1.493,1.493h21.918
		c1.066-1.129,2.258-2.135,3.563-2.986H15.231C14.408,35.482,13.738,36.152,13.738,36.975"/>
	<path clip-path="url(#SVGID_2_)" fill="#010101" d="M36.042,88.429c0.823,0,1.493-0.67,1.493-1.493V65.721
		c-1.154-1.154-2.147-2.463-2.986-3.874v25.089C34.549,87.759,35.219,88.429,36.042,88.429"/>
	<path clip-path="url(#SVGID_2_)" fill="#010101" d="M66.252,13.502c-0.823,0-1.493,0.67-1.493,1.493v22.641
		c1.128,1.06,2.134,2.245,2.986,3.544V14.996C67.745,14.172,67.075,13.502,66.252,13.502"/>
	<path clip-path="url(#SVGID_2_)" fill="#010101" d="M34.896,13.503c-0.398,0-0.773,0.155-1.056,0.437
		c-0.582,0.582-0.582,1.53,0,2.112l16.314,16.314c0.404-0.025,0.805-0.062,1.216-0.062c1.104,0,2.182,0.114,3.236,0.291
		L35.953,13.94C35.669,13.658,35.294,13.503,34.896,13.503"/>
	<path clip-path="url(#SVGID_2_)" fill="#010101" d="M88.519,35.827c-0.282-0.282-0.657-0.437-1.056-0.437s-0.773,0.155-1.056,0.437
		L70.921,51.314c0.005,0.19,0.028,0.376,0.028,0.567c0,1.391-0.15,2.746-0.428,4.055l17.997-17.998
		C89.101,37.356,89.101,36.409,88.519,35.827"/>
	<path clip-path="url(#SVGID_2_)" fill="#010101" d="M67.772,89.021c0.582-0.582,0.582-1.53,0-2.112L52.279,71.415
		c-0.303,0.014-0.602,0.046-0.909,0.046c-1.237,0-2.442-0.128-3.616-0.349l17.907,17.909C66.225,89.584,67.207,89.585,67.772,89.021
		"/>
	<path clip-path="url(#SVGID_2_)" fill="#010101" d="M61.967,68.321h25.636c0.823,0,1.493-0.67,1.493-1.493s-0.67-1.493-1.493-1.493
		H65.558C64.485,66.466,63.282,67.469,61.967,68.321"/>
	<path clip-path="url(#SVGID_2_)" fill="#010101" d="M98.419,34.039c-1.33-1.459-1.96-2.224-2.417-3.189
		c-0.396-0.836-0.544-1.772-0.728-3.555c-0.294-2.856-0.55-4.031-1.49-5.365c-1.918-2.727-4.11-5.279-6.518-7.588
		c-2.858-2.74-6.03-5.151-9.428-7.164c-1.324-0.784-2.407-1.003-4.798-1.226L72.39,5.889c-1.182-0.121-1.901-0.268-2.564-0.526
		c-0.783-0.303-1.577-0.719-2.834-1.48L66.219,3.41c-2.959-1.817-4.256-2.396-6.033-2.695C57.36,0.241,54.464,0,51.576,0
		c-4.292,0-8.564,0.53-12.697,1.575c-1.548,0.392-2.535,1.009-4.594,2.87c-1.328,1.201-2.025,1.768-2.907,2.172
		c-0.963,0.443-1.947,0.665-3.927,1.025c-3.084,0.561-4.437,0.946-5.891,1.987c-2.65,1.899-5.137,4.066-7.39,6.439
		c-2.088,2.199-3.993,4.594-5.661,7.121c-1.01,1.53-1.309,2.838-1.642,5.752l-0.066,0.561c-0.19,1.595-0.386,2.496-0.723,3.323
		c-0.336,0.827-0.819,1.579-1.986,3.097c-2.026,2.63-2.76,3.809-3.115,5.605C0.329,44.814,0,48.196,0,51.579
		c0,3.498,0.351,6.993,1.046,10.388c0.344,1.683,0.97,2.755,2.791,4.779l0.218,0.241c1.054,1.173,1.626,1.898,2.031,2.852
		c0.399,0.945,0.569,1.98,0.823,4.093c0.393,3.268,0.702,4.685,1.659,6.127c1.742,2.625,3.74,5.109,5.94,7.384
		c2.36,2.439,4.974,4.657,7.77,6.59c1.531,1.059,2.919,1.433,6.062,1.953c1.968,0.328,3.017,0.546,4.024,0.979
		c1.145,0.49,2.051,1.055,3.779,2.215c3.313,2.222,4.8,2.927,6.919,3.278c7.008,1.158,14.324,0.861,21.163-0.863
		c1.623-0.41,2.674-1.049,4.892-2.974c1.414-1.229,2.155-1.812,3.083-2.248c0.94-0.44,1.9-0.66,3.835-1.018
		c3.05-0.561,4.307-0.924,5.74-1.959c3.272-2.368,6.269-5.121,8.906-8.183c2.223-2.583,4.194-5.394,5.86-8.353
		c0.824-1.46,1.031-2.595,1.201-5.06c0.116-1.695,0.215-2.463,0.536-3.395c0.306-0.887,0.708-1.597,1.844-3.421
		c1.643-2.641,2.158-3.779,2.397-5.297c0.422-2.675,0.636-5.403,0.636-8.11c0-4.193-0.507-8.373-1.508-12.424
		C101.228,37.459,100.533,36.359,98.419,34.039 M99.91,59.277c-0.188,1.195-0.807,2.343-2.033,4.313
		c-1.275,2.052-1.706,2.819-2.097,3.954c-0.418,1.21-0.54,2.118-0.676,4.075c-0.139,2.024-0.291,2.925-0.866,3.944
		c-1.581,2.808-3.452,5.474-5.562,7.923c-2.505,2.91-5.348,5.523-8.451,7.768c-1.025,0.74-2.216,1.05-4.669,1.502
		c-2.271,0.418-3.289,0.666-4.48,1.224c-1.106,0.52-1.873,1.065-3.57,2.538c-1.742,1.513-2.674,2.197-3.929,2.513
		c-3.896,0.983-7.935,1.481-12.001,1.481c-2.708,0-5.428-0.223-8.081-0.662c-1.826-0.303-3.233-1.092-5.696-2.743
		c-2.096-1.407-3.075-2.007-4.393-2.572c-1.155-0.495-2.13-0.739-4.533-1.139c-2.662-0.442-3.958-0.753-5.092-1.538
		c-2.652-1.833-5.133-3.937-7.373-6.253c-2.089-2.161-3.986-4.518-5.638-7.008c-0.598-0.902-0.881-2.018-1.213-4.771
		c-0.321-2.68-0.515-3.78-1.037-5.016c-0.503-1.188-1.063-1.991-2.5-3.588l-0.218-0.243c-1.29-1.434-1.91-2.286-2.166-3.541
		c-0.66-3.22-0.994-6.537-0.994-9.859c0-3.213,0.313-6.422,0.929-9.54c0.251-1.275,0.954-2.347,2.435-4.269l0.182-0.238
		c1.346-1.751,1.893-2.618,2.338-3.711c0.442-1.085,0.677-2.134,0.9-4.007l0.066-0.571c0.27-2.345,0.499-3.501,1.223-4.598
		c1.583-2.398,3.39-4.671,5.372-6.758c2.138-2.252,4.498-4.308,7.014-6.11c1.058-0.758,2.282-1.072,4.801-1.53
		c2.329-0.424,3.371-0.673,4.579-1.228c1.094-0.501,1.837-1.04,3.458-2.506c1.59-1.437,2.44-2.084,3.589-2.375
		c6.555-1.659,13.554-1.936,20.218-0.817c1.506,0.254,2.787,0.927,5.09,2.341l0.785,0.481c1.399,0.848,2.311,1.321,3.248,1.684
		c0.901,0.35,1.813,0.544,3.25,0.691l0.676,0.066c1.867,0.173,2.794,0.333,3.696,0.868c3.224,1.91,6.233,4.197,8.945,6.798
		c2.281,2.187,4.363,4.61,6.188,7.201c0.604,0.858,0.794,1.904,1.018,4.075c0.233,2.267,0.416,3.28,0.972,4.454
		c0.594,1.255,1.242,2.074,2.771,3.751c1.638,1.797,2.375,2.758,2.697,4.058c0.949,3.841,1.43,7.807,1.43,11.79
		C100.512,54.15,100.31,56.74,99.91,59.277"/>
	<path clip-path="url(#SVGID_2_)" fill="#010101" d="M69.449,51.881c0-9.968-8.11-18.077-18.079-18.077
		c-9.968,0-18.078,8.109-18.078,18.077c0,9.969,8.11,18.079,18.078,18.079C61.339,69.96,69.449,61.85,69.449,51.881 M35.937,51.881
		c0-8.51,6.924-15.434,15.434-15.434c8.512,0,15.437,6.924,15.437,15.434c0,8.511-6.925,15.437-15.437,15.437
		C42.86,67.318,35.937,60.392,35.937,51.881"/>
</g>
</svg>
