<?xml version="1.0" encoding="utf-8"?>
<!-- Generator: Adobe Illustrator 16.0.0, SVG Export Plug-In . SVG Version: 6.00 Build 0)  -->
<!DOCTYPE svg PUBLIC "-//W3C//DTD SVG 1.1//EN" "http://www.w3.org/Graphics/SVG/1.1/DTD/svg11.dtd">
<svg version="1.1" id="Calque_1" xmlns="http://www.w3.org/2000/svg" xmlns:xlink="http://www.w3.org/1999/xlink" x="0px" y="0px"
	 width="101.493px" height="61.386px" viewBox="0 0 101.493 61.386" enable-background="new 0 0 101.493 61.386"
	 xml:space="preserve">
<path fill="#231F20" d="M101.224,5.387c-0.151-1.712-1.155-3.468-2.62-4.583C98.12,0.436,97.521,0.25,96.827,0.25
	c-2.561,0-5.507,2.433-6.062,5.006c-0.211,0.974-0.684,1.939-1.4,2.87c-0.447,0.583-0.869,1.002-1.146,1.25l-0.241,0.219
	l-0.747,0.199c-0.725,0.196-1.532,0.419-2.4,0.668c-2.632,0.756-5.084,1.527-7.289,2.292c-1.814,0.63-3.426,1.245-4.785,1.829
	c-3.25,1.393-6.528,1.869-9.453,1.376c-0.416-0.071-0.672-0.137-0.75-0.161L38.708,7.647l-0.242-0.288
	c-0.841-1.005-1.768-1.552-2.686-1.59l-0.847,0.062l-0.003-0.03L1.043,7.104C0.597,7.121,0.25,7.483,0.25,7.928v7.412
	c0,0.429,0.323,0.782,0.751,0.82c3.244,0.292,5.703,0.569,7.517,0.847c2.628,0.401,3.951,0.772,5.448,1.525
	c0.206,0.104,0.948,0.491,1.134,0.589c0.564,0.291,1.027,0.519,1.551,0.756c2.53,1.146,6.043,2.696,8.497,3.779
	c1.579,0.696,2.726,1.203,2.911,1.293c0.136,0.065,0.237,0.108,0.313,0.141c0.65,0.276,0.83,0.507,1.254,1.137l0.308,0.453
	c1.805,2.616,2.477,5.479,2.477,10.565c0,1.254-0.046,2.565-0.14,4.012c-0.142,2.178-0.377,4.479-0.782,7.693
	c-0.165,1.299-0.276,2.17-0.379,2.738l-0.01,0.266c-0.145,1.135-0.242,1.932-0.324,2.66c-0.246,2.227,0.115,3.895,1.075,4.963
	c0.563,0.623,1.104,0.814,1.376,0.873c0.231,0.034,0.516,0.073,0.902,0.125c0.653,0.084,1.362,0.168,2.1,0.246
	c0.985,0.105,1.947,0.192,2.859,0.256c0.285,0.02,0.563,0.037,0.833,0.053c0.089,0.004,0.181,0.006,0.271,0.006
	c1.491,0,2.667-0.619,3.4-1.79c0.445-0.712,0.592-1.345,0.637-1.75c0.049-0.32,0.133-0.9,0.243-1.652l0.021-0.146
	c0.201-1.379,0.401-2.771,0.59-4.088l0.049-0.354c0.373-2.627,0.622-4.461,0.736-5.45c0.1-0.846,0.208-2.008,0.321-3.453
	c0.085-1.095,0.168-2.265,0.243-3.434l0.099-1.562l-0.007-0.211l-1.123-12.783l0.504-0.45c1.583-1.414,4.018-2.161,7.043-2.161
	c2.24,0,4.749,0.417,7.256,1.206c3.164,0.997,5.08,1.504,6.782,1.504c1.16,0,2.312-0.214,4.25-0.787l1.935-0.569
	c0.936-0.276,1.763-0.521,2.607-0.775c2.385-0.715,4.46-1.361,6.342-1.975c1.492-0.485,2.877-0.954,4.144-1.405
	c3.431-1.223,5.729-2.216,7.024-3.038c1.094-0.69,2.043-1.452,2.907-2.33c0.58-0.588,1.12-1.227,1.698-2.01
	c0.173-0.235,0.529-0.742,0.82-1.158v-0.002l0.457-0.651c0.41-0.578,0.72-0.967,1.029-1.303
	C101.184,7.491,101.299,6.245,101.224,5.387 M44.876,37.521c-0.019,0.318-0.048,0.793-0.087,1.393
	c-0.076,1.162-0.159,2.324-0.243,3.407c-0.11,1.399-0.216,2.56-0.315,3.394c-0.117,1.007-0.374,2.9-0.729,5.41l-0.051,0.355
	c-0.187,1.314-0.388,2.704-0.589,4.08l-0.267,1.822c-0.042,0.341-0.19,0.75-0.396,1.084c-0.433,0.688-1.073,1.023-1.959,1.023
	c-0.073,0-0.151-0.003-0.233-0.008c-0.26-0.014-0.528-0.029-0.805-0.049c-0.884-0.062-1.828-0.146-2.798-0.251
	c-0.726-0.078-1.423-0.16-2.066-0.243l-0.983-0.129l-0.337-0.409c-0.596-0.719-0.793-1.897-0.603-3.606
	c0.078-0.709,0.174-1.496,0.32-2.621l0.014-0.076c0.012-0.126,0.031-0.275,0.054-0.459l0.32-2.482
	c0.414-3.271,0.65-5.604,0.792-7.789c0.097-1.494,0.145-2.842,0.145-4.121c0-5.388-0.776-8.612-2.769-11.502
	c-1.101-1.595-1.101-1.595-2.515-2.277c-0.206-0.1-1.276-0.572-2.744-1.221l-0.475-0.209c-2.472-1.091-5.829-2.573-8.226-3.659
	c-0.491-0.223-0.926-0.436-1.436-0.699c-0.259-0.136-0.962-0.505-1.188-0.618c-1.653-0.831-3.152-1.256-5.94-1.682
	c-1.461-0.223-3.308-0.443-5.65-0.673l-1.218-0.119V8.721l33.657-1.308c0.011-0.005,0.014-0.005,0.055-0.015l0.477-0.127
	l0.084,0.277l0.121,0.069c0.66,0.379,1.27,1.123,1.864,2.275c0.247,0.479,0.484,1.023,0.707,1.618
	c0.193,0.517,0.399,1.053,0.616,1.605c0.26,0.662,0.534,1.342,0.82,2.039c0.712,1.725,1.487,3.518,2.302,5.33
	c0.274,0.611,0.528,1.169,0.758,1.665l0.234,0.575l1.287,14.697L44.876,37.521z M98.859,7.324c-0.368,0.401-0.721,0.844-1.174,1.481
	c-0.108,0.158-0.983,1.413-1.259,1.785c-0.521,0.706-1.006,1.282-1.529,1.813c-0.766,0.777-1.609,1.454-2.583,2.07
	c-1.166,0.738-3.407,1.701-6.663,2.861c-1.245,0.443-2.613,0.907-4.095,1.388c-1.904,0.62-3.966,1.262-6.304,1.963
	c-0.842,0.252-1.664,0.497-2.599,0.772l-1.937,0.569c-1.579,0.467-2.594,0.705-3.754,0.705c-1.564,0-3.17-0.452-6.215-1.412
	c-2.758-0.869-5.395-1.308-7.838-1.308c-2.52,0-4.763,0.492-6.485,1.423l-1.274,0.689l-1.047-2.312
	c-0.829-1.844-1.597-3.622-2.281-5.284c-0.251-0.61-0.488-1.2-0.718-1.781l-1.08-2.72l21.958,7.504
	c0.251,0.079,0.595,0.156,1.009,0.226c3.273,0.556,6.9,0.036,10.475-1.498c1.338-0.572,2.906-1.172,4.666-1.783
	c2.174-0.754,4.594-1.514,7.195-2.26c0.858-0.247,1.655-0.468,2.371-0.662c0.432-0.116,0.736-0.196,0.896-0.237
	c0.116-0.03,0.224-0.081,0.319-0.153c0.287-0.214,1.049-0.833,1.889-1.924c0.886-1.148,1.47-2.358,1.738-3.597
	c0.401-1.86,2.875-3.676,4.082-3.676h0.434l0.41,0.268c1.05,0.795,1.806,2.122,1.91,3.323C99.461,6.464,99.142,7.018,98.859,7.324"
	/>
</svg>
