<?xml version="1.0" encoding="utf-8"?>
<!-- Generator: Adobe Illustrator 16.0.0, SVG Export Plug-In . SVG Version: 6.00 Build 0)  -->
<!DOCTYPE svg PUBLIC "-//W3C//DTD SVG 1.1//EN" "http://www.w3.org/Graphics/SVG/1.1/DTD/svg11.dtd">
<svg version="1.1" id="Calque_1" xmlns="http://www.w3.org/2000/svg" xmlns:xlink="http://www.w3.org/1999/xlink" x="0px" y="0px"
	 width="105.996px" height="106px" viewBox="0 0 105.996 106" enable-background="new 0 0 105.996 106" xml:space="preserve">
<path d="M88.812,87.979c0.098-0.093,0.174-0.164,0.252-0.235C89.038,87.744,89.018,87.785,88.812,87.979"/>
<path d="M100.758,54.031c0.521-0.344,1.051-0.589,2.182-1.041c0.531-0.213,0.74-0.298,0.988-0.404
	c1.717-0.733,2.143-1.334,2.061-3.09c-0.102-2.079-0.527-2.676-2.381-3.226c-0.234-0.069-0.428-0.124-0.83-0.238
	c-1.141-0.323-1.656-0.483-2.211-0.696c-1.938-0.743-2.412-3.267-0.894-4.678c0.629-0.584,1.321-1.14,2.056-1.655
	c0.886-0.618,1.098-0.785,1.373-1.177c0.616-0.88,0.61-0.913-0.076-3.006c-0.428-1.289-1.348-2.033-2.729-1.969
	c-0.063,0.003-0.133,0.004-0.204,0.004v-0.099h-1.377c-0.186,0-0.334,0.003-0.646,0.011c-0.639,0.016-0.897,0.015-1.201-0.015
	c-2.117-0.206-3.227-2.626-2.047-4.397c0.275-0.416,0.533-0.765,1.104-1.516c0.443-0.581,0.64-0.842,0.88-1.18
	c0.303-0.424,0.534-0.915,0.549-1.436c0.062-2.082-2.219-3.874-4.209-3.394c-0.367,0.089-0.656,0.167-1.291,0.342
	c-1.002,0.275-1.461,0.39-1.977,0.484c-1.977,0.359-3.635-1.346-3.201-3.286c0.117-0.527,0.278-0.975,0.686-1.974
	c0.236-0.587,0.34-0.846,0.459-1.179c0.234-0.659,0.313-0.953,0.306-1.427c-0.017-0.762-0.382-1.43-1.058-1.913
	c-0.064-0.047-0.135-0.1-0.258-0.197c-1.358-1.065-2.441-1.316-3.781-0.415c-1.127,0.762-2.012,1.275-2.887,1.651
	c-1.895,0.811-3.982-0.655-3.938-2.716c0.016-0.667,0.068-1.223,0.219-2.476c0.036-0.299,0.053-0.434,0.071-0.601
	c0.157-1.373-0.452-2.455-1.785-2.914c-0.076-0.027-0.153-0.057-0.315-0.126c-0.375-0.158-0.533-0.218-0.785-0.284
	c-0.973-0.252-1.896-0.003-2.643,0.834c-0.128,0.143-0.128,0.143-0.256,0.287c-0.984,1.098-1.529,1.656-2.173,2.179
	c-1.659,1.348-4.123,0.491-4.618-1.609c-0.1-0.417-0.163-0.772-0.291-1.568c-0.102-0.632-0.146-0.904-0.219-1.261
	c-0.264-1.326-1.362-2.333-2.706-2.48c-0.315-0.035-0.392-0.044-0.44-0.052c-1.133-0.192-2.262,0.359-2.765,1.392
	c-0.373,0.767-0.743,1.471-1.392,2.669c-0.488,0.901-1.399,1.537-2.424,1.603c-1.374,0.089-2.3-0.441-2.934-1.688
	c-0.179-0.348-0.179-0.348-0.217-0.423c-0.515-1.004-0.743-1.468-0.984-2.031c-0.555-1.296-1.669-1.842-3.019-1.591
	c-0.416,0.083-0.501,0.097-0.568,0.099c-1.288,0.034-2.112,0.849-2.347,2.077c-0.15,0.791-0.308,1.561-0.558,2.742
	C42.88,5.801,42.58,6.376,42.1,6.791c-1.274,1.1-2.94,1.043-4.167-0.159c-0.515-0.506-0.941-0.967-1.801-1.932
	c-0.215-0.24-0.215-0.24-0.323-0.362c-0.741-0.828-1.754-1.067-2.779-0.683c-0.159,0.06-0.28,0.11-0.531,0.217
	c-0.241,0.103-0.35,0.147-0.46,0.187c-1.035,0.376-1.695,1.394-1.602,2.49c0.053,0.63,0.089,1.187,0.149,2.255
	c0.025,0.443,0.033,0.587,0.044,0.767c0.072,1.271-0.381,2.171-1.404,2.796c-1.009,0.616-2.022,0.601-3.139-0.043
	c-0.362-0.208-0.658-0.386-1.299-0.775c-0.32-0.195-0.466-0.284-0.631-0.382c-1.612-0.971-1.586-0.958-2.346-0.867
	c-0.437,0.053-0.772,0.219-1.179,0.509c-0.158,0.112-0.806,0.614-0.917,0.698c-0.905,0.683-1.237,1.696-0.889,2.759
	c0.067,0.205,0.067,0.205,0.134,0.411c0.383,1.176,0.573,1.716,0.852,2.366c0.88,2.054-0.7,4.296-2.856,4.084
	c-0.509-0.05-0.949-0.155-1.962-0.445c-0.483-0.138-0.676-0.191-0.867-0.241c-2.306-0.597-2.944-0.369-4.32,1.551
	c-0.65,0.907-0.709,1.936-0.066,2.874c0.202,0.294,0.362,0.531,0.719,1.069c0.47,0.707,0.683,1.022,0.96,1.415
	c0.77,1.091,0.874,2.094,0.325,3.168c-0.543,1.064-1.419,1.555-2.759,1.556c-0.187,0-0.187,0-0.375,0
	c-1.136-0.001-1.695,0.002-2.32,0.018c-2.087,0.053-3.745,1.901-3.426,3.964c0.114,0.734,0.372,1.067,0.874,1.501
	c1.034,0.872,1.696,1.422,2.394,1.98c1.009,0.806,1.369,1.769,1.115,2.955c-0.239,1.12-0.989,1.822-2.32,2.185
	c-0.92,0.253-1.585,0.448-2.244,0.665c-0.549,0.179-0.782,0.26-1.032,0.37C0.51,46.21,0.175,46.878,0.05,48.3
	c-0.009,0.103-0.018,0.219-0.038,0.456c-0.111,1.38,0.529,2.3,1.784,2.792c0.948,0.372,1.819,0.757,2.626,1.169
	c0.911,0.464,1.596,1.333,1.69,2.351c0.108,1.169-0.351,2.004-1.478,2.699c-0.241,0.146-0.433,0.27-0.855,0.531
	c-0.862,0.541-1.248,0.779-1.722,1.059c-1.137,0.667-1.685,1.734-1.395,3.042c0.069,0.312,0.131,0.644,0.188,0.998
	c0.186,1.134,0.979,1.759,2.065,1.886C4,65.414,5.06,65.569,6.092,65.75c1.238,0.215,1.987,0.826,2.359,1.939
	c0.36,1.082,0.159,1.977-0.641,2.831c-0.498,0.534-0.98,1.038-1.77,1.853c-0.824,0.854-0.868,0.901-1.078,1.316
	c-0.499,0.984-0.307,1.688,0.526,3.282c0.527,1.007,1.471,1.473,2.58,1.31c0.166-0.023,0.304-0.044,0.609-0.089
	c1.07-0.155,1.544-0.222,2.126-0.28c1.554-0.156,2.578,0.215,3.28,1.24c0.734,1.072,0.705,2.104-0.078,3.348
	c-0.237,0.375-0.407,0.685-0.752,1.344c-0.142,0.271-0.207,0.393-0.278,0.523c-0.719,1.311-0.868,1.701-0.654,2.527
	c0.152,0.586,0.304,0.781,1.176,1.754c0.937,1.043,2.09,1.232,3.337,0.646c1.142-0.541,1.986-0.898,2.82-1.184
	c1.259-0.427,2.278-0.199,3.172,0.721c0.751,0.771,0.94,1.918,0.661,2.957c-0.181,0.676-0.349,1.359-0.505,2.053
	c-0.555,2.464-0.219,3.158,2.057,4.326c0.888,0.455,1.968,0.34,2.728-0.31c0.474-0.405,0.862-0.724,1.746-1.435
	c0.3-0.238,0.433-0.348,0.6-0.481c1.083-0.876,2.13-1.024,3.317-0.469c1.191,0.56,1.735,1.479,1.745,2.933
	c0.003,0.387,0.01,0.715,0.027,1.362c0.018,0.683,0.024,0.964,0.028,1.312c0.012,1.369,0.741,2.383,2.144,2.615
	c0.067,0.012,0.155,0.036,0.358,0.1c0.258,0.08,0.372,0.115,0.533,0.152c1.118,0.268,2.11-0.123,2.734-1.133
	c0.418-0.68,0.835-1.275,1.634-2.37c0.804-1.099,1.774-1.521,3.035-1.312c1.315,0.219,2.114,0.953,2.53,2.326
	c0.059,0.191,0.059,0.191,0.106,0.35c0.356,1.171,0.589,1.863,0.897,2.604c0.294,0.7,0.995,1.223,1.706,1.438
	c0.412,0.123,0.735,0.146,1.316,0.146c0.207-0.002,0.276,0,0.353,0.002c1.179,0.035,2.054-0.598,2.39-1.746
	c0.331-1.115,0.675-2.131,1.046-3.082c0.471-1.205,1.281-1.854,2.504-2.002c1.18-0.141,2.086,0.291,2.82,1.346
	c0.189,0.271,0.354,0.52,0.665,0.992c0.328,0.502,0.466,0.711,0.632,0.955c0.59,0.869,0.773,1.113,1.133,1.408
	c0.864,0.709,1.319,0.674,3.142,0.205c1.184-0.305,1.886-1.109,1.94-2.347c0.01-0.185,0.016-0.333,0.027-0.665
	c0.059-1.45,0.111-2.113,0.244-2.816c0.113-0.596,0.386-1.201,0.711-1.576c1.088-1.262,2.786-1.365,4.238-0.224
	c0.832,0.658,1.543,1.259,2.188,1.858c0.939,0.873,2.354,1.031,3.424,0.322c0.18-0.117,0.334-0.207,0.469-0.271
	c1.225-0.569,1.697-1.685,1.4-2.978c-0.167-0.725-0.291-1.316-0.559-2.643c-0.094-0.466-0.094-0.466-0.159-0.783
	c-0.155-0.759,0.024-1.432,0.56-2.104c0.844-1.066,2.309-1.393,3.832-0.781c0.332,0.133,0.604,0.254,1.211,0.534
	c0.822,0.379,1.209,0.547,1.698,0.728c0.812,0.303,1.897,0.281,2.563-0.346c0.029-0.027,0.578-0.535,0.718-0.67
	c0.285-0.277,0.485-0.508,0.651-0.771c0.646-1.033,0.457-1.976-0.373-3.398c-0.109-0.212-0.18-0.352-0.287-0.566
	c-0.375-0.75-0.528-1.052-0.729-1.42c-0.633-1.176-0.637-2.076,0.01-2.988c0.756-1.062,1.731-1.474,3.09-1.314
	c0.972,0.111,1.977,0.26,3.033,0.438c1.387,0.229,2.521-0.338,3.008-1.688c0.186-0.35,0.209-0.395,0.242-0.455
	c0.561-1.061,0.387-2.357-0.433-3.232c-0.293-0.313-0.532-0.576-1.047-1.143c-0.562-0.619-0.815-0.896-1.128-1.23
	c-1.678-1.799-0.635-4.34,1.641-4.734c0.215-0.037,0.396-0.072,0.746-0.145c0.758-0.156,1.098-0.213,1.441-0.226
	c1.791-0.069,3.365-1.313,3.645-3.084c0.209-1.329-0.107-2.296-1.244-2.974c-0.236-0.139-0.236-0.139-0.365-0.217
	c-1.273-0.754-1.937-1.174-2.623-1.683C99.068,57.281,99.102,55.128,100.758,54.031 M88.811,87.979
	c0.207-0.194,0.229-0.235,0.254-0.235C88.986,87.815,88.909,87.887,88.811,87.979 M99.055,60.699
	c0.783,0.579,1.504,1.035,2.854,1.836c0.13,0.077,0.13,0.077,0.26,0.154c-0.056,0.889-0.164,0.982-0.862,0.996
	c-0.602,0.012-1.043,0.082-1.992,0.275c-0.352,0.072-0.512,0.104-0.689,0.135c-4.337,0.756-6.427,5.849-3.186,9.328
	c0.303,0.322,0.551,0.594,1.076,1.172c0.551,0.607,0.795,0.873,1.1,1.199c-0.232,0.502-0.307,0.648-0.389,0.875
	c-1.06-0.277-2.11-0.432-3.133-0.551c-2.337-0.271-4.304,0.559-5.65,2.457c-1.299,1.827-1.291,3.844-0.189,5.889
	c0.182,0.334,0.326,0.619,0.633,1.234c0.165,0.329,0.237,0.473,0.313,0.622c0.282,0.497,0.407,0.75,0.458,0.892
	c-0.055,0.029-0.206,0.166-0.592,0.527c-0.397-0.146-0.737-0.296-1.447-0.623c-0.686-0.314-0.984-0.447-1.372-0.604
	c-2.615-1.049-5.386-0.432-7.015,1.628c-1.021,1.284-1.422,2.778-1.1,4.364c0.064,0.313,0.064,0.313,0.128,0.627
	c0.304,1.5,0.433,2.107,0.604,2.863c-0.135-0.017-0.389,0.129-0.661,0.307c-0.779-0.67-1.544-1.317-2.433-2.02
	c-2.578-2.029-5.948-1.824-8.025,0.588c-0.659,0.76-1.131,1.81-1.332,2.859c-0.166,0.877-0.229,1.643-0.283,3.049
	c-0.02,0.499-0.025,0.645-0.033,0.823c-0.431-0.019-0.636,0.004-0.767,0.019c0.026-0.06-0.125-0.273-0.421-0.709
	c-0.156-0.229-0.287-0.428-0.549-0.828c-0.383-0.584-0.56-0.848-0.769-1.146c-1.302-1.867-3.188-2.768-5.403-2.503
	c-2.25,0.271-3.91,1.599-4.744,3.733c-0.374,0.957-0.718,1.979-1.047,3.074c-0.046,0-0.082,0-0.143,0
	c-0.357,0-0.486-0.01-0.557-0.031c-0.221-0.489-0.431-1.114-0.762-2.203c-0.047-0.153-0.047-0.153-0.094-0.311
	c-0.724-2.39-2.352-3.889-4.728-4.279c-2.307-0.381-4.3,0.481-5.706,2.401c-0.841,1.151-1.289,1.794-1.754,2.55
	c-0.417-0.301-0.59-0.349-0.825-0.389c0.148-0.295,0.142-0.586,0.124-1.236c-0.018-0.679-0.024-0.994-0.027-1.357
	c-0.017-2.477-1.141-4.379-3.329-5.404c-2.163-1.016-4.332-0.705-6.217,0.818c-0.164,0.135-0.295,0.238-0.593,0.479
	c-0.815,0.654-1.224,0.988-1.661,1.358c-0.959-0.457-0.721-0.032-0.46-1.191c0.149-0.664,0.309-1.314,0.482-1.955
	c0.489-1.82,0.18-3.814-1.045-5.244c-1.697-1.979-3.964-2.547-6.337-1.742c-0.953,0.324-1.883,0.722-3.108,1.3
	c-0.395-0.349-0.565-0.521-0.632-0.58c0.066,0.004,0.164-0.175,0.365-0.54c0.082-0.152,0.151-0.282,0.272-0.514
	c0.338-0.646,0.483-0.908,0.669-1.203c1.344-2.137,1.405-4.35,0.02-6.372c-1.329-1.938-3.346-2.673-5.829-2.425
	c-0.638,0.066-1.138,0.135-2.247,0.297c-0.304,0.045-0.438,0.064-0.605,0.088c-0.021-0.35-0.122-0.604-0.177-0.771
	c0.051-0.01,0.187-0.15,0.522-0.496c0.776-0.801,1.263-1.309,1.759-1.84c1.27-1.359,1.889-3.269,1.446-5.074
	c-0.596-2.428-2.259-3.92-4.659-4.338c-0.996-0.173-2.021-0.318-3.066-0.449c-0.047-0.266-0.092-0.532-0.148-0.783
	c0.606-0.367,1.007-0.614,1.873-1.157c0.435-0.272,0.624-0.392,0.857-0.535c2.033-1.253,3.055-3.142,2.747-5.542
	c-0.244-1.892-1.533-3.485-3.235-4.345c-0.869-0.439-1.795-0.848-2.792-1.238c-0.024-0.244-0.015-0.35-0.007-0.444
	c0.031-0.35,0.054-0.481,0.047-0.466c0.051,0.1,0.241,0.033,0.701-0.117c0.61-0.2,1.237-0.384,2.115-0.626
	c2.266-0.618,3.815-2.068,4.284-4.263c0.476-2.222-0.276-4.235-2.089-5.684c-0.674-0.538-1.32-1.074-2.324-1.922
	c0.026,0.062,0.522-0.61,0.675-0.614C6.864,34.83,7.4,34.826,8.61,34.827c0.188,0,0.188,0,0.377,0
	c2.336-0.001,4.177-1.033,5.21-3.056c1.031-2.017,0.814-4.109-0.527-6.008c-0.257-0.364-0.461-0.666-0.916-1.352
	c-0.367-0.551-0.532-0.797-0.743-1.104c0.745-0.703,0.217-0.514,1.425-0.201c0.167,0.044,0.341,0.092,0.574,0.158
	c1.398,0.4,1.945,0.531,2.676,0.603c4.268,0.42,7.351-3.954,5.656-7.91c-0.236-0.549-0.406-1.035-0.749-2.087
	c-0.045-0.14-0.066-0.203-0.087-0.267c0.175-0.134,0.434-0.333,0.598-0.458c0.036,0.021,0.069,0.04,0.113,0.067
	c0.089,0.053,0.465,0.28,0.521,0.314c0.161,0.096,0.304,0.183,0.567,0.343c0.713,0.434,1.022,0.619,1.408,0.841
	c1.965,1.133,4.054,1.163,5.948,0.006c1.905-1.163,2.846-3.034,2.718-5.303c-0.011-0.18-0.019-0.322-0.037-0.643
	c-0.06-1.064-0.096-1.638-0.141-2.208c0.096-0.039,0.203-0.083,0.343-0.143c0.249-0.106,0.344-0.145,0.452-0.185
	c0.027,0.238,0.027,0.238,0.081,0.298c0.9,1.01,1.355,1.503,1.929,2.066c2.248,2.202,5.533,2.315,7.893,0.277
	c0.98-0.846,1.556-1.952,1.851-3.324c0.239-1.132,0.396-1.894,0.542-2.658c0.169-0.017,0.336-0.046,0.592-0.098
	c0.408,0.578,0.655,1.082,1.199,2.143c0.146,0.284,0.146,0.284,0.214,0.416c1.147,2.255,3.169,3.413,5.773,3.169
	c1.933-0.181,3.601-1.442,4.523-3.149c0.624-1.152,0.995-1.86,1.372-2.636C60.3,2.904,60.3,2.904,60.371,2.913
	c0.119,0.014,0.208,0.026,0.285,0.038c0.017,0.074,0.033,0.152,0.057,0.265c0.061,0.303,0.104,0.555,0.195,1.13
	c0.14,0.873,0.212,1.273,0.33,1.773c0.957,4.044,5.824,5.728,9.048,3.105c0.782-0.637,1.403-1.273,2.474-2.468
	c0.131-0.146,0.131-0.146,0.26-0.29c-0.026,0.017,0.061,0.05,0.306,0.153c0.22,0.093,0.338,0.14,0.491,0.192
	c-0.075,0.158-0.092,0.288-0.127,0.585c-0.153,1.282-0.215,1.902-0.234,2.64c-0.113,4.074,4.045,7.013,7.788,5.402
	c1.059-0.456,2.073-1.046,3.325-1.891c0.13-0.087,0.019-0.113,0.385,0.173c0.303,0.24,0.398,0.313,0.511,0.394
	c-0.339,0.459-0.431,0.693-0.646,1.225c-0.478,1.171-0.67,1.715-0.834,2.45c-0.852,3.838,2.521,7.281,6.389,6.575
	c0.619-0.113,1.137-0.243,2.111-0.511c0.707-0.195,0.979-0.268,1.309-0.347c0.238-0.058,0.803,0.372,0.811,0.622
	c-0.26,0.241-0.442,0.486-0.862,1.038c-0.609,0.799-0.892,1.181-1.207,1.656c-2.334,3.508-0.101,8.28,4.097,8.673
	c0.441,0.041,0.775,0.043,1.5,0.025c0.122-0.003,0.213-0.006,0.292-0.007l0.222,0.012c0.125,0.006,0.23,0.014,0.474,0.033
	c0.638,0.048,0.958,0.061,1.312,0.043c0.021,0.192,0.172,0.641,0.202,0.738c0.009,0.023,0.011,0.036,0.017,0.056
	c-0.107,0.08-0.262,0.19-0.494,0.353c-0.844,0.591-1.641,1.232-2.368,1.909c-3.003,2.796-2.033,7.78,1.798,9.249
	c0.656,0.252,1.23,0.431,2.316,0.738c0.524,0.149,0.709,0.201,0.93,0.266c0.191,0.057,0.318,0.097,0.412,0.129
	c-0.027,0.069-0.018,0.255,0,0.588c0.005,0.117,0.008,0.201,0.009,0.275c-0.071,0.011-0.198,0.066-0.399,0.152
	c-0.222,0.094-0.416,0.174-0.82,0.335c-1.383,0.553-2.033,0.853-2.744,1.318C96.094,53.792,95.995,58.43,99.055,60.699"/>
<path d="M80.275,38.072c-0.693,0.085-1.239,0.188-2.409,0.435c-0.493,0.104-0.702,0.147-0.962,0.198
	c-0.104,0.02-0.19,0.041-0.305,0.071c-0.197,0.051-0.25,0.063-0.301,0.073c-3.142,0.603-5.645-0.22-7.513-2.534
	c-1.8-2.228-2.123-4.768-1.007-7.605c0.087-0.219,0.166-0.404,0.348-0.814c0.305-0.684,0.441-1.013,0.58-1.427
	c0.709-2.099-0.557-4.992-2.846-5.561c-0.225-0.055-0.465-0.161-0.715-0.291l0.062-0.191c-3.452-1.45-7.139-2.197-11.096-2.297
	c-4.524-0.116-8.798,0.568-12.837,2.105c-2.478,0.945-3.914,3.236-3.463,5.71c0.11,0.605,0.273,1.038,0.666,1.922
	c0.051,0.116,0.051,0.116,0.101,0.227c0.045,0.103,0.082,0.189,0.115,0.27c0.989,2.378,0.79,4.648-0.578,6.866
	c-1.789,2.898-5.392,4.151-8.807,3.064c-0.923-0.294-1.73-0.505-2.522-0.643c-1.51-0.262-2.913-0.026-4.134,0.792
	c-0.032,0.021-0.064,0.048-0.095,0.07c-1.046,0.131-1.627,0.815-2.014,1.847c-0.573,1.525-0.892,2.446-1.175,3.465
	c-1.915,6.899-1.7,13.796,0.616,20.644c0.604,1.779,1.852,3,3.642,3.469c1.371,0.361,2.61,0.123,4.14-0.58
	c2.83-1.297,5.415-1.07,7.857,0.719c2.99,2.186,3.846,6.24,2.028,9.631c-1.799,3.352-0.623,6.596,2.925,7.922
	c7.893,2.957,15.913,2.996,23.963,0.166c0.907-0.321,1.791-0.948,2.43-1.698c1.529-1.796,1.573-3.896,0.436-6.116
	c-1.711-3.341-0.637-7.57,2.449-9.643c2.547-1.709,5.183-1.793,8.074-0.316c3.133,1.596,6.482,0.355,7.707-2.923
	c2.903-7.771,3.045-15.599,0.389-23.396C85.204,39.285,82.809,37.763,80.275,38.072 M83.061,64.134
	c-0.643,1.718-2.191,2.291-3.877,1.433c-3.759-1.917-7.459-1.798-10.859,0.483c-4.251,2.853-5.713,8.607-3.366,13.185
	c0.669,1.306,0.651,2.218-0.08,3.076c-0.333,0.392-0.815,0.731-1.25,0.888c-7.442,2.616-14.798,2.58-22.082-0.148
	c-1.972-0.736-2.482-2.145-1.464-4.043c2.458-4.584,1.284-10.146-2.828-13.153c-3.258-2.388-6.906-2.706-10.632-0.998
	c-1.005,0.462-1.655,0.588-2.291,0.42c-0.872-0.229-1.42-0.767-1.734-1.688c-2.14-6.328-2.337-12.662-0.571-19.024
	c0.255-0.921,0.553-1.78,1.1-3.235c0.02-0.054,0.033-0.085,0.047-0.119c0.22-0.031,0.423-0.09,0.606-0.192
	c0.133-0.074,0.213-0.132,0.354-0.242c0.651-0.442,1.339-0.558,2.185-0.411c0.653,0.115,1.346,0.295,2.16,0.554
	c6.05,1.927,12.663-1.645,13.498-8.684c0.196-1.66-0.084-3.351-0.723-4.896c-0.045-0.11-0.093-0.22-0.15-0.35
	c-0.053-0.121-0.053-0.121-0.105-0.239c-0.304-0.682-0.415-0.98-0.473-1.297c-0.203-1.113,0.449-2.153,1.734-2.643
	c3.694-1.405,7.612-2.033,11.787-1.926c3.149,0.08,6.093,0.604,8.861,1.602l0.305,0.197c0.665,0.43,1.312,0.734,1.99,0.901
	c0.604,0.151,1.125,1.337,0.897,2.008c-0.104,0.309-0.218,0.582-0.467,1.143c-0.219,0.492-0.308,0.7-0.414,0.969
	c-1.47,3.736-1.013,7.323,1.428,10.344c2.53,3.134,6.063,4.296,10.177,3.508c0.127-0.025,0.217-0.047,0.396-0.094
	c0.137-0.035,0.184-0.046,0.223-0.054c0.27-0.052,0.488-0.098,0.976-0.201c1.112-0.234,1.606-0.327,2.196-0.399
	c1.343-0.165,2.367,0.487,2.812,1.792C85.87,49.787,85.74,56.958,83.061,64.134"/>
<path d="M74.284,69.509c-2.812-0.064-5.427,2.014-5.519,5.002c-0.084,2.785,2.03,5.008,4.875,5.283
	c2.346,0.229,4.653-1.183,5.521-3.375C80.551,72.906,77.807,69.589,74.284,69.509 M74.13,77.068
	c-1.569-0.049-2.653-1.123-2.612-2.475c0.043-1.358,1.311-2.364,2.703-2.334c1.449,0.033,2.58,1.119,2.555,2.324
	C76.745,76.065,75.629,77.117,74.13,77.068"/>
<path d="M31.802,36.519c2.957,0.016,5.365-2.288,5.352-5.177c-0.015-2.907-2.209-4.975-5.208-4.986
	c-2.775-0.01-5.339,2.365-5.354,5.048C26.58,34.284,28.865,36.502,31.802,36.519 M31.936,29.108
	c1.522,0.006,2.458,0.888,2.465,2.246c0.006,1.33-1.132,2.419-2.584,2.411c-1.442-0.008-2.477-1.014-2.472-2.348
	C29.351,30.296,30.639,29.104,31.936,29.108"/>
<path d="M31.153,69.091c-2.936,0.027-5.352,2.252-5.365,5.058c-0.016,2.856,2.223,5.074,5.126,5.196
	c2.316,0.098,4.504-1.406,5.222-3.611C37.276,72.226,34.563,69.062,31.153,69.091 M32.835,75.894
	c-0.395,0.404-0.94,0.672-1.505,0.699c-1.613,0.08-2.798-1-2.79-2.432c0.006-1.244,1.156-2.304,2.636-2.316
	C33.191,71.828,34.618,74.068,32.835,75.894"/>
<path d="M74.604,36.899c2.844,0.029,5.324-2.336,5.342-5.136c0.014-2.834-2.312-5.02-5.266-5.05
	c-3.029-0.031-5.41,2.072-5.438,4.939C69.218,34.554,71.617,36.87,74.604,36.899 M74.65,29.467c1.484,0.015,2.547,1.013,2.539,2.282
	c-0.006,1.253-1.221,2.411-2.561,2.397c-1.499-0.015-2.646-1.122-2.636-2.469C72.007,30.4,73.082,29.451,74.65,29.467"/>
</svg>
