<?xml version="1.0" encoding="utf-8"?>
<!-- Generator: Adobe Illustrator 16.0.0, SVG Export Plug-In . SVG Version: 6.00 Build 0)  -->
<!DOCTYPE svg PUBLIC "-//W3C//DTD SVG 1.1//EN" "http://www.w3.org/Graphics/SVG/1.1/DTD/svg11.dtd">
<svg version="1.1" id="Calque_1" xmlns="http://www.w3.org/2000/svg" xmlns:xlink="http://www.w3.org/1999/xlink" x="0px" y="0px"
	 width="102.832px" height="102.859px" viewBox="0 0 102.832 102.859" enable-background="new 0 0 102.832 102.859"
	 xml:space="preserve">
<path fill="#010101" d="M95.225,23.509l-1.215-1.722c-0.881-1.209-2.482-1.938-4.275-1.938c-0.889,0-1.867,0.169-2.914,0.5
	c-1.12,0.264-2.309,0.515-3.113,0.515c-0.669,0-1.159-0.167-2.298-1.158L81.284,19.6l-0.076-0.146
	c-0.295-0.56-0.218-1.458,0.267-3.097c0.075-0.254,0.142-0.484,0.195-0.688c0.465-1.775,0.615-2.689,0.615-3.752
	c0-1.577-0.746-2.965-1.996-3.713c-0.379-0.268-0.957-0.681-1.301-0.907c-0.754-0.504-1.652-0.769-2.604-0.769
	c-0.577,0-1.024,0.098-1.188,0.141c-0.114,0.028-0.219,0.06-0.316,0.097c-0.344,0.122-2.129,0.812-4.275,2.652
	c-0.949,0.812-2.287,1.4-3.183,1.4l-0.278-0.046C66.285,10.485,65.219,9.771,64.998,8c-0.379-3.021-0.957-4.382-1.236-5.035
	c-0.645-1.613-2.05-2.65-3.671-2.724l-1.108-0.117c-1.037-0.241-2.154-0.132-3.072,0.325c-1.208,0.604-2.646,2.252-3.141,3.598
	c-1.202,3.287-2.769,3.811-3.387,3.884l-0.189,0.021l-0.18-0.058c-0.128-0.041-0.167-0.041-0.182-0.041
	c-0.034,0-0.068,0.002-0.107,0.007L48.47,7.89l-0.231-0.113c-0.377-0.186-1.143-0.696-2.036-2.043
	c-1.578-2.379-3.538-4.812-6.115-4.812c-0.336,0-0.668,0.043-0.987,0.129c-0.548,0.098-1.455,0.288-2.265,0.667
	c-2.767,1.304-3.076,3.911-3.18,6.934c-0.079,2.322-0.79,3.231-1.45,3.903l-0.154,0.155l-0.209,0.065
	c-0.192,0.06-0.419,0.091-0.676,0.091c-0.615,0-1.634-0.177-2.989-1.015c-2.868-1.773-4.292-2.372-5.643-2.372
	c-0.767,0-1.894,0.214-2.911,1.231c-0.216,0.201-0.626,0.529-0.873,0.722c-0.656,0.45-1.139,1.043-1.441,1.745
	c-0.895,2.089,0.017,4.551,0.911,6.461c0.945,2.016,0.82,2.974-0.609,4.654l-0.158,0.187l-0.232,0.078
	c-0.261,0.088-0.746,0.191-1.573,0.191c-1.142,0-2.348-0.199-3.147-0.331c-0.547-0.088-0.945-0.151-1.34-0.168
	c-0.143-0.006-0.275-0.008-0.402-0.008c-2.01,0-3.52,0.814-4.617,2.487c-0.538,0.688-0.822,1.402-0.993,1.887
	c-0.864,2.433,0.529,4.883,2.121,6.364c0.169,0.158,0.359,0.301,0.564,0.426c0.756,0.563,2.541,2.525,2.24,4.283
	c-0.199,1.186-2.195,2.083-3.131,2.331c-1.891,0.512-3.295,0.962-3.95,1.267c-1.9,0.887-2.615,2.521-2.789,3.001
	c-0.152,0.421-0.222,0.878-0.201,1.319c0.021,0.487,0.026,1.108,0.014,1.304c-0.126,1.377,0.441,2.78,1.477,3.691
	c0.635,0.617,1.734,1.429,3.557,1.946c1.599,0.456,3.464,1.392,3.902,2.646c0.413,1.18-1.06,3.071-2.728,4.331
	c-4.199,3.169-3.822,5.991-3.464,7.058c0.041,0.131,0.09,0.249,0.143,0.364l0.657,1.415c0.52,1.118,1.94,2.993,5.624,2.993
	c0.758,0,1.471-0.069,1.992-0.12l0.539-0.05c0.251-0.02,0.567-0.042,0.923-0.042c1.115,0,1.871,0.228,2.249,0.674
	c0.038,0.044,0.075,0.086,0.114,0.127c1.059,1.124,0.699,2.795,0.072,3.887c-0.075,0.123-0.105,0.184-0.159,0.292
	c-0.009,0.02-1.236,2.572-1.643,3.562c-0.762,1.85-0.357,3.568,0.276,4.562c0.144,0.24,0.89,1.393,2.574,2.381
	c0.998,0.586,1.971,0.87,2.973,0.87c0.997,0,1.806-0.285,2.465-0.562c1.008-0.422,2.101-1.175,2.412-1.395
	c0.132-0.08,1.372-0.763,2.605-0.763c0.718,0,1.138,0.23,1.392,0.406c1.195,0.819,1.268,1.354,1.114,3.722
	c-0.038,0.579-0.074,1.148-0.074,1.702c0,1.136,0,4.593,2.315,5.973c0.356,0.219,1.314,0.755,2.69,1.131
	c0.581,0.157,1.114,0.234,1.625,0.234c0.995,0,1.942-0.316,2.666-0.891c0.644-0.435,1.474-1.109,2.093-2.088l0.144-0.231
	c1.259-2.091,2.597-3.112,4.089-3.112c0.113,0,0.229,0.006,0.347,0.019c1.391,0.133,2.562,1.784,3.293,4.653l0.077,0.298
	c0.728,2.582,2.67,4.264,4.945,4.264c0.618,0,1.267-0.074,1.79-0.135l0.191-0.021c0.15-0.018,0.293-0.034,0.424-0.044
	c2.123-0.173,3.785-1.886,4.339-4.472l0.021-0.118c0.025-0.141,0.049-0.311,0.078-0.515c0.295-2.126,0.866-4.375,2.854-4.938
	c0.261-0.073,0.502-0.11,0.719-0.11c1.238,0,2.379,1.325,3.296,2.392c0.556,0.643,1.019,1.179,1.62,1.609
	c1.814,1.311,3.305,1.504,4.031,1.504c0.08,0,0.183-0.003,0.262-0.009c0.479-0.032,0.961-0.171,1.387-0.4l0.094-0.05
	c0.295-0.157,1.229-0.653,1.81-0.925c1.507-0.704,2.461-2.114,2.552-3.771c0.102-0.91-0.074-1.854-0.277-2.946
	c-0.586-3.154-0.404-4.912,0.588-5.704c0.175-0.182,0.641-0.307,1.312-0.307c1.599,0,3.521,0.718,4.556,1.103l0.598,0.216
	c0.797,0.275,1.572,0.414,2.312,0.414c1.613,0,2.623-0.639,3.079-1.019c0.185-0.155,0.356-0.332,0.507-0.527
	c0.16-0.205,0.707-0.89,1.129-1.35c0.314-0.338,0.568-0.703,0.758-1.086l0.088-0.142c0.14-0.184,0.263-0.388,0.365-0.604
	c0.936-1.998-0.127-3.505-1.851-5.573c-1.831-2.199-2.28-3.996-1.376-5.495l0.098-0.132c0.662-0.739,3.102-1.316,5.553-1.316
	c0.169,0,0.309,0.003,0.408,0.007l0.263,0.008c2.655-0.001,4.237-1.716,4.62-3.413l0.162-0.638c0.119-0.461,0.271-1.053,0.379-1.485
	c0.588-2.351-0.854-4.255-2.268-5.173c-4.225-2.578-4.771-3.16-4.959-5.241l-0.029-0.309l0.172-0.259
	c0.558-0.827,2.088-1.869,4.43-3.012l0.363-0.178c3.339-1.67,3.174-4.249,3.041-4.999l-0.059-0.345
	c-0.08-0.421-0.219-1.154-0.359-1.818c-0.594-2.821-2.534-3.44-3.363-3.704l-0.166-0.054c-0.65-0.216-2.229-0.548-4.445-0.938
	l-0.484-0.063c-0.398-0.079-1.402-0.394-2.061-1.595c-0.574-1.051-0.008-2.032,0.174-2.237l0.069-0.086
	c0.255-0.316,0.994-1.233,2.129-2.611c2.22-2.697,2.019-5.188,1.093-6.623l0.637-0.619L95.225,23.509z M92.241,28.625
	c-1.411,1.711-2.22,2.719-2.222,2.723c-0.08,0.101-1.879,2.394-0.422,5.058c1.521,2.778,4.207,2.938,4.234,2.938l0.107,0.013
	c0.332,0.059,3.277,0.575,4.076,0.842l0.197,0.064c0.796,0.254,1.379,0.53,1.646,1.801c0.19,0.906,0.384,1.951,0.406,2.084
	c0.076,0.368,0.094,1.381-1.681,2.269l-0.332,0.164c-1.547,0.753-6.255,3.049-6.022,5.814c0.269,3.158,0.862,4.224,6.113,7.426
	c0.18,0.115,1.549,1.053,1.204,2.429c-0.185,0.736-0.493,1.936-0.549,2.149c-0.106,0.542-0.666,1.451-2.158,1.451l-0.159-0.005
	c-0.121-0.006-0.289-0.01-0.49-0.01c-3.002,0-6.635,0.704-7.83,2.677c-1.896,3.128-0.18,6.322,1.596,8.452
	c1.545,1.854,1.768,2.281,1.496,2.863l-0.235,0.504l-0.114,0.003c-0.08,0.226-0.215,0.451-0.416,0.669
	c-0.576,0.623-1.264,1.505-1.271,1.515l-0.128,0.134c-0.12,0.1-0.579,0.429-1.446,0.429c-0.454,0-0.95-0.092-1.475-0.271
	c-0.149-0.052-0.333-0.12-0.552-0.199c-1.185-0.441-3.393-1.261-5.438-1.261c-1.207,0-2.184,0.288-2.9,0.86
	c-2.633,2.099-1.845,6.352-1.51,8.167c0.249,1.332,0.315,1.894,0.243,2.225c0.009,0.555-0.212,1.308-1.085,1.716
	c-0.729,0.34-2.02,1.033-2.031,1.041L72.9,95.461H72.68c-0.361,0-1.283-0.099-2.563-1.021c-0.363-0.262-0.726-0.68-1.183-1.207
	c-1.189-1.383-2.824-3.274-5.227-3.274c-0.456,0-0.936,0.069-1.418,0.206c-3.852,1.094-4.454,5.413-4.684,7.039
	c-0.022,0.171-0.043,0.312-0.062,0.42c-0.09,0.422-0.58,2.376-2.06,2.493c-0.193,0.016-0.42,0.043-0.655,0.069
	c-0.493,0.059-1.052,0.123-1.538,0.123c-1.102,0-2.077-0.948-2.491-2.417l-0.056-0.22c-1.033-4.055-2.947-6.326-5.533-6.566
	c-0.201-0.021-0.394-0.028-0.582-0.028c-2.42,0-4.533,1.463-6.279,4.347l-0.116,0.189c-0.449,0.715-1.137,1.19-1.44,1.38
	c-0.301,0.289-1.015,0.558-2.11,0.26c-1.228-0.334-2.031-0.846-2.065-0.867c-0.451-0.238-1.06-1.122-1.06-3.771
	c0-0.499,0.033-1.013,0.068-1.534c0.15-2.298,0.28-4.283-2.219-5.996c-0.825-0.565-1.778-0.854-2.833-0.854
	c-2.147,0-3.977,1.161-3.995,1.173c-0.009,0.008-1.139,0.819-2.007,1.184c-0.863,0.363-1.928,0.566-3.158-0.15
	c-1.171-0.689-1.672-1.479-1.725-1.567c-0.053-0.082-0.572-0.963-0.061-2.205c0.359-0.873,1.539-3.332,1.588-3.437
	c0.142-0.241,2.426-4.068-0.353-7.021c-0.917-1.08-2.328-1.61-4.227-1.61c-0.485,0-0.909,0.034-1.221,0.061l-0.502,0.045
	c-0.494,0.048-1.11,0.107-1.731,0.107c-0.644,0-2.604,0-3.309-1.518L5.22,67.872c-0.178-0.518-0.411-2.077,2.544-4.307
	c2.341-1.77,4.516-4.592,3.598-7.216c-0.931-2.66-4.233-3.862-5.61-4.257c-1.509-0.43-2.254-1.088-2.507-1.354
	c-0.379-0.302-0.753-0.868-0.684-1.595c0.036-0.404,0.007-1.329-0.007-1.651L2.547,47.32l0.059-0.163
	c0.038-0.108,0.411-1.066,1.47-1.558c0.804-0.375,3.21-1.028,3.481-1.102c0.063-0.016,4.484-1.151,5.035-4.377
	c0.578-3.373-2.532-6.383-3.418-6.89l-0.163-0.119C8.8,32.915,6.962,31.14,7.554,29.471c0.2-0.564,0.405-0.954,0.632-1.198
	c0.816-1.348,1.679-1.526,2.891-1.473c0.19,0.008,0.55,0.062,1.02,0.139c0.883,0.144,2.217,0.36,3.552,0.36
	c1.816,0,3.081-0.398,3.764-1.186c2.206-2.544,2.51-4.592,1.121-7.559c-0.967-2.065-1.254-3.495-0.878-4.371
	c0.15-0.353,0.371-0.544,0.545-0.648c0.394-0.31,1.029-0.824,1.226-1.02c0.167-0.164,0.493-0.485,1.108-0.485
	c0.651,0,1.632,0.339,4.302,1.992c1.473,0.913,2.97,1.394,4.33,1.394c1.136,0,2.125-0.338,2.715-0.928
	c1.324-1.323,2.225-2.808,2.326-5.752c0.116-3.415,0.601-4.186,1.718-4.709c0.612-0.29,1.39-0.428,1.717-0.477
	c0.12-0.044,0.268-0.075,0.446-0.075c0.667,0,1.805,0.38,3.987,3.668c2.135,3.219,4.194,3.312,4.422,3.312l0.151-0.021l0.11,0.031
	c0.023,0.005,0.173,0.026,0.411,0.026c1.192,0,4.162-0.542,5.994-5.562c0.268-0.731,1.257-1.882,1.891-2.198
	c0.461-0.236,1.228-0.166,1.529-0.078l1.326,0.137c0.498,0,1.136,0.265,1.436,1.005l0.071,0.173c0.25,0.596,0.716,1.705,1.048,4.349
	c0.29,2.327,1.651,4.097,3.734,4.854c1.604,0.585,4.214-0.229,6.062-1.815c1.875-1.606,3.402-2.162,3.467-2.186
	c0.129-0.036,0.356-0.088,0.654-0.088c0.448,0,0.858,0.116,1.188,0.334c0.394,0.265,1.115,0.781,1.33,0.937
	c0.41,0.218,0.83,0.729,0.83,1.563c0,0.732-0.08,1.383-0.533,3.11c-0.049,0.182-0.107,0.389-0.176,0.616
	c-0.635,2.168-1.102,4.417,0.713,5.992c1.517,1.315,2.556,1.78,3.972,1.78c0.881,0,1.983-0.175,3.81-0.604
	c0.771-0.266,1.543-0.41,2.219-0.41c1.488,0,2.078,0.704,2.183,0.845l1.224,1.733C93.311,25.245,93.975,26.517,92.241,28.625"/>
<path fill="#010101" d="M75.907,51.427c0-13.5-10.982-24.482-24.483-24.482c-13.5,0-24.483,10.982-24.483,24.482
	s10.983,24.484,24.483,24.484C64.925,75.913,75.907,64.927,75.907,51.427 M51.424,73.36c-12.093,0-21.932-9.839-21.932-21.933
	c0-12.092,9.838-21.93,21.932-21.93s21.932,9.838,21.932,21.93C73.354,63.521,63.518,73.36,51.424,73.36"/>
</svg>
