<?xml version="1.0" encoding="utf-8"?>
<!-- Generator: Adobe Illustrator 16.0.0, SVG Export Plug-In . SVG Version: 6.00 Build 0)  -->
<!DOCTYPE svg PUBLIC "-//W3C//DTD SVG 1.1//EN" "http://www.w3.org/Graphics/SVG/1.1/DTD/svg11.dtd">
<svg version="1.1" id="Calque_1" xmlns="http://www.w3.org/2000/svg" xmlns:xlink="http://www.w3.org/1999/xlink" x="0px" y="0px"
	 width="104.171px" height="103.225px" viewBox="0 0 104.171 103.225" enable-background="new 0 0 104.171 103.225"
	 xml:space="preserve">
<path fill="#010101" d="M100.593,82.339L81.544,63.291l0.324-0.646c3.014-5.997,4.606-12.708,4.606-19.407
	C86.476,19.396,67.08,0,43.237,0C19.397,0,0,19.396,0,43.238s19.397,43.237,43.237,43.237c7.174,0,14.306-1.815,20.624-5.251
	l0.656-0.356l18.775,18.774c2.31,2.311,5.381,3.582,8.648,3.582s6.342-1.271,8.65-3.582
	C105.363,94.872,105.363,87.109,100.593,82.339 M61.517,79.727c-5.648,2.829-11.969,4.324-18.28,4.324
	c-22.504,0-40.813-18.31-40.813-40.813c0-22.505,18.309-40.814,40.813-40.814c22.505,0,40.815,18.31,40.815,40.814
	c0,5.789-1.279,11.651-3.699,16.952l-0.6,1.31L53.451,35.197c-2.312-2.312-5.385-3.585-8.652-3.585
	c-3.265,0-6.338,1.272-8.651,3.585c-4.769,4.77-4.769,12.532,0,17.303l26.607,26.605L61.517,79.727z M98.878,97.927
	c-1.854,1.853-4.316,2.872-6.938,2.872s-5.085-1.021-6.936-2.872L37.863,50.784c-1.853-1.852-2.874-4.315-2.874-6.936
	c0-2.621,1.021-5.085,2.874-6.938c1.854-1.854,4.317-2.874,6.936-2.874c2.62,0,5.084,1.021,6.938,2.873l47.142,47.144
	c1.854,1.854,2.875,4.316,2.875,6.938C101.753,93.611,100.732,96.076,98.878,97.927"/>
</svg>
