<?xml version="1.0" encoding="utf-8"?>
<!-- Generator: Adobe Illustrator 16.0.0, SVG Export Plug-In . SVG Version: 6.00 Build 0)  -->
<!DOCTYPE svg PUBLIC "-//W3C//DTD SVG 1.1//EN" "http://www.w3.org/Graphics/SVG/1.1/DTD/svg11.dtd">
<svg version="1.1" id="Calque_1" xmlns="http://www.w3.org/2000/svg" xmlns:xlink="http://www.w3.org/1999/xlink" x="0px" y="0px"
	 width="100.646px" height="102.721px" viewBox="0 0 100.646 102.721" enable-background="new 0 0 100.646 102.721"
	 xml:space="preserve">
<path fill="#010101" d="M100.646,76.721c-0.006-0.327-0.138-0.634-0.374-0.861l-4.243-4.162c-0.069-0.129-0.138-0.221-0.21-0.29
	l-20.813-20.13c-0.214-0.238-0.406-0.425-0.633-0.614L44.439,21.719c-0.471-0.455-1.277-0.442-1.733,0.029
	c-0.324,0.335-0.426,0.82-0.265,1.269l0.392,1.08l-1.123,0.238c-2.729,0.579-5.781,2.245-9.072,4.953l-0.697,0.573L2.088,0.343
	c-0.466-0.461-1.274-0.456-1.734,0.01C0.124,0.586-0.001,0.895,0,1.222C0.001,1.55,0.13,1.857,0.363,2.087L30.12,31.511
	l-0.715,0.711c-3.342,3.327-5.439,6.5-6.232,9.431l-0.45,1.663l-1.615-1.607c-0.23-0.231-0.539-0.359-0.865-0.359
	c-0.328,0-0.638,0.128-0.868,0.361c-0.479,0.479-0.477,1.257,0.003,1.733l59.104,58.933c0.462,0.461,1.271,0.46,1.734-0.003
	c0.478-0.479,0.476-1.257-0.003-1.734l-28.826-28.75l-0.076-0.182l0.017-0.012l-0.062-0.106l0.218-0.125l-0.228,0.106l0.811-0.451
	l-0.88,0.288c-0.02-0.056-0.051-0.145-0.089-0.273c-0.404-1.37-0.288-2.988,0.344-4.813c1.062-3.068,3.514-6.318,7.287-9.658
	c5.582-4.943,10.13-6.473,13.352-4.614l0.195,0.147l26.294,25.429c0.23,0.223,0.533,0.345,0.854,0.345
	c0.336,0,0.647-0.134,0.882-0.374C100.529,77.359,100.651,77.048,100.646,76.721 M66.878,49.127c-2.99,0.684-6.28,2.601-9.777,5.698
	c-4.76,4.214-7.603,8.306-8.452,12.165l-0.391,1.779L25.646,46.231l-0.074-0.235c-0.414-1.326-0.328-2.783,0.264-4.453
	c1.027-2.899,3.451-6.052,7.201-9.372c5.771-5.11,10.345-6.74,13.348-4.913c0.231,0.141,0.527,0.351,0.665,0.521l0.188,0.212
	l21.438,20.727L66.878,49.127z"/>
</svg>
