<?xml version="1.0" encoding="utf-8"?>
<!-- Generator: Adobe Illustrator 16.0.0, SVG Export Plug-In . SVG Version: 6.00 Build 0)  -->
<!DOCTYPE svg PUBLIC "-//W3C//DTD SVG 1.1//EN" "http://www.w3.org/Graphics/SVG/1.1/DTD/svg11.dtd">
<svg version="1.1" id="Calque_1" xmlns="http://www.w3.org/2000/svg" xmlns:xlink="http://www.w3.org/1999/xlink" x="0px" y="0px"
	 width="99.406px" height="101.469px" viewBox="0 0 99.406 101.469" enable-background="new 0 0 99.406 101.469"
	 xml:space="preserve">
<path fill="#010101" d="M57.302,33.094c-0.553-0.534-2.147-1.978-4.757-3.576c-5.807-3.556-11.315-4.486-16.25-2.722
	c-1.411,0.504-2.779,1.246-4.068,2.206l-0.694,0.517l-0.666-0.671L2.042,0.346C1.816,0.124,1.516,0,1.198,0
	C0.876,0,0.572,0.126,0.345,0.356c-0.464,0.47-0.46,1.231,0.01,1.696l29.427,29.099l-0.602,0.706
	c-1.183,1.389-2.078,2.882-2.66,4.437c-1.628,4.346-1.036,9.151,1.759,14.28c1.179,2.164,2.236,3.47,2.635,3.932l46.613,46.623
	c0.455,0.453,1.244,0.453,1.697,0c0.227-0.227,0.352-0.527,0.352-0.848c0-0.321-0.125-0.622-0.352-0.85L32.547,52.75L32.5,52.661
	c-0.099-0.129-0.274-0.358-0.484-0.647c-0.588-0.813-1.136-1.684-1.629-2.587c-2.447-4.491-2.992-8.626-1.62-12.29
	c0.728-1.942,2.023-3.747,3.85-5.365c1.398-1.238,2.908-2.152,4.487-2.716c4.185-1.497,9.052-0.637,14.188,2.509
	c1.106,0.678,2.179,1.434,3.181,2.247c0.469,0.38,0.896,0.752,1.146,0.993l41.74,41.857c0.451,0.454,1.242,0.454,1.695,0.003
	c0.469-0.467,0.471-1.229,0.002-1.697L57.302,33.094z"/>
</svg>
