<?xml version="1.0" encoding="utf-8"?>
<!-- Generator: Adobe Illustrator 16.0.0, SVG Export Plug-In . SVG Version: 6.00 Build 0)  -->
<!DOCTYPE svg PUBLIC "-//W3C//DTD SVG 1.1//EN" "http://www.w3.org/Graphics/SVG/1.1/DTD/svg11.dtd">
<svg version="1.1" id="Calque_1" xmlns="http://www.w3.org/2000/svg" xmlns:xlink="http://www.w3.org/1999/xlink" x="0px" y="0px"
	 width="100.162px" height="101.744px" viewBox="0 0 100.162 101.744" enable-background="new 0 0 100.162 101.744"
	 xml:space="preserve">
<path fill="#010101" d="M99.794,75.058L79.851,55.772l-0.07-0.125c-0.069-0.123-0.133-0.211-0.202-0.276L48.32,25.144L28.609,6.081
	C28.144,5.632,27.348,5.645,26.9,6.11c-0.32,0.33-0.419,0.81-0.26,1.251l0.39,1.08l-1.123,0.238
	c-2.728,0.578-5.785,2.257-9.087,4.99l-0.697,0.577L2.058,0.337c-0.459-0.453-1.255-0.449-1.71,0.01
	c-0.468,0.473-0.464,1.24,0.01,1.709l13.974,13.818l-0.71,0.711c-3.265,3.268-5.316,6.386-6.096,9.266l-0.45,1.664L5.465,25.91
	c-0.229-0.227-0.532-0.353-0.854-0.353c-0.324,0-0.628,0.127-0.856,0.356c-0.471,0.471-0.469,1.238,0.003,1.709l54.214,54.042
	c0.047,0.049,0.104,0.086,0.156,0.125l0.129,0.108l19.596,19.506c0.457,0.455,1.254,0.455,1.709-0.004
	c0.229-0.229,0.354-0.531,0.353-0.854s-0.127-0.627-0.354-0.854L51.261,71.519c0,0-0.426-0.334-0.602-0.961
	c-0.399-1.359-0.285-2.967,0.342-4.779c1.055-3.045,3.486-6.27,7.23-9.584c5.668-5.018,10.369-6.49,13.769-4.45
	c0.405,0.243,0.765,0.524,0.935,0.735c0.053,0.063,0.127,0.131,0.23,0.207l0.105,0.088l24.844,24.021
	c0.464,0.449,1.26,0.436,1.707-0.027C100.286,76.288,100.272,75.521,99.794,75.058 M18.705,15.243
	c5.053-4.123,9.11-5.342,11.843-3.68c0.154,0.094,0.53,0.336,0.694,0.561l0.154,0.165L43.563,24.05l-1.75,0.435
	c-2.743,0.683-5.763,2.428-8.978,5.186l-0.989,0.849l-0.564-1.174c-0.067-0.141-0.143-0.252-0.233-0.34l-13.206-13.06L18.705,15.243
	z M23.569,43.954L9.964,30.396l-0.073-0.235c-0.413-1.317-0.327-2.765,0.261-4.424c0.821-2.316,2.569-4.825,5.196-7.457l0.704-0.705
	l13.298,13.15c0.063,0.062,0.147,0.122,0.264,0.187l1.131,0.634l-0.9,0.933c-3.235,3.352-5.215,6.613-5.886,9.691L23.569,43.954z
	 M66.756,48.664c-3.114,0.605-6.522,2.529-10.126,5.72c-4.689,4.15-7.503,8.186-8.366,11.991l-0.399,1.767L26.963,47.268
	l0.001-0.021c0,0-0.231-0.281-0.417-0.719l-0.073-0.194c-0.052-0.151-0.1-0.309-0.127-0.487c-0.078-0.528-0.15-1.036-0.193-1.338
	c0.007-0.93,0.185-1.938,0.561-3.025c1.055-3.047,3.488-6.272,7.231-9.586c5.133-4.545,9.374-6.19,12.53-4.928l0.182,0.073
	l21.983,21.255L66.756,48.664z"/>
</svg>
