<?xml version="1.0" encoding="utf-8"?>
<!-- Generator: Adobe Illustrator 16.0.0, SVG Export Plug-In . SVG Version: 6.00 Build 0)  -->
<!DOCTYPE svg PUBLIC "-//W3C//DTD SVG 1.1//EN" "http://www.w3.org/Graphics/SVG/1.1/DTD/svg11.dtd">
<svg version="1.1" id="Calque_1" xmlns="http://www.w3.org/2000/svg" xmlns:xlink="http://www.w3.org/1999/xlink" x="0px" y="0px"
	 width="101.127px" height="48.617px" viewBox="0 0 101.127 48.617" enable-background="new 0 0 101.127 48.617"
	 xml:space="preserve">
<path fill="#010101" d="M97.462,9.621L2.511,9.622V1.256C2.511,0.562,1.948,0,1.255,0C0.563,0,0,0.562,0,1.256v38.65v2v5.455
	c0,0.691,0.563,1.256,1.255,1.256c0.693,0,1.256-0.562,1.256-1.256v-5.244v-2V38.59h94.951c2.021,0,3.665-1.645,3.665-3.667V13.289
	C101.127,11.267,99.483,9.621,97.462,9.621 M98.618,36.079H2.511V12.132h96.107V36.079L98.618,36.079z"/>
</svg>
