<?xml version="1.0" encoding="utf-8"?>
<!-- Generator: Adobe Illustrator 16.0.0, SVG Export Plug-In . SVG Version: 6.00 Build 0)  -->
<!DOCTYPE svg PUBLIC "-//W3C//DTD SVG 1.1//EN" "http://www.w3.org/Graphics/SVG/1.1/DTD/svg11.dtd">
<svg version="1.1" id="Calque_1" xmlns="http://www.w3.org/2000/svg" xmlns:xlink="http://www.w3.org/1999/xlink" x="0px" y="0px"
	 width="102.4px" height="102.378px" viewBox="0 0 102.4 102.378" enable-background="new 0 0 102.4 102.378" xml:space="preserve">
<path fill="#010101" d="M82.467,80.818c-0.402-0.438-1.771-1.861-4.171-3.494c-4.055-2.757-8.051-3.922-11.864-3.459
	c-3.342,0.407-6.471,0.697-9.299,0.863c-0.933,0.053-1.739,0.089-2.416,0.109c-0.348,0.01-0.595,0.014-0.737,0.016l-0.435,0.045
	c-1.423,0.168-2.996,0.035-4.585-0.406c-2.664-0.742-5.167-2.273-7.441-4.548l-9.075-9.073c-2.273-2.273-3.804-4.777-4.546-7.441
	c-0.548-1.965-0.537-3.485-0.431-4.413l0.068-0.612c0.002-0.143,0.006-0.387,0.016-0.731c0.02-0.679,0.055-1.485,0.109-2.417
	c0.166-2.828,0.456-5.957,0.863-9.299c0.464-3.813-0.699-7.805-3.459-11.864c-1.583-2.329-2.997-3.717-3.531-4.206L1.976,0.328
	c-0.438-0.437-1.199-0.437-1.637,0C0.121,0.547,0,0.837,0,1.146s0.121,0.599,0.339,0.818l19.595,19.595
	c0.22,0.203,0.561,0.54,1.011,1.037c0.799,0.877,1.541,1.819,2.206,2.799c2.437,3.583,3.472,7.042,3.076,10.282
	c-0.414,3.396-0.709,6.574-0.876,9.445c-0.056,0.95-0.092,1.779-0.113,2.483l-0.011,0.496l0.039,0.007l-0.052,0.494l-0.028-0.001
	c-0.006,0.048-0.012,0.099-0.019,0.153c-0.536,4.695,1.467,9.58,5.64,13.753l9.076,9.074c4.73,4.731,9.27,5.726,12.245,5.726
	c0.505,0,1.012-0.029,1.508-0.086c0.054-0.007,0.104-0.013,0.152-0.019l-0.001-0.027l0.494-0.053l0.007,0.039l0.497-0.012
	c0.702-0.02,1.53-0.057,2.48-0.111c2.87-0.168,6.048-0.463,9.445-0.877c0.438-0.054,0.889-0.08,1.338-0.08
	c2.854,0,5.864,1.062,8.945,3.155c0.979,0.667,1.922,1.409,2.799,2.207c0.503,0.457,0.843,0.802,1,0.974l19.631,19.633
	c0.438,0.437,1.199,0.438,1.637,0c0.219-0.219,0.339-0.51,0.339-0.817c0-0.31-0.12-0.601-0.339-0.817L82.467,80.818z"/>
</svg>
