<?xml version="1.0" encoding="utf-8"?>
<!-- Generator: Adobe Illustrator 16.0.0, SVG Export Plug-In . SVG Version: 6.00 Build 0)  -->
<!DOCTYPE svg PUBLIC "-//W3C//DTD SVG 1.1//EN" "http://www.w3.org/Graphics/SVG/1.1/DTD/svg11.dtd">
<svg version="1.1" id="Calque_1" xmlns="http://www.w3.org/2000/svg" xmlns:xlink="http://www.w3.org/1999/xlink" x="0px" y="0px"
	 width="52.639px" height="102.723px" viewBox="0 0 52.639 102.723" enable-background="new 0 0 52.639 102.723"
	 xml:space="preserve">
<path fill="#010101" d="M43.399,13.659H9.239c-1.956,0-3.548,1.594-3.548,3.553V85.51c0,1.959,1.592,3.553,3.548,3.553H43.4
	c1.956,0,3.547-1.594,3.547-3.553V17.212C46.946,15.253,45.355,13.659,43.399,13.659 M44.393,86.51H8.245V16.213h36.147
	L44.393,86.51L44.393,86.51z"/>
<path fill="#010101" d="M1.276,2.552H51.36c0.705,0,1.277-0.572,1.277-1.276C52.638,0.573,52.065,0,51.36,0H1.276
	C0.572,0,0,0.573,0,1.276C0,1.98,0.572,2.552,1.276,2.552"/>
<path fill="#010101" d="M51.36,100.169H1.277c-0.704,0-1.277,0.572-1.277,1.276c0,0.703,0.573,1.276,1.277,1.276H51.36
	c0.704,0,1.277-0.573,1.277-1.276C52.638,100.742,52.064,100.169,51.36,100.169"/>
<path fill="#010101" d="M6.968,93.339c-0.703,0-1.275,0.573-1.275,1.276c0,0.704,0.572,1.276,1.275,1.276H45.67
	c0.704,0,1.277-0.572,1.277-1.276c0-0.703-0.573-1.276-1.277-1.276H6.968z"/>
<path fill="#010101" d="M45.669,6.83H6.967c-0.702,0-1.275,0.573-1.275,1.276c0,0.704,0.573,1.276,1.275,1.276h38.702
	c0.704,0,1.277-0.572,1.277-1.276S46.373,6.83,45.669,6.83"/>
</svg>
