<?xml version="1.0" encoding="utf-8"?>
<!-- Generator: Adobe Illustrator 16.0.0, SVG Export Plug-In . SVG Version: 6.00 Build 0)  -->
<!DOCTYPE svg PUBLIC "-//W3C//DTD SVG 1.1//EN" "http://www.w3.org/Graphics/SVG/1.1/DTD/svg11.dtd">
<svg version="1.1" id="Calque_1" xmlns="http://www.w3.org/2000/svg" xmlns:xlink="http://www.w3.org/1999/xlink" x="0px" y="0px"
	 width="98.718px" height="87.718px" viewBox="0 0 98.718 87.718" enable-background="new 0 0 98.718 87.718" xml:space="preserve">
<path fill="#010101" d="M95.095,34.134h-6.133V1.199h1.017l-0.004-0.022h-1.013c0-0.317-0.123-0.616-0.349-0.84
	c-0.448-0.45-1.231-0.45-1.682,0c-0.226,0.225-0.349,0.523-0.349,0.84l-0.045,17.236c-0.055,0.194-0.146,0.465-0.291,0.803
	c-0.127,0.301-0.304,0.668-0.537,1.09c-0.498,0.902-1.127,1.785-1.864,2.624c-0.774,0.882-1.687,1.733-2.709,2.531
	c-3.21,2.502-7.416,4.427-12.503,5.724c-5.234,1.334-11.514,2.022-18.663,2.045l-1.254,0.004V33.23
	c-7.137-0.025-13.407-0.713-18.636-2.045c-5.086-1.297-9.292-3.222-12.502-5.724c-1.023-0.798-1.934-1.649-2.71-2.531
	c-0.737-0.839-1.365-1.722-1.863-2.624c-0.235-0.422-0.41-0.789-0.54-1.094c-0.143-0.334-0.235-0.605-0.288-0.799l-0.045-0.332
	V1.199c0-0.339-0.124-0.637-0.349-0.862c-0.449-0.45-1.232-0.45-1.681,0C9.879,0.561,9.756,0.86,9.756,1.177L8.738,1.199h1.018
	v32.935H3.623c-0.971,0-1.881,0.375-2.563,1.056C0.377,35.872,0,36.785,0,37.76v14.636c0,0.969,0.378,1.878,1.064,2.564
	c0.686,0.686,1.594,1.062,2.559,1.062h6.133v30.496c0,0.339,0.123,0.64,0.348,0.862c0.449,0.449,1.232,0.449,1.681,0
	c0.225-0.225,0.349-0.523,0.349-0.842l1.017-0.021h-1.017l0.045-17.216c0.053-0.192,0.145-0.463,0.29-0.801
	c0.128-0.303,0.304-0.668,0.538-1.092c0.498-0.9,1.126-1.783,1.864-2.623c0.775-0.885,1.688-1.736,2.71-2.531
	c3.21-2.502,7.416-4.428,12.501-5.723c5.235-1.336,11.515-2.023,18.664-2.047L50,54.484v0.004
	c7.138,0.024,13.408,0.713,18.637,2.047c5.085,1.295,9.291,3.221,12.502,5.723c1.021,0.795,1.934,1.646,2.71,2.531
	c0.737,0.84,1.364,1.723,1.862,2.625c0.233,0.422,0.41,0.787,0.539,1.092c0.145,0.336,0.235,0.605,0.289,0.8l0.045,0.333V86.52
	h-1.018l0.006,0.021h1.012c0,0.317,0.125,0.617,0.35,0.842c0.449,0.449,1.232,0.449,1.682,0c0.225-0.225,0.348-0.523,0.348-0.842
	V56.023h6.134c0.965,0,1.872-0.377,2.559-1.062c0.687-0.688,1.063-1.596,1.063-2.564V37.76c0-0.976-0.375-1.888-1.059-2.57
	C96.976,34.509,96.065,34.134,95.095,34.134 M9.756,53.645H2.378V36.511h7.378V53.645z M86.583,64.052l-2.119-2.049
	c-0.285-0.277-0.584-0.551-0.894-0.822c-0.31-0.27-0.633-0.536-0.973-0.801c-3.394-2.645-7.785-4.685-13.06-6.062
	c-5.609-1.468-12.313-2.212-19.928-2.212l-0.268,0.003l-0.239-0.003c-7.613,0-14.317,0.744-19.927,2.212
	c-5.273,1.379-9.667,3.419-13.06,6.062c-0.338,0.265-0.662,0.531-0.972,0.803c-0.309,0.27-0.607,0.543-0.893,0.82l-2.119,2.049
	V23.668l2.118,2.046c0.286,0.276,0.585,0.55,0.894,0.822c0.31,0.269,0.634,0.537,0.973,0.801c3.392,2.644,7.786,4.684,13.059,6.063
	c5.61,1.467,12.315,2.212,19.927,2.212l0.188-0.002l0.318,0.002c7.612,0,14.317-0.745,19.929-2.212
	c5.272-1.379,9.666-3.419,13.06-6.063c0.339-0.264,0.661-0.532,0.973-0.803c0.31-0.27,0.607-0.544,0.894-0.82l2.119-2.046V64.052
	L86.583,64.052z M96.339,53.645h-7.377V36.511h7.377V53.645z"/>
</svg>
