<?xml version="1.0" encoding="utf-8"?>
<!-- Generator: Adobe Illustrator 16.0.0, SVG Export Plug-In . SVG Version: 6.00 Build 0)  -->
<!DOCTYPE svg PUBLIC "-//W3C//DTD SVG 1.1//EN" "http://www.w3.org/Graphics/SVG/1.1/DTD/svg11.dtd">
<svg version="1.1" id="Calque_1" xmlns="http://www.w3.org/2000/svg" xmlns:xlink="http://www.w3.org/1999/xlink" x="0px" y="0px"
	 width="103.09px" height="67.792px" viewBox="0 0 103.09 67.792" enable-background="new 0 0 103.09 67.792" xml:space="preserve">
<path fill="#010101" d="M92.305,0.044l-5.416-0.019C86.807,0.01,86.725,0,86.639,0H76.494c-0.104,0-0.199,0.013-0.292,0.029
	l-0.173,0.015L49.014,0.025C48.933,0.01,48.85,0,48.765,0h-6.956c-0.085,0-0.167,0.009-0.246,0.025l-0.196,0.019H29.602
	c-5.946,0-10.783,4.96-10.783,11.057c0,0.676,0.55,1.227,1.227,1.227c0.676,0,1.227-0.551,1.227-1.227
	c0-4.744,3.737-8.602,8.329-8.602h10.935v25.172H1.271c-0.7,0-1.271,0.571-1.271,1.272v12.219c0,0.7,0.571,1.271,1.272,1.271h39.265
	v22.858H29.602c-4.592,0-8.329-3.858-8.329-8.603c0-0.677-0.551-1.228-1.227-1.228c-0.677,0-1.227,0.551-1.227,1.228
	c0,6.099,4.837,11.058,10.783,11.058l11.96,0.02c0.08,0.018,0.162,0.025,0.247,0.025h6.956c0.085,0,0.168-0.01,0.249-0.025
	l0.096-0.02l30.348,0.02c0.08,0.018,0.163,0.025,0.248,0.025h6.933c0.086,0,0.168-0.01,0.25-0.025l0.192-0.02h5.224
	c5.947,0,10.785-4.959,10.785-11.058V11.102C103.09,5.004,98.252,0.044,92.305,0.044 M50.036,2.5l26.167,0.015
	c0.093,0.016,0.188,0.03,0.292,0.03h1.938v25.127H50.036V2.5z M78.434,65.292H50.037V42.433h28.396V65.292z M85.366,65.25h-4.39
	V41.162c0-0.701-0.57-1.271-1.271-1.271h-30.94c-0.701,0-1.272,0.57-1.272,1.271V65.25h-4.412V41.162
	c0-0.701-0.571-1.271-1.272-1.271H2.543v-9.674h39.265c0.701,0,1.272-0.571,1.272-1.272v-26.4h4.412v26.399
	c0,0.701,0.571,1.272,1.272,1.272h30.94c0.7,0,1.272-0.571,1.272-1.272V2.544h4.389L85.366,65.25L85.366,65.25z M100.637,56.69
	c0,4.743-3.738,8.603-8.332,8.603H87.91V2.5h4.395c4.594,0,8.332,3.858,8.332,8.602V56.69z"/>
</svg>
