<?xml version="1.0" encoding="utf-8"?>
<!-- Generator: Adobe Illustrator 16.0.0, SVG Export Plug-In . SVG Version: 6.00 Build 0)  -->
<!DOCTYPE svg PUBLIC "-//W3C//DTD SVG 1.1//EN" "http://www.w3.org/Graphics/SVG/1.1/DTD/svg11.dtd">
<svg version="1.1" id="Calque_1" xmlns="http://www.w3.org/2000/svg" xmlns:xlink="http://www.w3.org/1999/xlink" x="0px" y="0px"
	 width="102.721px" height="102.708px" viewBox="0 0 102.721 102.708" enable-background="new 0 0 102.721 102.708"
	 xml:space="preserve">
<path fill="#010101" d="M87.423,91.456c1.077,1.076,2.955,1.076,4.032,0c0.539-0.539,0.835-1.254,0.835-2.017
	c0-0.761-0.296-1.478-0.835-2.017c-0.538-0.537-1.254-0.834-2.016-0.834c-0.764,0-1.479,0.297-2.018,0.834
	C86.312,88.536,86.312,90.344,87.423,91.456"/>
<path fill="#010101" d="M15.296,11.264c-0.539-0.539-1.254-0.835-2.016-0.835c-0.761,0-1.477,0.296-2.016,0.835
	c-0.538,0.539-0.835,1.254-0.835,2.016c0,0.762,0.297,1.478,0.835,2.016c1.075,1.076,2.953,1.077,4.031,0
	C16.408,14.184,16.408,12.376,15.296,11.264"/>
<path fill="#010101" d="M14.628,26.175c0.514-0.513,0.514-1.347,0-1.86L3.176,12.862l9.687-9.685l11.452,11.452
	c0.497,0.497,1.364,0.497,1.86,0c0.514-0.514,0.514-1.348,0-1.861L13.793,0.385C13.544,0.137,13.213,0,12.862,0
	s-0.682,0.137-0.93,0.385L0.384,11.932c-0.512,0.514-0.512,1.348,0,1.861l12.384,12.382C13.264,26.673,14.131,26.673,14.628,26.175"
	/>
<path fill="#010101" d="M38.513,11.356c-0.043-0.349-0.221-0.66-0.498-0.876c-0.233-0.181-0.513-0.277-0.807-0.277
	c-0.41,0-0.789,0.185-1.041,0.508L13.69,39.61c-0.216,0.277-0.312,0.622-0.268,0.971s0.221,0.659,0.498,0.875
	c0.233,0.182,0.513,0.278,0.807,0.278c0.41,0,0.789-0.185,1.04-0.508l22.478-28.899C38.461,12.049,38.556,11.705,38.513,11.356"/>
<path fill="#010101" d="M63.943,36.787c-0.043-0.349-0.22-0.659-0.498-0.875c-0.232-0.182-0.512-0.277-0.806-0.277
	c-0.41,0-0.789,0.185-1.04,0.507L39.122,65.042c-0.445,0.571-0.342,1.399,0.231,1.847c0.232,0.181,0.512,0.276,0.806,0.276
	c0.41,0,0.789-0.186,1.041-0.508l22.477-28.898C63.893,37.48,63.987,37.136,63.943,36.787"/>
<path fill="#010101" d="M51.612,24.456c-0.043-0.349-0.22-0.66-0.498-0.876c-0.233-0.181-0.512-0.277-0.806-0.277
	c-0.41,0-0.789,0.185-1.04,0.508L26.791,52.709c-0.216,0.277-0.311,0.623-0.267,0.972c0.044,0.351,0.22,0.659,0.498,0.875
	c0.232,0.183,0.512,0.276,0.806,0.276c0.41,0,0.789-0.185,1.04-0.506l22.479-28.9C51.562,25.149,51.655,24.805,51.612,24.456"/>
<path fill="#010101" d="M77.044,49.887c-0.043-0.349-0.221-0.66-0.498-0.876c-0.232-0.181-0.512-0.277-0.807-0.277
	c-0.409,0-0.788,0.185-1.041,0.508l-22.476,28.9c-0.217,0.276-0.312,0.622-0.268,0.971s0.22,0.659,0.498,0.875
	c0.559,0.435,1.415,0.324,1.846-0.229L76.777,50.86C76.993,50.58,77.087,50.236,77.044,49.887"/>
<path fill="#010101" d="M44.564,17.03c-0.233-0.181-0.511-0.277-0.807-0.277c-0.408,0-0.789,0.185-1.04,0.508L20.241,46.16
	c-0.217,0.278-0.311,0.622-0.268,0.972c0.044,0.348,0.22,0.659,0.498,0.875c0.232,0.181,0.512,0.277,0.806,0.277
	c0.411,0,0.789-0.185,1.04-0.508l22.478-28.899C45.24,18.304,45.137,17.476,44.564,17.03"/>
<path fill="#010101" d="M69.996,42.462c-0.232-0.182-0.513-0.278-0.807-0.278c-0.409,0-0.789,0.185-1.041,0.508L45.672,71.59
	c-0.445,0.574-0.342,1.402,0.231,1.849c0.233,0.181,0.512,0.276,0.806,0.276c0.41,0,0.789-0.186,1.04-0.508l22.478-28.899
	C70.672,43.735,70.567,42.907,69.996,42.462"/>
<path fill="#010101" d="M58.162,31.005c-0.043-0.349-0.22-0.659-0.498-0.875c-0.231-0.182-0.511-0.277-0.806-0.277
	c-0.409,0-0.789,0.185-1.04,0.508L33.34,59.26c-0.444,0.572-0.342,1.4,0.231,1.848c0.557,0.434,1.414,0.324,1.847-0.232
	l22.478-28.896C58.111,31.699,58.206,31.354,58.162,31.005"/>
<path fill="#010101" d="M83.096,55.562c-0.233-0.183-0.512-0.276-0.808-0.276c-0.408,0-0.788,0.184-1.04,0.508L58.772,84.691
	c-0.217,0.276-0.312,0.622-0.269,0.972c0.044,0.348,0.221,0.66,0.498,0.875c0.558,0.434,1.413,0.324,1.848-0.23l22.477-28.898
	C83.771,56.834,83.669,56.006,83.096,55.562"/>
<path fill="#010101" d="M89.375,62.217c-0.043-0.348-0.22-0.658-0.498-0.875c-0.232-0.182-0.512-0.276-0.807-0.276
	c-0.409,0-0.788,0.187-1.039,0.509L64.553,90.472c-0.445,0.573-0.343,1.401,0.23,1.848c0.557,0.435,1.415,0.323,1.847-0.231
	l22.478-28.897C89.324,62.913,89.419,62.566,89.375,62.217"/>
<path fill="#010101" d="M89.952,76.545c-0.498-0.498-1.365-0.498-1.861,0c-0.513,0.513-0.513,1.348,0.001,1.859l11.451,11.452
	l-9.687,9.687L78.405,88.092c-0.248-0.248-0.579-0.387-0.932-0.387c-0.352,0-0.682,0.139-0.93,0.387
	c-0.249,0.248-0.386,0.578-0.386,0.931c0,0.351,0.137,0.683,0.385,0.931l12.383,12.383c0.497,0.496,1.363,0.496,1.86,0
	l11.547-11.549c0.249-0.248,0.386-0.578,0.386-0.93s-0.137-0.682-0.386-0.93L89.952,76.545z"/>
</svg>
