<?xml version="1.0" encoding="utf-8"?>
<!-- Generator: Adobe Illustrator 16.0.0, SVG Export Plug-In . SVG Version: 6.00 Build 0)  -->
<!DOCTYPE svg PUBLIC "-//W3C//DTD SVG 1.1//EN" "http://www.w3.org/Graphics/SVG/1.1/DTD/svg11.dtd">
<svg version="1.1" id="Calque_1" xmlns="http://www.w3.org/2000/svg" xmlns:xlink="http://www.w3.org/1999/xlink" x="0px" y="0px"
	 width="102.33px" height="102.27px" viewBox="0 0 102.33 102.27" enable-background="new 0 0 102.33 102.27" xml:space="preserve">
<path fill="#010101" d="M101.294,89.335l-9.607-9.608c-0.135-0.135-0.295-0.264-0.502-0.408l-0.847-0.586l0.608-0.829
	c1.045-1.42,0.9-3.353-0.342-4.596L65.017,47.72c-0.147-0.146-0.311-0.268-0.474-0.384l-0.97-0.685l1.087-1.087
	c0.667-0.667,1.034-1.551,1.036-2.489c0-0.94-0.366-1.826-1.036-2.495L32.366,8.285c-1.33-1.33-3.654-1.328-4.985,0.001
	l-3.749,3.749l-0.686-0.961c-0.114-0.159-0.231-0.317-0.373-0.462l-9.608-9.606C11.625-0.334,9.315-0.333,7.98,1L1.03,7.951
	C0.365,8.616-0.001,9.501,0,10.441c0,0.941,0.369,1.826,1.036,2.493l9.608,9.608c0.143,0.143,0.302,0.259,0.461,0.373l0.961,0.686
	l-3.961,3.961c-1.375,1.374-1.375,3.611-0.001,4.985l32.295,32.294c1.332,1.332,3.656,1.33,4.986,0l1.299-1.299l0.684,0.971
	c0.116,0.164,0.236,0.326,0.383,0.473l25.588,25.589c1.208,1.207,3.225,1.352,4.596,0.344l0.83-0.611l0.586,0.849
	c0.143,0.206,0.271,0.365,0.407,0.502l9.607,9.607c1.341,1.34,3.649,1.341,4.983,0.005l6.95-6.95c0.666-0.666,1.031-1.551,1.03-2.49
	C102.328,90.887,101.961,90.002,101.294,89.335 M2.125,10.41l8.315-8.315l11.042,11.043l-8.314,8.314L2.125,10.41z M42.988,63.628
	L9.318,29.959L29.99,9.288l33.668,33.669L42.988,63.628z M76.423,90.002l-28.1-28.101l13.609-13.609l28.101,28.099L76.423,90.002z
	 M91.89,100.174L80.849,89.132l8.312-8.315l11.042,11.043L91.89,100.174z"/>
<path fill="#010101" d="M88.563,88.534c-1.08,1.082-1.08,2.841,0,3.923c1.049,1.049,2.875,1.049,3.924,0
	c1.08-1.082,1.08-2.841,0-3.923c-0.523-0.523-1.221-0.812-1.963-0.812C89.785,87.722,89.089,88.01,88.563,88.534"/>
<path fill="#010101" d="M13.766,13.736c1.081-1.082,1.081-2.842,0-3.923C13.242,9.289,12.544,9,11.805,9
	c-0.741,0-1.438,0.288-1.962,0.812c-1.081,1.081-1.081,2.841,0,3.923C10.891,14.784,12.718,14.784,13.766,13.736"/>
</svg>
