<?xml version="1.0" encoding="utf-8"?>
<!-- Generator: Adobe Illustrator 16.0.0, SVG Export Plug-In . SVG Version: 6.00 Build 0)  -->
<!DOCTYPE svg PUBLIC "-//W3C//DTD SVG 1.1//EN" "http://www.w3.org/Graphics/SVG/1.1/DTD/svg11.dtd">
<svg version="1.1" id="Calque_1" xmlns="http://www.w3.org/2000/svg" xmlns:xlink="http://www.w3.org/1999/xlink" x="0px" y="0px"
	 width="41.494px" height="102.434px" viewBox="0 0 41.494 102.434" enable-background="new 0 0 41.494 102.434"
	 xml:space="preserve">
<path fill="#010101" d="M35.462,14.126c-2.781-2.498-5.359-4.364-8.09-5.85c-0.822-0.446-2.303-1.149-3.283-1.614
	c-0.559-0.266-0.963-0.461-1.04-0.507L22.735,5.97l-0.121-0.344c-0.141-0.4-0.342-1.093-0.635-2.181l-0.03-0.161
	c-0.039-0.395-0.155-0.78-0.347-1.15c-0.512-0.984-1.448-1.525-2.64-1.525L4.903,0.016C4.746,0.004,4.655,0,4.562,0
	c-0.481,0-0.946,0.107-1.383,0.32c-0.744,0.365-1.28,1.011-1.55,1.865l-1.376,4.35C0.207,6.692,0.162,6.889,0.12,7.142
	c-0.294,1.788-0.192,4.504,1.965,7.285c1.543,1.993,3.901,3.602,7.009,4.782c6.001,2.281,6.944,2.68,7.637,4.12
	c0.681,0.222,0.733,1.505,1.033,8.885l0.267,6.52c0.243,5.84,0.33,15.083,0.261,27.479c-0.036,6.363-0.112,13.427-0.226,20.998
	c-0.054,3.597-0.113,6.989-0.171,10.076l-0.077,3.905c-0.008,0.331,0.115,0.643,0.345,0.877s0.538,0.364,0.866,0.364h21.252
	c0.669,0,1.213-0.544,1.213-1.213V29.66c0.001-5.555-0.649-9.176-4.202-13.552C36.739,15.427,36.123,14.76,35.462,14.126
	 M39.067,100.008H20.27l0.051-2.676c0.059-3.089,0.117-6.486,0.171-10.086c0.115-7.562,0.191-14.634,0.227-21.021
	c0.069-12.429-0.019-21.712-0.262-27.592c-0.02-0.472-0.06-1.589-0.107-2.929c-0.097-2.687-0.228-6.364-0.286-7.377
	c-0.169-2.867-0.45-4.477-1.003-5.74c-1.067-2.438-1.332-2.693-9.103-5.647c-2.684-1.019-4.688-2.364-5.954-3.999
	c-1.623-2.091-1.706-4.094-1.49-5.404c0.015-0.096,0.029-0.18,1.357-4.396l0.23-0.73l15.307,0.644l0.162,0.757
	c0.269,1.021,0.526,1.946,0.753,2.716c0.208,0.708,0.654,1.222,1.49,1.717c0.17,0.101,0.976,0.486,1.687,0.826
	c0.987,0.474,2.108,1.01,2.713,1.339c2.521,1.37,5.007,3.169,7.601,5.494c0.576,0.555,1.119,1.146,1.597,1.734
	c3.077,3.792,3.659,7.118,3.659,11.929v70.442H39.067z"/>
</svg>
