<?xml version="1.0" encoding="utf-8"?>
<!-- Generator: Adobe Illustrator 16.0.0, SVG Export Plug-In . SVG Version: 6.00 Build 0)  -->
<!DOCTYPE svg PUBLIC "-//W3C//DTD SVG 1.1//EN" "http://www.w3.org/Graphics/SVG/1.1/DTD/svg11.dtd">
<svg version="1.1" id="Calque_1" xmlns="http://www.w3.org/2000/svg" xmlns:xlink="http://www.w3.org/1999/xlink" x="0px" y="0px"
	 width="100.711px" height="70.715px" viewBox="0 0 100.711 70.715" enable-background="new 0 0 100.711 70.715"
	 xml:space="preserve">
<path fill="#010101" d="M61.607,30.362c1.135-0.802,5.795-3.652,6.951-4.49c1.28-0.927,2.508-1.816,3.573-2.56
	c0.947-0.663,1.863-1.311,2.743-1.944c1.54-1.107,2.959-2.157,4.217-3.121c5.381-4.137,7.954-5.13,11.428-4.782l0.705,0.076
	c2.116,0.237,3.515,0.662,4.535,1.38c0.295,0.206,0.551,0.379,0.768,0.526c1.498,1.011,1.974,1.549,1.004,3.197l-0.334,0.568
	c-0.551,0.87-0.695,1.033-1.497,1.351l-0.326,0.132c-0.62,0.258-0.62,0.258-6.976,1.955l-1.58,0.422
	c-2.844,0.76-6.295,2.413-10.551,5.054c-1.799,1.115-3.736,2.41-5.761,3.848c-1.571,1.117-3.64,2.791-5.466,4.267
	c-0.164,0.133-1.426,0.916-2.465,1.565c-0.602,0.375-0.537,1.269,0.107,1.557c-0.188,0.659,0.703,1.193,0.096,1.563
	c-0.959,0.584-0.039,0.095,0.428-0.133c0.177-0.086,0.339-0.185,0.492-0.309c2.389-1.926,6.191-4.772,8.367-6.317
	c1.971-1.401,3.86-2.665,5.617-3.756c3.973-2.464,7.279-4.059,9.83-4.74l1.793-0.479c6.34-1.694,6.353-1.698,6.896-1.929
	l0.402-0.167c1.487-0.591,1.961-1.011,2.986-2.645c1.944-3.445,1.457-5.117-2.289-7.738c-1.391-0.976-3.201-1.56-5.699-1.841
	l-0.812-0.088c-0.546-0.055-1.049-0.081-1.538-0.081c-3.521,0-6.608,1.414-11.801,5.406c-1.243,0.953-2.64,1.986-4.147,3.071
	c-0.871,0.625-1.777,1.267-2.715,1.923c-0.91,0.636-2.421,1.566-3.882,2.466c-0.222,0.136-3.11,2.275-4.3,3.138
	c-0.309,0.224-0.525,0.547-0.625,0.915c-0.081,0.299-0.154,0.512-0.26,1.071C61.4,29.344,61.725,29.718,61.607,30.362"/>
<path fill="#010101" d="M86.759,42.402c-1.838,0.22-4.931,0.354-8.067,0.354c-3.002,0-5.723-0.125-7.658-0.354
	c-1.686-0.198-3.428-0.476-5.18-0.821c-0.217-0.043-0.371-0.067-0.5-0.084c-0.182-0.025-0.285-0.029-0.379-0.031
	c-0.285-0.01-0.518-0.028-1.106-0.178l-0.755-0.191l0.013-8.558c0.147-0.937,0.324-2.002,0.519-3.12
	c0.221-1.276,0.463-2.623,0.715-3.963c0.168-0.888,0.332-1.718,0.49-2.494c0.545-2.676,1-4.522,1.351-5.488
	c0.352-0.97,0.682-2.208,0.979-3.676c0.254-1.251,0.481-2.637,0.676-4.119c0.095-0.711,0.158-1.279,0.199-1.673l0.029-0.163
	c0.516-1.884-1.709-4.032-3.665-5.503C62.559,0.94,55.622,0,47.158,0c-6.68,0-11.394,0.597-12.599,1.186l-0.151,0.069
	c-0.336,0.149-1.313,0.584-1.722,0.797c-2.865,1.489-3.872,3.661-3.076,6.639c0.738,3.138,2.048,10.771,3.018,16.626
	c0.078,0.477-0.053,0.956-0.358,1.316c-0.298,0.351-0.733,0.553-1.193,0.553c-6.209-0.202-10.48-0.151-12.823,0.145
	c-2.614,0.332-7.81,1.782-15.444,4.31C1.129,32.197,0,33.773,0,35.561v1.499c0,1.737,1.089,3.299,2.709,3.885
	c0.747,0.271,1.698,0.624,2.979,1.109l3.627,1.38c5.468,2.078,8.067,3.029,9.021,3.173c1.617,0.244,3.015,0.3,4.839,0.216h0.003
	c0.942,0,1.649,0.725,1.649,1.611v8.807c-0.009,0.407,0.015,1.227,0.281,2.389c0.369,1.611,1.048,3.111,2.016,4.455
	c3.17,4.4,8.933,6.633,17.128,6.633c8.242,0,13.928-2.51,16.904-7.461c0.857-1.426,1.447-3.01,1.752-4.707
	c0.219-1.225,0.234-2.161,0.211-2.731c0,0-0.003-0.526-0.003-1.401l-0.003-1.955l11.721,2.136c3.646,0.661,7.225,1.599,12.346,3.233
	c0.394,0.125,1.368,0.44,2.442,0.791c1.44,0.467,3.06,0.992,3.679,1.188c2.284,0.723,3.59,0.812,4.557,0.294
	c0.688-0.37,1.422-1.026,0.983-2.845c-0.045-0.184-0.096-0.357-0.164-0.576l-0.28-0.895l0.03-0.055
	c-0.053-0.27-0.118-0.637-0.196-1.105l-0.39-2.358c-0.087-0.526-0.165-0.978-0.237-1.39c-0.178-0.985-0.319-1.678-0.447-2.174
	c-0.836-3.238-2.684-5.287-5.492-6.092c-1.352-0.387-2.617-0.466-4.482-0.259L86.759,42.402z M60.65,32.047
	c-0.035,0.22-0.053,0.426-0.053,0.648l0.008,23.216c0.088,2.01-0.498,4.209-1.604,6.049c-2.489,4.143-7.452,6.242-14.75,6.242
	c-7.342,0-12.418-1.879-15.088-5.588c-1.695-2.354-1.841-4.484-1.824-5.305l0.001-8.876c0-2.274-1.836-4.127-4.092-4.127
	l-0.19,0.004c-1.676,0.078-2.901,0.028-4.349-0.188c-0.276-0.041-0.849-0.127-8.325-2.972l-3.809-1.448
	c-1.286-0.486-2.247-0.846-3.011-1.121c-0.628-0.228-1.051-0.838-1.051-1.521V35.56c0-0.702,0.436-1.319,1.087-1.533
	c5.142-1.704,11.915-3.815,14.969-4.203c2.189-0.277,6.543-0.319,12.376-0.128l0.135,0.003c1.198,0,2.329-0.525,3.106-1.441
	c0.785-0.925,1.121-2.147,0.922-3.352c-1.423-8.585-2.453-14.248-3.062-16.829c-0.556-2.088,0.274-3.003,1.798-3.795
	c0.243-0.127,0.918-0.431,1.39-0.644c0.211-0.095,0.377-0.169,0.428-0.194c0.845-0.412,8.008-0.864,12.738-0.9l0.843-0.004
	c3.386,0,11.495,0.177,13.665,1.807c1.289,0.97,2.148,1.813,2.556,2.508l0.175,0.297l-0.072,0.479
	c-0.037,0.374-0.104,0.967-0.202,1.719c-0.189,1.437-0.407,2.763-0.647,3.945c-0.273,1.347-0.568,2.465-0.88,3.323
	c-0.513,1.415-1.149,4.153-1.946,8.37C61.471,27.203,61.018,29.776,60.65,32.047 M90.971,45.03c1.944,0.557,3.137,1.924,3.75,4.301
	c0.11,0.433,0.244,1.082,0.406,1.99c0.072,0.398,0.146,0.84,0.232,1.358l0.391,2.364c0.104,0.619,0.186,1.067,0.255,1.404
	l0.333,1.596l-1.572-0.426c-0.221-0.062-0.453-0.127-0.709-0.209c-0.607-0.191-2.234-0.721-3.687-1.191
	c-1.062-0.344-2.029-0.658-2.427-0.785c-5.229-1.668-8.897-2.628-12.661-3.311l-12.171-2.215v-6.107l1.07,0.074
	c0.252,0.019,0.568,0.051,1.186,0.172c1.818,0.361,3.627,0.647,5.371,0.854c2.033,0.239,4.861,0.371,7.963,0.371h0.001
	c3.221,0,6.421-0.143,8.354-0.371l0.396-0.046C88.938,44.689,89.979,44.747,90.971,45.03"/>
</svg>
