<?xml version="1.0" encoding="utf-8"?>
<!-- Generator: Adobe Illustrator 16.0.0, SVG Export Plug-In . SVG Version: 6.00 Build 0)  -->
<!DOCTYPE svg PUBLIC "-//W3C//DTD SVG 1.1//EN" "http://www.w3.org/Graphics/SVG/1.1/DTD/svg11.dtd">
<svg version="1.1" id="Calque_1" xmlns="http://www.w3.org/2000/svg" xmlns:xlink="http://www.w3.org/1999/xlink" x="0px" y="0px"
	 width="103.273px" height="102.189px" viewBox="0 0 103.273 102.189" enable-background="new 0 0 103.273 102.189"
	 xml:space="preserve">
<path fill="#010101" d="M86.437,101.94c1.279,0,2.648-0.559,3.959-1.615c0.653-0.521,1.143-1.091,1.458-1.699
	c0.297-0.562,0.457-1.206,0.454-1.823c0-0.634-0.143-1.256-0.436-1.906c-0.223-0.496-0.514-0.969-0.892-1.448
	c-0.481-0.61-0.946-1.04-1.182-1.241l-0.089-0.084l-3.576-3.736l1.133-1.536c0.104-0.141,0.246-0.337,0.402-0.561
	c0.321-0.457,0.712-1.033,1.093-1.604c0.195-0.291,0.385-0.574,0.56-0.837l0.743-1.125l1.064,0.825
	c0.542,0.42,1.449,1.123,2.498,1.736c1.123,0.646,2.498,1.312,4.114,1.33c1.289,0,2.551-0.579,3.374-1.512
	c1.244-1.35,1.915-2.836,1.905-4.205c0.002-0.81-0.204-1.612-0.612-2.397c-0.396-0.765-0.89-1.358-1.272-1.791
	c-0.455-0.513-0.906-0.962-1.291-1.345l-0.326-0.326c-0.29-0.284-0.533-0.555-0.685-0.731L98.576,74l-0.032-0.4
	c-0.019-0.233-0.058-0.312-0.121-0.441l-0.057-0.116c-0.036-0.062-0.101-0.146-0.161-0.225c-0.145-0.186-0.294-0.342-0.465-0.516
	c-0.366-0.366-0.844-0.802-1.495-1.368c-1.09-0.943-2.582-2.174-4.696-3.869c-1.902-1.522-3.952-3.136-5.768-4.562
	c-1.621-1.275-3.055-2.403-4.033-3.192c-0.62-0.499-1.088-0.896-1.21-1.009l-0.494-0.483c-0.144-0.126-0.231-0.205-0.458-0.313
	c-0.098-0.05-0.281-0.101-0.425-0.108l-0.059,0.001c-0.221,0.002-0.326,0.034-0.412,0.061l-0.217,0.062
	c-0.236,0.058-0.455,0.094-0.898,0.098c-0.417,0-0.914-0.038-1.492-0.111c-0.994-0.123-1.661-0.238-2.098-0.36
	c-0.487-0.145-0.729-0.255-1.084-0.498c-0.395-0.256-0.872-0.752-1.826-1.74c-0.447-0.463-0.992-1.026-1.659-1.7
	c-1.495-1.491-5.927-6.252-9.38-9.982c-4.188-4.523-8.771-9.513-11.768-12.779l-3.305-3.646l-0.19-0.322
	c-0.185-0.326-0.449-0.819-0.723-1.434c-0.239-0.526-1.032-2.399-1.011-4.042c0-0.508,0.072-0.99,0.216-1.416
	c0.3-0.867,0.448-1.72,0.448-2.542c0.002-1.25-0.347-2.196-0.64-2.77c-0.148-0.293-0.394-0.712-0.723-1.06L32.13,3.318L28.368,0.25
	h-1.071c-0.256,0.003-2.69,0.061-6.12,1.125c-3.252,1.009-8.082,3.166-12.633,7.716c-0.365,0.354-2.211,2.175-4.112,4.885
	c-2.79,4.019-4.158,7.629-4.182,11.035l0.003,0.428l12.446,15.797c0.351,0.305,0.817,0.616,1.314,0.879
	c1.065,0.558,2.181,0.842,3.31,0.844l0.508-0.02c0.302-0.023,0.618-0.036,0.9-0.036c0.982,0.009,1.627,0.134,2.388,0.463
	c0.815,0.36,1.733,1.009,2.816,1.985c0.199,0.175,0.704,0.67,1.337,1.316c0.64,0.652,1.459,1.499,2.41,2.492
	c1.899,1.978,4.327,4.538,6.933,7.301c5.214,5.523,11.152,11.873,15.068,16.062l4.282,4.59l0.375,0.373
	c0.197,0.2,0.458,0.485,0.727,0.813c0.519,0.619,1.146,1.62,1.28,2.325c0.289,1.175,0.925,2.08,1.443,2.729
	c0.515,0.633,0.961,1.021,1.046,1.092l0.104,0.081c1.088,0.829,3.979,3.025,7.324,5.498c5.478,4.052,9.302,6.744,11.689,8.234
	c0.827,0.511,1.458,0.88,2.036,1.129c0.689,0.286,1.354,0.648,2.059,1.034c0.323,0.176,0.655,0.356,1.002,0.537
	c0.92,0.47,2.019,0.975,3.351,0.979 M2.123,24.772l0.032-0.479c0.237-3.596,2.38-7.169,3.636-8.979
	c1.979-2.883,4.036-4.846,4.058-4.864c3.369-3.369,7.254-5.775,11.57-7.179c3.083-0.999,5.368-1.122,5.794-1.136l0.47-0.016
	l3.232,2.642l4.182,4.052l-3.825,3.138l-0.778-0.553c-2.202-1.563-4.801-2.39-7.513-2.39c-7.162,0-12.99,5.829-12.992,12.993
	c0,2.205,0.562,4.384,1.628,6.302l0.506,0.911l-3.95,3.244L2.123,24.772z M34.091,22c0,2.963-1.155,5.753-3.253,7.855
	c-2.1,2.098-4.89,3.253-7.856,3.255c-3.41-0.002-6.584-1.537-8.71-4.213c-1.569-1.981-2.399-4.365-2.401-6.896
	c0.002-2.968,1.158-5.757,3.254-7.856c2.104-2.1,4.894-3.255,7.856-3.255c2.966,0,5.756,1.156,7.856,3.254
	C32.935,16.245,34.091,19.035,34.091,22 M89.245,80.873c-0.154,0.065-0.312,0.184-0.422,0.307c-0.062,0.073-0.122,0.162-0.174,0.257
	l-0.052,0.09l-0.7,1.064c-0.46,0.694-1.04,1.562-1.507,2.238c-0.273,0.399-0.53,0.76-0.651,0.918l-0.152,0.165
	c-0.047,0.043-0.071,0.075-0.097,0.105c-0.027,0.033-0.054,0.065-0.081,0.097l-0.248,0.342c-0.132,0.199-0.284,0.452-0.431,0.694
	c-0.247,0.414-0.461,0.799-0.53,0.924l-0.354,0.643l5.25,5.418c0.199,0.214,0.763,0.846,1.065,1.545
	c0.178,0.391,0.271,0.779,0.265,1.136l-0.038,0.294l-0.202,0.65c-0.199,0.376-0.511,0.73-0.952,1.085
	c-1.08,0.843-1.89,1.19-2.806,1.213h-0.002c-0.727,0-1.487-0.239-2.521-0.774c-0.271-0.139-0.569-0.303-0.892-0.479
	c-0.672-0.369-1.433-0.787-2.303-1.157c-0.265-0.103-0.801-0.401-1.203-0.644c-0.51-0.304-1.145-0.706-1.859-1.181
	c-1.272-0.842-2.919-1.982-4.893-3.393c-3.554-2.545-7.383-5.402-9.969-7.352c-1.392-1.047-2.372-1.793-2.674-2.023l-0.276-0.245
	c-0.16-0.158-0.37-0.377-0.59-0.646c-0.196-0.236-0.881-1.114-1.086-2.058c-0.314-1.25-1.012-2.205-1.639-2.998
	c-0.481-0.592-0.922-1.031-1.141-1.239l-0.22-0.231C50.198,70.313,33.52,52.449,27.32,46.071c-0.831-0.852-1.666-1.699-2.133-2.125
	c-1.257-1.131-2.275-1.84-3.293-2.294c-0.926-0.419-1.968-0.63-3.104-0.63h-0.06c-0.358,0-0.716,0.018-1.08,0.042l-0.284,0.013
	h-0.004c-1.021,0-1.843-0.312-2.363-0.572c-0.4-0.196-0.702-0.405-0.845-0.511l-0.236-0.23l-4.582-5.825l3.937-3.23l0.801,0.753
	c2.42,2.279,5.583,3.534,8.906,3.534c7.164-0.002,12.994-5.83,12.994-12.993c0-2.839-0.898-5.534-2.597-7.794l-0.72-0.958l3.8-3.116
	l4.706,4.616l0.225,0.376c0.284,0.575,0.431,1.217,0.433,1.91c0,0.621-0.112,1.251-0.343,1.929
	c-0.212,0.625-0.321,1.314-0.321,2.049c0.01,1.919,0.677,3.658,1.177,4.799c0.519,1.161,1.021,1.969,1.163,2.188l0.103,0.131
	c0.257,0.283,11.75,12.836,19.044,20.663c2.842,3.047,4.571,4.874,5.443,5.744c0.636,0.635,1.146,1.166,1.589,1.63
	c0.517,0.536,0.938,0.979,1.369,1.382c0.719,0.693,1.572,1.187,2.421,1.403c0.668,0.183,1.352,0.285,2.383,0.418
	c1.052,0.136,1.896,0.16,2.506,0.081l0.567-0.072l0.427,0.383c0.203,0.182,0.43,0.369,0.739,0.625
	c0.434,0.354,0.985,0.796,1.626,1.305c1.129,0.896,2.532,1.998,4.029,3.177l0.665,0.522c3.52,2.774,7.371,5.841,9.265,7.551
	c0.25,0.224,0.479,0.439,0.647,0.608l0.273,0.273l0.071,0.382c0.064,0.345,0.21,0.593,0.396,0.88
	c0.217,0.324,0.472,0.604,0.758,0.908c0.226,0.234,0.466,0.477,0.707,0.717c0.414,0.413,0.827,0.826,1.206,1.254
	c0.439,0.492,0.778,0.966,1.006,1.402c0.274,0.54,0.402,1.022,0.402,1.525c-0.021,0.973-0.45,1.866-1.395,2.922
	c-0.723,0.727-1.214,0.872-1.938,0.917l-0.123,0.003c-0.826,0-1.989-0.401-3.113-1.076c-0.979-0.575-1.884-1.28-2.545-1.797
	l-0.083-0.063c-0.46-0.356-0.824-0.594-1.178-0.769c-0.328-0.157-0.613-0.259-0.991-0.263
	C89.597,80.765,89.403,80.804,89.245,80.873"/>
<path fill="none" stroke="#010101" stroke-width="0.5" stroke-miterlimit="10" d="M86.437,101.94c1.279,0,2.648-0.559,3.959-1.615
	c0.653-0.521,1.143-1.091,1.458-1.699c0.297-0.562,0.457-1.206,0.454-1.823c0-0.634-0.143-1.256-0.436-1.906
	c-0.223-0.496-0.514-0.969-0.892-1.448c-0.481-0.61-0.946-1.04-1.182-1.241l-0.089-0.084l-3.576-3.736l1.133-1.536
	c0.104-0.141,0.246-0.337,0.402-0.561c0.321-0.457,0.712-1.033,1.093-1.604c0.195-0.291,0.385-0.574,0.56-0.837l0.743-1.125
	l1.064,0.825c0.542,0.42,1.449,1.123,2.498,1.736c1.123,0.646,2.498,1.312,4.114,1.33c1.289,0,2.551-0.579,3.374-1.512
	c1.244-1.35,1.915-2.836,1.905-4.205c0.002-0.81-0.204-1.612-0.612-2.397c-0.396-0.765-0.89-1.358-1.272-1.791
	c-0.455-0.513-0.906-0.962-1.291-1.345l-0.326-0.326c-0.29-0.284-0.533-0.555-0.685-0.731L98.576,74l-0.032-0.4
	c-0.019-0.233-0.058-0.312-0.121-0.441l-0.057-0.116c-0.036-0.062-0.101-0.146-0.161-0.225c-0.145-0.186-0.294-0.342-0.465-0.516
	c-0.366-0.366-0.844-0.802-1.495-1.368c-1.09-0.943-2.582-2.174-4.696-3.869c-1.902-1.522-3.952-3.136-5.768-4.562
	c-1.621-1.275-3.055-2.403-4.033-3.192c-0.62-0.499-1.088-0.896-1.21-1.009l-0.494-0.483c-0.144-0.126-0.231-0.205-0.458-0.313
	c-0.098-0.05-0.281-0.101-0.425-0.108l-0.059,0.001c-0.221,0.002-0.326,0.034-0.412,0.061l-0.217,0.062
	c-0.236,0.058-0.455,0.094-0.898,0.098c-0.417,0-0.914-0.038-1.492-0.111c-0.994-0.123-1.661-0.238-2.098-0.36
	c-0.487-0.145-0.729-0.255-1.084-0.498c-0.395-0.256-0.872-0.752-1.826-1.74c-0.447-0.463-0.992-1.026-1.659-1.7
	c-1.495-1.491-5.927-6.252-9.38-9.982c-4.188-4.523-8.771-9.513-11.768-12.779l-3.305-3.646l-0.19-0.322
	c-0.185-0.326-0.449-0.819-0.723-1.434c-0.239-0.526-1.032-2.399-1.011-4.042c0-0.508,0.072-0.99,0.216-1.416
	c0.3-0.867,0.448-1.72,0.448-2.542c0.002-1.25-0.347-2.196-0.64-2.77c-0.148-0.293-0.394-0.712-0.723-1.06L32.13,3.318L28.368,0.25
	h-1.071c-0.256,0.003-2.69,0.061-6.12,1.125c-3.252,1.009-8.082,3.166-12.633,7.716c-0.365,0.354-2.211,2.175-4.112,4.885
	c-2.79,4.019-4.158,7.629-4.182,11.035l0.003,0.428l12.446,15.797c0.351,0.305,0.817,0.616,1.314,0.879
	c1.065,0.558,2.181,0.842,3.31,0.844l0.508-0.02c0.302-0.023,0.618-0.036,0.9-0.036c0.982,0.009,1.627,0.134,2.388,0.463
	c0.815,0.36,1.733,1.009,2.816,1.985c0.199,0.175,0.704,0.67,1.337,1.316c0.64,0.652,1.459,1.499,2.41,2.492
	c1.899,1.978,4.327,4.538,6.933,7.301c5.214,5.523,11.152,11.873,15.068,16.062l4.282,4.59l0.375,0.373
	c0.197,0.2,0.458,0.485,0.727,0.813c0.519,0.619,1.146,1.62,1.28,2.325c0.289,1.175,0.925,2.08,1.443,2.729
	c0.515,0.633,0.961,1.021,1.046,1.092l0.104,0.081c1.088,0.829,3.979,3.025,7.324,5.498c5.478,4.052,9.302,6.744,11.689,8.234
	c0.827,0.511,1.458,0.88,2.036,1.129c0.689,0.286,1.354,0.648,2.059,1.034c0.323,0.176,0.655,0.356,1.002,0.537
	c0.92,0.47,2.019,0.975,3.351,0.979 M2.123,24.772l0.032-0.479c0.237-3.596,2.38-7.169,3.636-8.979
	c1.979-2.883,4.036-4.846,4.058-4.864c3.369-3.369,7.254-5.775,11.57-7.179c3.083-0.999,5.368-1.122,5.794-1.136l0.47-0.016
	l3.232,2.642l4.182,4.052l-3.825,3.138l-0.778-0.553c-2.202-1.563-4.801-2.39-7.513-2.39c-7.162,0-12.99,5.829-12.992,12.993
	c0,2.205,0.562,4.384,1.628,6.302l0.506,0.911l-3.95,3.244L2.123,24.772z M34.091,22c0,2.963-1.155,5.753-3.253,7.855
	c-2.1,2.098-4.89,3.253-7.856,3.255c-3.41-0.002-6.584-1.537-8.71-4.213c-1.569-1.981-2.399-4.365-2.401-6.896
	c0.002-2.968,1.158-5.757,3.254-7.856c2.104-2.1,4.894-3.255,7.856-3.255c2.966,0,5.756,1.156,7.856,3.254
	C32.935,16.245,34.091,19.035,34.091,22z M89.245,80.873c-0.154,0.065-0.312,0.184-0.422,0.307
	c-0.062,0.073-0.122,0.162-0.174,0.257l-0.052,0.09l-0.7,1.064c-0.46,0.694-1.04,1.562-1.507,2.238
	c-0.273,0.399-0.53,0.76-0.651,0.918l-0.152,0.165c-0.047,0.043-0.071,0.075-0.097,0.105c-0.027,0.033-0.054,0.065-0.081,0.097
	l-0.248,0.342c-0.132,0.199-0.284,0.452-0.431,0.694c-0.247,0.414-0.461,0.799-0.53,0.924l-0.354,0.643l5.25,5.418
	c0.199,0.214,0.763,0.846,1.065,1.545c0.178,0.391,0.271,0.779,0.265,1.136l-0.038,0.294l-0.202,0.65
	c-0.199,0.376-0.511,0.73-0.952,1.085c-1.08,0.843-1.89,1.19-2.806,1.213h-0.002c-0.727,0-1.487-0.239-2.521-0.774
	c-0.271-0.139-0.569-0.303-0.892-0.479c-0.672-0.369-1.433-0.787-2.303-1.157c-0.265-0.103-0.801-0.401-1.203-0.644
	c-0.51-0.304-1.145-0.706-1.859-1.181c-1.272-0.842-2.919-1.982-4.893-3.393c-3.554-2.545-7.383-5.402-9.969-7.352
	c-1.392-1.047-2.372-1.793-2.674-2.023l-0.276-0.245c-0.16-0.158-0.37-0.377-0.59-0.646c-0.196-0.236-0.881-1.114-1.086-2.058
	c-0.314-1.25-1.012-2.205-1.639-2.998c-0.481-0.592-0.922-1.031-1.141-1.239l-0.22-0.231C50.198,70.313,33.52,52.449,27.32,46.071
	c-0.831-0.852-1.666-1.699-2.133-2.125c-1.257-1.131-2.275-1.84-3.293-2.294c-0.926-0.419-1.968-0.63-3.104-0.63h-0.06
	c-0.358,0-0.716,0.018-1.08,0.042l-0.284,0.013h-0.004c-1.021,0-1.843-0.312-2.363-0.572c-0.4-0.196-0.702-0.405-0.845-0.511
	l-0.236-0.23l-4.582-5.825l3.937-3.23l0.801,0.753c2.42,2.279,5.583,3.534,8.906,3.534c7.164-0.002,12.994-5.83,12.994-12.993
	c0-2.839-0.898-5.534-2.597-7.794l-0.72-0.958l3.8-3.116l4.706,4.616l0.225,0.376c0.284,0.575,0.431,1.217,0.433,1.91
	c0,0.621-0.112,1.251-0.343,1.929c-0.212,0.625-0.321,1.314-0.321,2.049c0.01,1.919,0.677,3.658,1.177,4.799
	c0.519,1.161,1.021,1.969,1.163,2.188l0.103,0.131c0.257,0.283,11.75,12.836,19.044,20.663c2.842,3.047,4.571,4.874,5.443,5.744
	c0.636,0.635,1.146,1.166,1.589,1.63c0.517,0.536,0.938,0.979,1.369,1.382c0.719,0.693,1.572,1.187,2.421,1.403
	c0.668,0.183,1.352,0.285,2.383,0.418c1.052,0.136,1.896,0.16,2.506,0.081l0.567-0.072l0.427,0.383
	c0.203,0.182,0.43,0.369,0.739,0.625c0.434,0.354,0.985,0.796,1.626,1.305c1.129,0.896,2.532,1.998,4.029,3.177l0.665,0.522
	c3.52,2.774,7.371,5.841,9.265,7.551c0.25,0.224,0.479,0.439,0.647,0.608l0.273,0.273l0.071,0.382
	c0.064,0.345,0.21,0.593,0.396,0.88c0.217,0.324,0.472,0.604,0.758,0.908c0.226,0.234,0.466,0.477,0.707,0.717
	c0.414,0.413,0.827,0.826,1.206,1.254c0.439,0.492,0.778,0.966,1.006,1.402c0.274,0.54,0.402,1.022,0.402,1.525
	c-0.021,0.973-0.45,1.866-1.395,2.922c-0.723,0.727-1.214,0.872-1.938,0.917l-0.123,0.003c-0.826,0-1.989-0.401-3.113-1.076
	c-0.979-0.575-1.884-1.28-2.545-1.797l-0.083-0.063c-0.46-0.356-0.824-0.594-1.178-0.769c-0.328-0.157-0.613-0.259-0.991-0.263
	C89.597,80.765,89.403,80.804,89.245,80.873z"/>
</svg>
