<?xml version="1.0" encoding="utf-8"?>
<!-- Generator: Adobe Illustrator 16.0.0, SVG Export Plug-In . SVG Version: 6.00 Build 0)  -->
<!DOCTYPE svg PUBLIC "-//W3C//DTD SVG 1.1//EN" "http://www.w3.org/Graphics/SVG/1.1/DTD/svg11.dtd">
<svg version="1.1" id="Calque_1" xmlns="http://www.w3.org/2000/svg" xmlns:xlink="http://www.w3.org/1999/xlink" x="0px" y="0px"
	 width="104.201px" height="104.201px" viewBox="0 0 104.201 104.201" enable-background="new 0 0 104.201 104.201"
	 xml:space="preserve">
<path fill="#010101" d="M57.771,103.892c0.604-0.065,1.037-0.605,0.973-1.209c-0.064-0.603-0.607-1.039-1.209-0.973
	c-0.357,0.039-0.713,0.073-1.071,0.104c-0.604,0.054-1.051,0.586-0.998,1.189c0.054,0.604,0.585,1.05,1.188,0.998
	C57.026,103.969,57.399,103.933,57.771,103.892 M64.396,102.737c0.59-0.141,0.951-0.733,0.81-1.322
	c-0.142-0.59-0.735-0.952-1.324-0.811c-0.348,0.084-0.696,0.164-1.047,0.24c-0.592,0.129-0.967,0.715-0.838,1.307
	c0.13,0.593,0.715,0.968,1.308,0.838C63.668,102.91,64.032,102.827,64.396,102.737 M70.845,100.729
	c0.566-0.217,0.85-0.852,0.631-1.418c-0.218-0.564-0.853-0.848-1.418-0.629c-0.334,0.127-0.67,0.252-1.007,0.373
	c-0.569,0.205-0.866,0.834-0.661,1.404c0.205,0.568,0.834,0.866,1.404,0.661C70.146,100.996,70.496,100.864,70.845,100.729
	 M76.946,97.918c0.531-0.289,0.729-0.955,0.441-1.487c-0.289-0.533-0.957-0.73-1.488-0.441c-0.314,0.172-0.633,0.339-0.949,0.502
	c-0.539,0.277-0.751,0.939-0.475,1.479s0.938,0.752,1.479,0.475C76.287,98.271,76.617,98.097,76.946,97.918 M82.669,94.312
	c0.491-0.354,0.6-1.041,0.244-1.531s-1.041-0.6-1.532-0.244c-0.29,0.21-0.583,0.418-0.877,0.62
	c-0.498,0.347-0.623,1.028-0.276,1.526c0.346,0.5,1.027,0.623,1.526,0.278C82.062,94.749,82.366,94.532,82.669,94.312
	 M87.815,90.056c0.44-0.416,0.463-1.111,0.047-1.552s-1.11-0.462-1.553-0.047c-0.261,0.245-0.522,0.487-0.787,0.728
	c-0.451,0.405-0.486,1.1-0.08,1.549c0.404,0.451,1.099,0.486,1.549,0.08C87.269,90.563,87.543,90.312,87.815,90.056 M92.422,85.122
	c0.386-0.471,0.315-1.16-0.151-1.545c-0.469-0.385-1.16-0.316-1.545,0.152c-0.228,0.276-0.457,0.551-0.688,0.821
	c-0.396,0.462-0.341,1.154,0.12,1.548c0.46,0.396,1.152,0.34,1.547-0.119C91.946,85.694,92.187,85.41,92.422,85.122 M96.362,79.629
	c0.32-0.515,0.164-1.19-0.352-1.513c-0.514-0.319-1.189-0.162-1.512,0.352c-0.189,0.303-0.382,0.604-0.578,0.904
	c-0.331,0.508-0.188,1.188,0.318,1.52c0.507,0.332,1.188,0.189,1.519-0.317C95.964,80.261,96.165,79.944,96.362,79.629
	 M99.565,73.664c0.252-0.552,0.009-1.202-0.543-1.453c-0.553-0.252-1.201-0.009-1.453,0.543c-0.149,0.326-0.303,0.649-0.457,0.974
	c-0.264,0.545-0.034,1.2,0.512,1.465c0.546,0.264,1.202,0.033,1.465-0.512C99.252,74.343,99.411,74.005,99.565,73.664
	 M101.946,67.401c0.18-0.579-0.146-1.192-0.727-1.371c-0.578-0.18-1.191,0.146-1.371,0.726c-0.104,0.343-0.215,0.683-0.326,1.022
	c-0.19,0.574,0.119,1.195,0.695,1.388c0.575,0.19,1.196-0.121,1.389-0.696C101.724,68.114,101.837,67.759,101.946,67.401
	 M103.495,60.92c0.102-0.598-0.299-1.164-0.896-1.269c-0.598-0.102-1.164,0.301-1.268,0.896c-0.061,0.354-0.124,0.705-0.193,1.057
	c-0.113,0.596,0.274,1.17,0.869,1.287c0.596,0.114,1.172-0.274,1.286-0.869C103.364,61.656,103.431,61.289,103.495,60.92
	 M104.2,54.208c0.023-0.605-0.447-1.116-1.053-1.141c-0.605-0.023-1.116,0.447-1.142,1.054c-0.014,0.356-0.032,0.715-0.054,1.071
	c-0.037,0.604,0.423,1.125,1.027,1.162s1.125-0.422,1.162-1.026C104.166,54.955,104.185,54.582,104.2,54.208 M104.04,47.536
	c-0.003-0.043-0.003-0.043-0.006-0.08c-0.055-0.603-0.588-1.049-1.191-0.995c-0.603,0.053-1.049,0.586-0.996,1.19
	c0.004,0.035,0.004,0.035,0.008,0.076c0.028,0.334,0.056,0.668,0.078,1.001c0.039,0.605,0.563,1.062,1.168,1.021
	s1.062-0.564,1.021-1.169C104.099,48.231,104.071,47.884,104.04,47.536 M103.013,40.81c-0.13-0.592-0.716-0.966-1.308-0.836
	c-0.593,0.13-0.966,0.716-0.836,1.308c0.077,0.349,0.149,0.7,0.22,1.052c0.117,0.594,0.695,0.981,1.289,0.864
	c0.596-0.118,0.982-0.695,0.864-1.29C103.17,41.541,103.093,41.175,103.013,40.81 M101.14,34.329
	c-0.207-0.57-0.836-0.865-1.404-0.659c-0.57,0.206-0.865,0.835-0.659,1.405c0.12,0.336,0.239,0.674,0.353,1.013
	c0.194,0.574,0.816,0.883,1.393,0.69c0.572-0.194,0.883-0.816,0.688-1.391C101.39,35.033,101.267,34.681,101.14,34.329
	 M98.45,28.168c-0.278-0.538-0.94-0.749-1.479-0.471c-0.539,0.278-0.75,0.94-0.472,1.478c0.164,0.318,0.324,0.638,0.481,0.959
	c0.267,0.545,0.924,0.77,1.469,0.504c0.544-0.266,0.77-0.924,0.503-1.468C98.789,28.834,98.621,28.5,98.45,28.168 M94.963,22.375
	c-0.346-0.497-1.028-0.621-1.526-0.275c-0.498,0.346-0.621,1.029-0.275,1.527c0.204,0.294,0.404,0.591,0.604,0.889
	c0.334,0.505,1.016,0.643,1.521,0.308c0.504-0.335,0.644-1.016,0.309-1.521C95.386,22.993,95.176,22.683,94.963,22.375
	 M90.804,17.138c-0.406-0.449-1.101-0.484-1.55-0.078c-0.45,0.407-0.485,1.101-0.078,1.55c0.24,0.266,0.478,0.534,0.712,0.805
	c0.396,0.458,1.09,0.508,1.549,0.111c0.457-0.397,0.508-1.09,0.11-1.548C91.302,17.695,91.056,17.415,90.804,17.138 M85.967,12.436
	c-0.461-0.393-1.151-0.339-1.547,0.122c-0.394,0.461-0.339,1.154,0.122,1.547c0.271,0.233,0.542,0.468,0.809,0.707
	c0.453,0.403,1.146,0.363,1.551-0.089c0.404-0.452,0.363-1.146-0.09-1.55C86.533,12.925,86.251,12.679,85.967,12.436 M80.578,8.402
	c-0.509-0.332-1.188-0.189-1.521,0.319c-0.332,0.507-0.188,1.187,0.319,1.519c0.3,0.195,0.599,0.394,0.894,0.597
	c0.502,0.342,1.185,0.213,1.525-0.287c0.342-0.5,0.213-1.183-0.287-1.525C81.202,8.813,80.892,8.605,80.578,8.402 M74.707,5.088
	c-0.546-0.263-1.202-0.034-1.465,0.512c-0.265,0.546-0.034,1.202,0.512,1.466c0.322,0.155,0.644,0.314,0.962,0.476
	c0.541,0.275,1.201,0.06,1.477-0.48c0.274-0.54,0.061-1.201-0.479-1.476C75.379,5.417,75.044,5.25,74.707,5.088 M68.476,2.566
	c-0.576-0.19-1.197,0.122-1.388,0.697c-0.19,0.576,0.121,1.197,0.697,1.387c0.34,0.113,0.678,0.229,1.016,0.349
	c0.571,0.203,1.198-0.096,1.401-0.667c0.203-0.571-0.096-1.199-0.666-1.401C69.183,2.805,68.83,2.684,68.476,2.566 M61.933,0.866
	c-0.595-0.114-1.17,0.276-1.283,0.871c-0.113,0.596,0.275,1.17,0.873,1.284c0.351,0.068,0.701,0.139,1.052,0.214
	c0.593,0.126,1.176-0.251,1.303-0.844c0.127-0.593-0.251-1.176-0.844-1.303C62.667,1.01,62.3,0.936,61.933,0.866 M55.293,0.036
	c-0.604-0.037-1.124,0.424-1.161,1.029c-0.035,0.605,0.426,1.125,1.03,1.161c0.356,0.022,0.715,0.047,1.071,0.076
	c0.604,0.05,1.134-0.4,1.183-1.004s-0.399-1.134-1.004-1.183C56.039,0.083,55.667,0.058,55.293,0.036 M48.549,0.067
	c-0.605,0.041-1.061,0.565-1.02,1.17c0.042,0.605,0.566,1.061,1.171,1.02c0.357-0.025,0.715-0.046,1.072-0.063
	c0.605-0.029,1.073-0.543,1.044-1.148c-0.029-0.606-0.543-1.073-1.148-1.044C49.295,0.019,48.922,0.041,48.549,0.067 M41.875,0.955
	c-0.594,0.119-0.98,0.697-0.862,1.291c0.118,0.594,0.696,0.98,1.291,0.862c0.35-0.07,0.702-0.136,1.055-0.198
	c0.597-0.106,0.995-0.675,0.889-1.272c-0.105-0.597-0.675-0.995-1.271-0.889C42.608,0.813,42.241,0.883,41.875,0.955 M35.361,2.697
	c-0.574,0.194-0.882,0.817-0.688,1.391c0.194,0.575,0.817,0.882,1.391,0.688c0.339-0.115,0.68-0.226,1.022-0.333
	c0.578-0.182,0.899-0.798,0.717-1.376c-0.181-0.578-0.797-0.9-1.376-0.718C36.07,2.46,35.715,2.577,35.361,2.697 M29.146,5.261
	c-0.544,0.267-0.769,0.925-0.502,1.469s0.925,0.769,1.469,0.502c0.321-0.158,0.644-0.312,0.969-0.463
	c0.55-0.255,0.789-0.908,0.533-1.458c-0.255-0.549-0.907-0.788-1.457-0.533C29.819,4.935,29.481,5.097,29.146,5.261 M23.29,8.625
	c-0.505,0.335-0.642,1.016-0.306,1.521c0.335,0.505,1.016,0.642,1.521,0.307c0.298-0.198,0.598-0.393,0.9-0.584
	c0.511-0.325,0.663-1.003,0.339-1.515c-0.325-0.512-1.003-0.664-1.515-0.339C23.914,8.216,23.601,8.418,23.29,8.625 M17.965,12.681
	c-0.458,0.397-0.507,1.09-0.109,1.548c0.397,0.458,1.09,0.507,1.548,0.109c0.27-0.234,0.543-0.466,0.817-0.694
	c0.467-0.388,0.53-1.08,0.143-1.546c-0.388-0.466-1.08-0.53-1.546-0.142C18.531,12.194,18.247,12.436,17.965,12.681 M13.166,17.423
	c-0.403,0.453-0.362,1.147,0.091,1.55c0.453,0.402,1.146,0.362,1.549-0.091c0.238-0.268,0.479-0.533,0.722-0.795
	c0.413-0.444,0.387-1.138-0.057-1.551c-0.444-0.412-1.139-0.386-1.551,0.058C13.666,16.868,13.414,17.144,13.166,17.423
	 M9.013,22.747c-0.342,0.501-0.212,1.184,0.289,1.525c0.501,0.341,1.183,0.212,1.525-0.289c0.201-0.296,0.406-0.59,0.614-0.881
	c0.352-0.494,0.237-1.179-0.256-1.531c-0.494-0.352-1.179-0.237-1.531,0.256C9.437,22.132,9.223,22.438,9.013,22.747 M5.571,28.577
	c-0.274,0.541-0.057,1.201,0.484,1.475c0.541,0.274,1.201,0.057,1.474-0.484c0.162-0.319,0.327-0.637,0.495-0.953
	c0.286-0.534,0.083-1.199-0.451-1.484c-0.535-0.286-1.2-0.083-1.485,0.451C5.912,27.912,5.74,28.244,5.571,28.577 M2.924,34.773
	c-0.201,0.572,0.099,1.198,0.671,1.4c0.571,0.201,1.198-0.099,1.399-0.671c0.119-0.337,0.242-0.673,0.368-1.008
	c0.214-0.567-0.073-1.2-0.64-1.414c-0.567-0.214-1.2,0.073-1.414,0.64C3.176,34.07,3.048,34.422,2.924,34.773 M1.124,41.164
	c-0.127,0.592,0.251,1.176,0.844,1.302c0.593,0.127,1.176-0.251,1.302-0.844c0.075-0.35,0.154-0.699,0.236-1.048
	c0.139-0.589-0.226-1.181-0.815-1.32c-0.59-0.139-1.182,0.226-1.321,0.816C1.284,40.433,1.202,40.798,1.124,41.164 M0.148,47.834
	c-0.049,0.604,0.402,1.133,1.006,1.182c0.604,0.048,1.133-0.402,1.182-1.006c0.028-0.357,0.061-0.714,0.097-1.07
	c0.062-0.603-0.377-1.142-0.98-1.203c-0.603-0.062-1.142,0.377-1.203,0.98C0.212,47.09,0.178,47.462,0.148,47.834 M0.043,54.582
	c0.03,0.604,0.545,1.071,1.15,1.043c0.605-0.03,1.072-0.544,1.042-1.149c-0.017-0.358-0.031-0.717-0.041-1.074
	c-0.016-0.604-0.521-1.083-1.127-1.065C0.461,52.352-0.016,52.856,0,53.462C0.011,53.835,0.025,54.209,0.043,54.582 M0.799,61.272
	c0.106,0.598,0.676,0.994,1.273,0.889c0.596-0.105,0.994-0.678,0.888-1.271c-0.063-0.353-0.122-0.705-0.177-1.06
	c-0.094-0.601-0.655-1.009-1.254-0.915c-0.599,0.094-1.008,0.654-0.915,1.254C0.672,60.538,0.733,60.905,0.799,61.272 M2.407,67.817
	c0.182,0.578,0.799,0.898,1.377,0.716c0.578-0.183,0.898-0.8,0.716-1.377c-0.108-0.341-0.212-0.683-0.312-1.025
	c-0.17-0.582-0.779-0.915-1.361-0.745s-0.916,0.779-0.746,1.361C2.186,67.104,2.295,67.462,2.407,67.817 M4.846,74.089
	c0.256,0.549,0.909,0.787,1.458,0.531c0.549-0.258,0.787-0.909,0.531-1.458c-0.151-0.325-0.299-0.651-0.443-0.979
	C6.148,71.628,5.5,71.376,4.946,71.62c-0.555,0.242-0.807,0.891-0.563,1.445C4.533,73.408,4.688,73.75,4.846,74.089 M8.089,80.009
	c0.325,0.512,1.004,0.663,1.515,0.338c0.511-0.326,0.663-1.004,0.337-1.515c-0.192-0.304-0.38-0.606-0.566-0.913
	c-0.314-0.52-0.989-0.686-1.507-0.37c-0.519,0.313-0.684,0.989-0.37,1.509C7.692,79.376,7.889,79.692,8.089,80.009 M12.039,85.419
	c0.389,0.466,1.081,0.528,1.546,0.141c0.466-0.388,0.528-1.08,0.14-1.545c-0.229-0.275-0.455-0.553-0.678-0.832
	c-0.378-0.474-1.068-0.552-1.542-0.174c-0.474,0.379-0.551,1.069-0.173,1.543C11.565,84.844,11.8,85.133,12.039,85.419
	 M16.684,90.312c0.445,0.412,1.139,0.386,1.551-0.06c0.412-0.444,0.385-1.14-0.059-1.55c-0.263-0.244-0.524-0.49-0.781-0.739
	c-0.436-0.421-1.131-0.409-1.552,0.024c-0.421,0.438-0.409,1.133,0.026,1.554C16.138,89.801,16.41,90.058,16.684,90.312
	 M21.922,94.569c0.494,0.352,1.179,0.234,1.531-0.26c0.351-0.494,0.235-1.179-0.259-1.529c-0.291-0.207-0.581-0.418-0.868-0.631
	c-0.486-0.361-1.173-0.262-1.535,0.227c-0.362,0.484-0.261,1.173,0.225,1.535C21.316,94.134,21.618,94.353,21.922,94.569
	 M27.676,98.125c0.535,0.285,1.2,0.081,1.484-0.454c0.285-0.535,0.082-1.199-0.453-1.484c-0.317-0.168-0.631-0.34-0.944-0.515
	c-0.529-0.296-1.197-0.106-1.493,0.422c-0.296,0.529-0.108,1.198,0.421,1.494C27.018,97.771,27.346,97.948,27.676,98.125
	 M33.856,100.912c0.567,0.212,1.2-0.076,1.412-0.644c0.213-0.568-0.075-1.201-0.642-1.414c-0.335-0.125-0.669-0.254-1.001-0.387
	c-0.563-0.225-1.202,0.049-1.426,0.612c-0.225,0.562,0.049,1.2,0.612,1.426C33.158,100.646,33.506,100.78,33.856,100.912
	 M40.173,102.829c0.59,0.138,1.181-0.229,1.32-0.816c0.138-0.591-0.228-1.182-0.818-1.32c-0.348-0.082-0.695-0.168-1.042-0.258
	c-0.587-0.15-1.185,0.203-1.336,0.789c-0.152,0.588,0.201,1.186,0.788,1.338C39.447,102.653,39.809,102.742,40.173,102.829
	 M46.827,103.94c0.603,0.062,1.141-0.379,1.202-0.981c0.06-0.604-0.379-1.142-0.982-1.202c-0.357-0.035-0.712-0.076-1.068-0.119
	c-0.601-0.074-1.149,0.354-1.222,0.955c-0.074,0.602,0.354,1.149,0.955,1.223C46.083,103.86,46.455,103.901,46.827,103.94
	 M53.573,104.181c0.605-0.018,1.083-0.522,1.064-1.129c-0.018-0.605-0.522-1.082-1.13-1.064c-0.356,0.011-0.716,0.018-1.073,0.021
	c-0.606,0.005-1.094,0.499-1.089,1.104c0.005,0.606,0.5,1.095,1.106,1.091C52.826,104.198,53.199,104.19,53.573,104.181"/>
<path fill="#010101" d="M102.826,52.213c0-28.087-22.769-50.857-50.856-50.857S1.114,24.126,1.114,52.213
	s22.769,50.856,50.856,50.856S102.826,80.3,102.826,52.213 M3.374,52.213c0-26.839,21.757-48.596,48.596-48.596
	s48.597,21.757,48.597,48.596S78.81,100.81,51.97,100.81C25.13,100.81,3.374,79.052,3.374,52.213"/>
<path fill="#010101" d="M93.785,51.647c0-23.406-18.974-42.381-42.381-42.381c-23.406,0-42.38,18.975-42.38,42.381
	s18.974,42.381,42.38,42.381C74.812,94.028,93.785,75.054,93.785,51.647 M11.285,51.647c0-22.158,17.962-40.12,40.12-40.12
	c22.159,0,40.122,17.962,40.122,40.12c0,22.159-17.963,40.12-40.122,40.12C29.247,91.769,11.285,73.806,11.285,51.647"/>
</svg>
