<?xml version="1.0" standalone="no"?>
<!DOCTYPE svg PUBLIC "-//W3C//DTD SVG 1.1//EN" "http://www.w3.org/Graphics/SVG/1.1/DTD/svg11.dtd">
<svg xmlns="http://www.w3.org/2000/svg">
<metadata>Generated by Fontastic.me</metadata>
<defs>
<font id="build-minimal-font" horiz-adv-x="512">
<font-face font-family="build-minimal-font" units-per-em="512" ascent="480" descent="-32"/>
<missing-glyph horiz-adv-x="512" />

<glyph unicode="&#57344;" d="M484 147c0 46 0 91 0 137 0 12 0 24 0 36 0 15 1 31 0 47-1 11-6 21-15 28-5 4-12 7-18 11-8 4-15 8-22 13-29 16-58 32-86 49-14 8-29 16-43 25-7 4-14 7-21 11-6 4-13 8-21 8-15 1-28-10-40-17-7-4-14-8-21-12-12-7-25-15-38-22-19-11-38-22-57-33-14-8-28-17-43-25-10-6-21-11-26-23-5-12-3-27-3-39 0-17 0-33 0-49 0-31 0-62 0-93 0-12 0-25 0-37 0-15-1-30 9-41 4-5 10-8 15-11 7-4 15-8 22-12 14-9 29-17 43-25 28-16 57-33 85-49 7-4 14-8 21-12 7-4 14-9 22-12 16-5 28 3 41 11 12 7 24 14 36 21 39 22 78 45 117 67 11 7 24 12 33 21 7 7 10 17 10 27m-26-24c-51-29-102-59-153-88-7-4-14-8-20-12-7-4-14-9-22-11-6-2-13 0-19 3-7 4-14 8-22 13-27 15-54 31-80 46-26 14-51 29-76 43-10 6-21 11-23 24-1 6-1 13-1 19 0 8 0 16 0 23 0 32 0 63 0 94 0 16 0 33 0 49 0 8 0 15 0 23 0 7-1 15 1 21 3 12 14 18 24 23 12 8 25 15 37 22 27 15 53 31 79 46 14 8 28 16 42 24 12 7 25 18 40 13 7-3 14-7 20-11 8-4 15-9 22-13 15-8 29-16 43-24 27-16 55-32 83-48 6-4 13-7 19-11 6-3 11-6 15-11 8-10 5-25 5-37 0-35 0-69 0-104 0-18 0-36 0-54 0-13 1-27 0-40-1-9-6-17-14-22m-200 14c45 0 86 27 106 67 19 41 14 91-15 126-29 35-76 51-120 40-43-10-77-44-87-86-9-37 0-76 24-105 12-13 26-24 43-32 8-4 17-6 27-8 4-1 9-2 13-2 3 0 5 0 7 0 3 0 2-1 2-3 0 1 0 2 0 3z m-1 12c-54 0-102 43-106 97-4 45 23 90 65 107 47 20 104 2 131-41 27-41 20-97-14-131-20-20-48-32-76-32"/>
<glyph unicode="&#57345;" d="M284 1c3 0 6 3 5 5 0 3-3 6-6 5-2 0-3 0-5 0-3-1-5-3-5-6 0-3 3-5 6-5 2 0 4 0 5 1m33 5c3 1 5 4 4 7-1 3-4 4-7 4-1-1-3-1-5-1-3-1-4-4-4-7 1-3 4-5 7-4 1 0 3 1 5 1m32 10c3 1 4 4 3 7-1 3-4 4-7 3-2 0-3-1-5-2-3-1-4-4-3-7 1-2 4-4 7-3 1 1 3 1 5 2m30 14c2 1 3 5 2 7-1 3-5 4-7 2-2 0-3-1-5-2-3-1-4-5-2-7 1-3 4-4 7-3 2 1 3 2 5 3m28 18c2 1 3 5 1 7-2 3-5 3-7 1-2-1-3-2-5-3-2-1-3-5-1-7 2-3 5-3 7-2 2 2 3 3 5 4m25 21c2 2 3 5 1 7-2 2-6 3-8 1-1-2-3-3-4-4-2-2-2-5 0-8 2-2 5-2 7 0 2 1 3 2 4 4m23 24c2 2 2 6-1 8-2 1-5 1-7-1-1-2-3-3-4-4-2-3-1-6 1-8 2-2 6-2 7 1 2 1 3 3 4 4m19 27c2 3 1 6-1 7-3 2-6 1-8-1-1-2-2-3-3-5-1-2-1-6 2-7 2-2 6-1 7 1 1 2 2 3 3 5m16 29c1 3 0 6-3 7-2 2-5 1-7-2 0-2-1-3-2-5-1-3 0-6 3-7 2-1 6 0 7 2 1 2 1 4 2 5m12 31c1 3-1 6-4 7-3 1-6-1-6-4-1-1-1-3-2-5-1-3 1-6 3-7 3 0 6 1 7 4 1 2 1 3 2 5m8 32c0 3-2 6-5 6-3 1-6-1-6-4 0-2-1-4-1-5-1-3 1-6 4-7 3 0 6 2 7 5 0 1 0 3 1 5m3 33c0 3-2 6-5 6-3 0-6-2-6-5 0-2 0-4 0-6 0-3 2-5 5-5 3-1 6 2 6 5 0 1 0 3 0 5m-1 33c0 0 0 0 0 0 0 3-3 6-6 5-3 0-5-3-5-6 0 0 0 0 0 0 1-2 1-3 1-5 0-3 3-5 6-5 3 0 5 3 5 6-1 2-1 3-1 5m-5 33c0 3-3 5-6 4-3 0-5-3-4-6 0-2 0-4 1-5 0-3 3-5 6-5 3 1 5 4 4 7 0 1 0 3-1 5m-9 32c-1 3-4 4-7 3-3-1-4-4-3-7 0-1 1-3 2-5 0-2 4-4 6-3 3 1 5 4 4 7-1 2-1 3-2 5m-13 30c-2 3-5 4-8 3-2-2-3-5-2-8 1-1 2-3 2-4 2-3 5-4 8-3 2 1 3 5 2 7-1 2-1 4-2 5m-17 29c-2 2-6 3-8 1-2-2-3-5-1-7 1-2 2-3 3-5 1-2 5-3 7-1 3 1 3 5 2 7-1 2-2 3-3 5m-21 26c-2 2-5 2-8 0-2-2-2-5 0-8 1-1 2-2 4-4 1-2 5-2 7 0 2 2 3 5 1 7-2 2-3 3-4 5m-24 23c-2 2-5 1-7-1-2-2-2-6 0-7 2-2 3-3 4-4 2-2 6-2 8 1 2 2 2 5-1 7-1 1-2 3-4 4m-26 20c-3 1-6 1-8-2-1-2-1-6 2-7 1-1 3-2 4-3 3-2 6-1 8 1 1 3 1 6-2 8-1 1-3 2-4 3m-29 16c-3 1-6 0-7-3-2-2-1-5 2-7 2-1 3-1 5-2 2-1 6 0 7 2 1 3 0 6-2 7-2 1-4 2-5 3m-31 12c-3 1-6 0-7-3-1-3 1-6 4-7 1 0 3-1 5-2 3-1 6 1 7 4 1 2-1 6-4 7-1 0-3 1-5 1m-32 9c-3 0-6-2-6-5-1-2 1-5 4-6 2 0 3-1 5-1 3-1 6 1 6 4 1 3-1 6-4 7-1 0-3 0-5 1m-33 4c-3 0-5-2-6-5 0-3 3-6 6-6 1 0 3 0 5 0 3-1 5 2 6 5 0 3-2 5-5 5-2 1-4 1-6 1m-33 0c-3-1-5-3-5-6 0-3 3-5 6-5 2 0 3 0 5 0 3 0 5 3 5 6 0 3-3 5-5 5-2 0-4 0-6 0m-33-5c-3 0-5-3-4-6 0-3 3-5 6-4 2 0 4 0 5 1 3 0 5 3 5 6-1 3-3 5-6 4-2 0-4 0-6-1m-32-8c-3-1-4-4-3-7 1-3 4-4 7-4 1 1 3 2 5 2 2 1 4 4 3 7-1 3-4 4-7 3-1 0-3-1-5-1m-31-13c-2-1-3-4-2-7 1-3 5-4 7-3 2 1 3 2 5 3 3 1 4 4 3 7-2 3-5 4-8 2-1 0-3-1-5-2m-28-16c-3-2-4-5-2-8 2-2 5-3 8-1 1 1 3 1 4 2 3 2 3 5 2 8-2 2-5 3-8 2-1-1-3-2-4-3m-27-20c-2-2-2-6 0-8 2-2 5-3 8-1 1 2 2 3 4 4 2 2 2 5 0 7-2 3-5 3-7 1-2-1-3-2-5-3m-23-24c-2-2-2-5 0-7 2-2 6-2 8 0 1 1 2 3 3 4 2 2 2 6 0 8-2 2-5 1-7-1-2-1-3-2-4-4m-21-26c-1-2-1-6 2-7 2-2 6-2 7 1 1 1 2 3 3 4 2 3 1 6-1 8-2 2-6 1-7-1-2-2-3-3-4-5m-17-29c-1-2 0-6 3-7 2-1 6 0 7 2 1 2 2 4 3 5 1 3 0 6-3 7-2 2-6 1-7-2-1-1-2-3-3-5m-13-30c-1-3 1-6 4-7 3-1 6 0 7 3 0 2 1 4 1 5 1 3 0 6-3 7-3 1-6 0-7-3 0-2-1-3-2-5m-8-32c-1-3 1-5 4-6 3-1 5 1 6 4 0 2 1 4 1 5 1 3-1 6-4 7-3 0-6-1-6-4-1-2-1-4-1-6m-5-32c-1-3 2-6 5-6 3-1 5 2 6 5 0 1 0 3 0 5 0 3-2 6-5 6-3 0-5-2-6-5 0-2 0-4 0-5m-1-34c0-3 3-5 6-5 3 0 5 3 5 6 0 2 0 3 0 5 0 3-3 5-6 5-3 0-5-2-5-5 0-2 0-4 0-6m4-33c0-3 3-5 6-4 3 0 5 3 5 6-1 2-1 4-1 5-1 3-4 5-6 5-3-1-5-3-5-6 0-2 1-4 1-6m8-32c1-3 4-4 7-3 2 1 4 4 3 6 0 2-1 4-1 5-1 3-4 5-7 4-3-1-5-4-4-7 1-1 1-3 2-5m12-31c1-2 4-4 7-2 3 1 4 4 3 7-1 1-2 3-3 5-1 2-4 4-7 2-2-1-4-4-2-7 0-1 1-3 2-5m16-29c1-2 5-3 7-2 3 2 4 5 2 8-1 1-2 3-3 4-1 3-5 4-7 2-3-1-4-5-2-7 1-2 2-3 3-5m19-27c2-2 6-2 8 0 2 2 2 5 1 7-2 2-3 3-4 4-2 3-5 3-7 1-3-2-3-5-1-7 1-2 2-3 3-5m23-24c2-2 6-2 8 1 2 2 2 5-1 7-1 2-2 3-3 4-3 2-6 2-8 0-2-2-2-6 0-8 1-1 3-2 4-4m26-21c2-1 6-1 7 2 2 2 2 6-1 7-1 1-3 2-4 3-2 2-6 2-8-1-1-2-1-6 1-7 2-1 3-3 5-4m28-17c3-1 6 0 8 2 1 3 0 6-3 7-1 1-3 2-4 3-3 1-6 1-8-2-1-3 0-6 2-7 2-1 4-2 5-3m31-14c2-1 6 1 7 3 1 3-1 6-4 7-1 1-3 2-4 2-3 1-6 0-7-3-2-3 0-6 3-7 1 0 3-1 5-2m31-9c3-1 6 1 6 4 1 3-1 6-4 6-1 1-3 1-5 2-3 0-6-1-6-4-1-3 1-6 3-7 2 0 4-1 6-1m33-6c3 0 5 2 5 5 1 3-1 6-4 6-2 0-4 0-6 1-3 0-5-2-6-5 0-3 2-6 5-6 2 0 4-1 6-1m33-1c3 0 5 3 5 6 0 3-3 5-6 5-1 0-3 0-5 0-3 0-5-3-5-6 0-3 2-5 5-5 2 0 4 0 6 0m242 256c0 138-112 250-250 250-138 0-251-112-251-250 0-138 113-250 251-250 138 0 250 112 250 250m-489 0c0 132 107 239 239 239 132 0 239-107 239-239 0-132-107-239-239-239-132 0-239 107-239 239m445 3c0 115-94 208-209 208-115 0-209-93-209-208 0-115 94-209 209-209 115 0 209 94 209 209m-406 0c0 109 88 197 197 197 109 0 198-88 198-197 0-109-89-198-198-198-109 0-197 89-197 198"/>
<glyph unicode="&#57346;" d="M430 3c6 0 13 3 19 8 4 2 6 5 8 8 1 3 2 6 2 9 0 3-1 7-2 10-1 2-3 5-5 7-2 3-4 5-6 6l0 1-18 18 6 8c0 0 1 1 2 3 1 2 3 5 5 8 1 1 2 2 3 4l4 5 5-4c3-2 7-5 12-8 6-4 13-7 21-7 6 0 13 3 17 7 6 7 9 15 9 21 0 4-1 8-3 12-2 4-4 7-6 9-3 3-5 5-7 7l-1 1c-2 2-3 3-4 4l-1 2 0 2c0 1 0 1-1 2l0 0c0 1-1 1-1 2-1 0-1 1-2 2-2 2-4 4-8 7-5 5-12 11-23 19-9 8-20 16-29 23-8 6-15 12-20 16-3 2-5 4-6 5l-2 2c-1 1-1 1-2 2-1 0-2 0-2 0l-1 0c-1 0-1 0-2 0l-1 0c-1-1-2-1-4-1-2 0-5 0-8 1-5 0-8 1-10 1-3 1-4 2-6 3-2 1-4 4-9 9-2 2-5 5-8 8-7 7-29 31-47 50-20 22-43 47-58 63l-16 18-1 2c-1 1-3 4-4 7-1 3-5 12-5 20 0 3 0 5 1 7 2 4 2 9 2 13 0 6-1 11-3 14-1 1-2 3-4 5l-50 49-19 15-5 0c-2 0-14 0-31-5-16-5-40-16-63-39-1-1-11-10-20-24-14-20-21-38-21-55l0-2 62-78c2-2 4-4 7-5 5-3 11-4 16-4l3 0c1 0 3 0 4 0 5 0 8 0 12-2 4-2 9-5 14-10 1-1 3-3 7-6 3-4 7-8 12-13 9-10 21-22 34-36 26-28 56-59 75-80l21-23 2-2c1-1 2-2 4-4 2-3 5-8 6-11 2-6 5-11 7-14 3-3 5-5 5-5l1-1c5-4 20-15 36-27 28-20 47-34 58-41 5-2 8-4 11-6 3-1 6-3 10-5 1-1 3-1 5-2 4-3 10-5 16-5m-418 383l0 3c1 18 12 35 18 44 10 15 20 24 20 25 17 16 36 28 57 35 16 5 27 6 29 6l3 0 16-13 20-20-19-16-3 3c-11 8-24 12-38 12-35 0-64-29-64-65 0-11 2-22 8-31l2-5-19-16z m158 14c0-15-5-28-16-39-10-10-24-16-39-16-17 0-32 8-43 21-8 10-12 22-12 34 0 15 6 29 16 39 11 11 25 16 39 16 15 0 29-5 39-16 11-10 16-24 16-39m275-292c-1-1-2-1-2-2-1 0-1-1-1-1l-1-1-3-5c-2-3-5-8-8-11-1-2-2-4-3-5l-1-1c0 0 0 0 0 0 0 0 0 0 0-1l-2-1c0-1-1-2-2-4-1-2-2-4-2-4l-2-3 26-27c1-1 4-5 5-8 1-2 2-4 1-6l0-1-1-3c-1-2-2-4-4-6-6-4-10-6-14-6l0 0c-4 0-8 1-13 4-1 1-3 1-4 2-4 2-7 4-12 6-1 1-4 2-6 3-2 2-5 4-9 6-6 4-15 10-24 17-18 13-37 27-50 37-7 5-12 9-13 10l-2 1c0 1-1 2-2 3-1 1-5 6-6 10-1 7-5 11-8 15-2 3-5 5-6 6l-1 2c-24 26-107 115-138 146-4 5-8 9-11 11-6 6-11 9-16 11-5 3-10 4-16 4l0 0c-2 0-3 0-5-1l-2 0 0 0c-5 0-9 2-11 3-2 1-4 2-5 3l-1 1-23 29 20 16 4-4c12-11 28-17 44-17 36 0 65 29 65 64 0 14-5 28-13 39l-4 5 19 15 24-23 1-2c1-3 2-6 2-9 0-3-1-6-2-10-1-3-1-6-1-10 0-9 3-18 5-24 3-6 6-10 6-11l1 0c1-2 58-64 94-103 15-15 23-24 27-29 4-3 6-5 8-8 3-2 5-5 7-7 4-3 8-5 12-7 4 0 7-1 12-2 5 0 9 0 12 0l3 0 2-2c1 0 3-1 4-3 2-1 5-4 8-6 6-5 13-10 20-16l4-3c17-13 36-29 46-37 1-1 2-2 3-3l1-1 1-2c0-2 1-3 1-5 2-1 3-3 4-4 1-1 3-3 4-4 2-2 4-4 6-6 2-2 4-5 5-7 1-3 2-5 2-8 0-4-2-9-7-14-4-4-6-4-10-5l0 0c-5 0-10 2-16 6-5 3-9 6-13 9l0 0c-2 2-4 3-6 4-1 0-3 1-5 1-1 0-2 0-2 0m-358 302c2 0 3 1 4 2 1 0 2 1 2 1 0 1 0 2 0 2 0 1 0 1 0 2 0 1-1 1-1 2-1 0-1 1-1 1l0 0-4 4 1 1c0 0 1 0 1 1 0 0 0 1 1 1 0 1 0 1 0 1l1 1 1-1c1 0 2-1 3-1 1-1 2-2 4-2 1 0 2 1 3 2 1 1 2 3 2 4 0 1 0 2-1 2 0 1 0 2-1 2 0 1-1 1-1 2l0 0c-1 0-1 1-1 1l0 0 0 0c0 1-1 1-1 1l0 0c0 0 0 0 0 0 0 0 0 1 0 1-1 0-1 1-2 1-1 1-2 2-4 4-2 1-4 3-6 4-2 2-3 3-4 4-1 0-1 1-1 1l-1 0c0 0 0 0 0 0-1 1-1 1-1 1l0 0c0 0 0 0 0 0l-1-1c0 0 0 0 0 0-1 0-1 0-2 0-1 1-2 1-2 1-1 0-1 0-1 0 0 1-1 1-2 2 0 1-1 1-2 2-1 1-6 6-9 10-4 4-9 9-12 13l-3 3 0 1c0 0-1 0-1 1 0 0-1 2-1 4 0 1 0 1 0 1 1 1 1 2 1 3 0 1-1 2-1 3 0 0 0 0-1 1l-10 10-4 3-1 0c0 0-2 0-6-1-3-1-8-4-12-8-1 0-3-2-5-5-2-4-4-8-4-11l0 0 13-16c0-1 1-1 1-1 1-1 2-1 3-1l1 0c0 0 0 0 1 0 1 0 1 0 2 0 1-1 2-1 3-2 0-1 1-1 1-2 1 0 2-1 3-2 2-2 4-5 7-7 5-6 11-12 15-17l4-4 0 0c1-1 1-1 1-1 1-1 1-2 1-3 1-1 1-2 2-2 0-1 1-1 1-1l0-1c1 0 4-3 7-5 6-4 10-7 12-8 1-1 1-1 2-1 1-1 1-1 2-1 0-1 1-1 1-1 1 0 2-1 3-1m-84 77l0 1c0 3 3 7 4 9 2 3 4 5 4 5 3 3 7 5 11 7 4 1 6 1 6 1l1 0 3-3 4-4-4-3-1 1c-2 1-4 2-7 2-7 0-13-6-13-13 0-2 1-4 2-6l0-1-4-3z m32 3c0-3-1-6-3-8-2-2-5-3-8-3-3 0-7 1-9 4-1 2-2 4-2 7 0 3 1 6 3 8 2 2 5 3 8 3 3 0 6-1 8-3 2-2 3-5 3-8z m55-59c0 0 0 0 0 0 0 0 0 0 0 0l0-1-1-1c-1 0-1-1-2-2 0 0 0-1 0-1l0 0c0 0 0 0-1 0 0 0 0 0 0 0l0 0c0-1 0-1 0-1-1-1-1-1-1-1l0-1 5-5c0 0 1-1 1-2 0 0 0 0 0-1l0 0 0-1c0 0 0 0-1-1-1-1-2-1-3-1l0 0c0 0-1 0-2 1 0 0-1 0-1 0-1 1-1 1-2 1-1 0-1 1-1 1-1 0-2 1-2 1-2 1-3 2-5 4-4 2-8 5-10 7-2 1-3 2-3 2l0 0c0 0-1 1-1 1 0 0-1 1-1 2 0 1-1 2-1 3-1 0-1 1-2 1l0 0c-5 6-21 24-28 30-1 1-1 2-2 2-1 1-2 2-3 2-1 1-2 1-3 1l0 0c-1 0-1 0-1 0l-1 0 0 0c-1 0-1 0-2 0 0 1-1 1-1 1l0 0-5 6 4 3 1 0c2-3 6-4 9-4 7 0 13 6 13 13 0 3-1 6-3 8l0 1 3 3 5-5 0 0c1-1 1-1 1-2 0-1 0-1-1-2 0-1 0-1 0-2 0-2 1-4 1-5 1-1 1-2 1-2l1 0c0 0 11-13 19-21 2-3 4-5 5-6 1 0 1-1 2-1 0-1 1-1 1-2 1 0 2-1 2-1 1 0 2 0 3 0 1-1 2-1 2 0l1 0 0-1c1 0 1 0 1 0 1-1 1-1 2-2 1-1 2-2 4-3l0 0c4-3 8-6 10-8 0 0 0 0 0-1l1 0 0 0c0-1 0-1 0-1 0 0 1-1 1-1 0 0 0 0 1-1 0 0 0-1 1-1 0 0 1-1 1-1 0-1 0-1 0-2 0-1 0-2-1-3-1-1-1-1-2-1l0 0c-1 0-2 1-3 1-1 1-2 2-3 2l0 0c-1 1-1 1-1 1-1 0-1 0-1 0 0 0-1 0-1 0z"/>
<glyph unicode="&#57347;" d="M80 393c-4 2-7 6-10 10-12 16-12 30-2 43 1 2 2 3 4 4l20 21 25-25c2-2 6-2 8 0 2 2 2 5 0 7l-57 57c-1 1-3 2-4 2-2 0-3-1-4-2-2-2-2-5 0-7l25-25-21-21c-1-1-3-2-4-4-17-21-9-42 1-56 5-7 10-11 11-12l1 0 382-383c2-2 5-2 7 0 2 2 2 6 0 8z"/>
<glyph unicode="&#57348;" d="M312 282c6 4 30 19 36 23 6 5 12 9 18 13 4 3 9 6 14 10 7 5 15 11 21 15 27 21 40 26 58 25l3-1c11-1 18-3 23-7 2-1 3-2 4-2 8-5 10-8 5-17l-1-2c-3-5-4-6-8-7l-2-1c-3-1-3-1-35-10l-8-2c-14-4-32-12-53-26-9-5-19-12-30-19-8-6-18-14-27-22-1 0-8-4-13-8-3-2-3-6 1-8-1-3 3-6 0-8-5-2 0 0 2 1 1 1 2 1 3 2 12 9 31 24 42 32 10 7 20 13 29 19 20 12 37 20 50 24l9 2c32 9 32 9 35 10l2 1c7 3 10 5 15 13 10 18 7 26-12 40-7 4-16 7-29 9l-4 0c-3 1-5 1-8 1-17 0-33-7-59-28-7-5-14-10-21-15-5-3-9-7-14-10-5-3-12-8-20-13-1 0-16-11-22-15-1-2-2-3-3-5 0-2-1-3-1-5-1-4 1-6 0-9m128-61c-10-1-25-2-41-2-15 0-29 1-39 2-8 1-17 2-26 4-1 0-2 1-3 1-1 0-1 0-2 0-1 0-2 0-5 1l-4 1 0 43c1 5 2 10 3 16 1 6 2 13 3 20 1 4 2 9 3 13 3 13 5 22 7 27 1 5 3 12 5 19 1 6 2 13 3 21 0 3 1 6 1 8l0 1c3 10-9 21-18 28-10 7-45 12-88 12-34 0-58-3-64-6l-1 0c-1-1-6-3-8-4-15-8-20-19-16-34 4-16 10-55 15-84 1-3 0-5-1-7-2-2-4-3-6-3-32 1-54 1-65-1-14-1-40-9-79-21-8-3-14-11-14-20l0-8c0-9 6-17 14-20 4-1 8-3 15-5l18-7c28-11 41-16 46-16 8-2 15-2 24-1l0 0c5 0 9-4 9-9l0-44c0-2 0-6 1-12 2-8 6-16 11-23 16-22 45-34 86-34 42 0 71 13 86 38 4 8 7 16 9 24 1 6 1 11 1 14 0 0 0 3 0 7l0 10 59-11c19-3 37-8 63-16 2-1 7-2 12-4 8-3 16-5 19-6 12-4 18-4 23-2 4 2 7 5 5 15 0 1 0 1-1 3l-1 4 0 0c0 2-1 4-1 6l-2 12c0 3-1 5-1 7-1 5-2 9-2 11-5 16-14 27-28 31-7 2-14 2-23 1z m-133 53c0-2 0-3 0-4l0-117c1-11-2-22-8-31-13-21-38-32-75-32-37 0-63 10-76 29-9 11-9 22-9 26l0 45c0 12-10 21-21 21l-1 0c-9 0-15 0-22 1-2 0-4 1-42 15l-20 8c-6 2-11 4-15 5-3 2-5 5-5 8l0 8c0 3 2 6 5 7 26 9 61 20 76 22 11 1 33 1 63 0l1 0c6 0 11 3 15 8 4 4 6 11 5 17-7 43-12 72-16 85-2 11 2 15 10 19 1 1 4 2 7 4 1 0 2 0 2 0 4 3 40 5 64 5l5 0c17 0 58-1 69-9 6-5 11-9 13-13l1-1-1-3c0-2 0-5-1-8-1-8-2-14-3-20-1-7-3-13-4-17-3-7-6-21-10-43-2-11-5-24-7-35m154-66c10-3 16-10 19-22 1-2 1-6 2-10 1-2 1-4 1-7l2-12c1-3 1-5 2-7l1-8-8 2c-1 0-2 1-3 1-3 1-12 4-19 6-5 2-10 3-12 4-27 8-45 13-64 17l-62 11 0 31 5 0c2-1 3-1 6-1 10-2 19-4 28-5 10-1 24-2 40-2l0 0c16 0 33 1 42 2l2 1c8 0 13 0 18-1"/>
<glyph unicode="&#57349;" d="M331 441c-14 13-27 22-41 29-4 3-11 6-16 9-3 1-5 2-5 2l-2 1 0 2c-1 2-2 5-4 11l0 1c0 1-1 3-1 5-3 5-8 8-14 8l-70 3c-1 0-2 0-2 0-2 0-5-1-7-2-4-1-6-5-8-9l-7-22c0-1 0-2 0-3-2-9-1-22 10-36 7-10 19-19 35-24 30-12 35-14 38-21 4-1 4-8 5-45l2-32c1-30 1-76 1-138 0-32-1-68-1-106 0-18-1-35-1-50l0-20c-1-2 0-3 1-4 1-2 3-2 5-2l106 0c4 0 6 3 6 6l0 359c0 28-3 46-21 68-2 4-6 7-9 10m18-431l-94 0 0 13c0 16 1 33 1 51 1 38 1 74 1 106 0 62 0 109-1 138 0 2-1 8-1 15 0 13-1 32-1 37-1 14-2 22-5 29-6 12-7 13-46 28-13 5-23 12-30 20-8 11-8 21-7 27 0 1 0 1 7 22l1 4 77-3 0-4c2-5 3-10 4-14 1-3 3-6 8-8 0-1 4-3 8-5 5-2 11-5 14-6 12-7 25-16 38-28 3-3 5-6 8-9 15-19 18-35 18-59l0-354 0 0z"/>
<glyph unicode="&#57350;" d="M177 242l156 0c3 0 6 0 17-26l2-5c1-2 2-3 3-5 8-17 13-22 21-22l123 0 0-78c0-3 0-6-2-9-3-6-11-9-24-9-3 0-6-3-6-7 0-3 3-6 6-6 12 0 28 3 36 16 2 5 3 11 3 16l0 1 0 82c0 0 0 1 0 2l-1 0c-2 23-22 75-49 135-12 27-51 111-71 111l-267 0c-21 0-47-37-80-114-25-60-44-120-44-134l0-83c0-5 1-11 4-16 6-10 17-16 34-16 3 0 6 3 6 6 0 4-3 7-6 7-8 0-18 1-23 10-2 2-2 6-2 9l0 77 118 0c13 0 20 7 31 32l0 0c1 2 2 5 4 9 3 6 5 10 7 13 0 0 2 3 3 3 0 0 1 1 1 1m199-46l-2 2c0 1-1 1-1 1-2 3-4 7-7 13 0 1-1 3-2 5l-2 5c-12 26-17 32-29 32l-156 0c-9 0-14-5-23-24 0-2-3-8-3-8l-2 0 2 0c-10-21-15-26-20-26l-118 0 1 6c6 27 26 81 49 132 28 61 49 92 61 92l267 0 1-1c2-2 3-4 5-6 5-5 10-13 16-23 11-19 24-45 38-75 21-46 39-93 45-118l2-7z"/>
<glyph unicode="&#57351;" d="M435 57c5-5 14-5 20 0 2 3 4 7 4 10 0 4-2 8-4 10-3 3-7 5-10 5-4 0-8-2-10-5-6-5-6-14 0-20m-359 399c-3 3-6 4-10 4-4 0-7-1-10-4-3-3-4-6-4-10 0-4 1-7 4-10 5-5 15-5 20 0 6 5 6 14 0 20m-3-74c2 2 2 7 0 9l-57 57 48 48 57-57c2-2 7-2 9 0 3 3 3 7 0 10l-61 61c-2 1-3 2-5 2-2 0-3-1-5-2l-57-57c-3-3-3-7 0-10l61-61c3-3 7-3 10 0m118 74c0 1-1 3-2 4-1 1-3 1-4 1-2 0-4-1-5-2l-112-144c-1-1-1-3-1-5 0-1 1-3 2-4 1-1 3-1 4-1 2 0 4 0 5 2l112 144c1 1 2 3 1 5m127-127c0 2-1 3-3 4-1 1-2 2-4 2-2 0-4-1-5-3l-112-143c-2-3-1-7 2-9 1-1 2-2 4-2 2 0 4 1 5 3l112 143c1 2 1 3 1 5m-61 61c-1 2-2 4-3 5-1 1-2 1-4 1-2 0-4-1-5-2l-112-144c-1-1-1-3-1-5 0-2 1-3 2-4 1-1 3-2 4-2 2 0 4 1 6 3l111 144c1 1 2 3 2 4m126-126c0 2-1 3-2 4-2 1-3 2-5 2-2 0-3-1-5-3l-111-143c-1-2-2-4-2-5 0-2 1-4 3-5 3-2 7-1 9 2l112 143c1 2 1 3 1 5m-161 163c-2 1-3 2-4 2-3 0-4-1-6-3l-111-143c-1-2-2-4-2-5 1-2 1-4 3-5 1-1 2-1 4-1 2 0 4 1 5 3l112 143c2 3 1 7-1 9m126-126c-1 1-3 1-4 1-2 0-4-1-5-2l-112-144c-2-3-2-7 1-9 1-1 3-1 4-1 2 0 4 0 5 2l112 144c2 3 2 7-1 9m-59 57c0 2-1 3-2 4-2 1-3 2-4 2-2 0-4-1-6-3l-111-144c-2-2-2-7 1-9 3-2 7-1 9 1l112 144c1 1 1 3 1 5m124-122c-1 1-2 1-4 1-2 0-4-1-5-2l-112-144c-1-1-1-3-1-5 0-2 1-3 2-4 3-2 7-2 9 1l112 144c2 2 2 7-1 9m31-33c0 1-1 3-2 4-1 1-3 1-4 1-2 0-4 0-5-2l-112-144c-2-3-2-7 1-9 3-2 7-2 9 1l112 144c1 1 1 3 1 5m3-71c-2 2-7 2-9 0-3-3-3-7 0-10l57-57-48-48-57 57c-1 1-3 2-5 2-2 0-3-1-5-2-1-1-1-3-1-5 0-1 0-3 1-4l62-62c3-2 7-2 9 0l58 58c1 1 2 3 2 4 0 2-1 4-2 5z"/>
<glyph unicode="&#57352;" d="M508 64l-48 48c0 0-1 1-2 2l-5 3 4 4c5 7 4 17-2 23l-129 128c0 1-1 2-2 2l-5 4 6 5c3 4 5 8 5 13 0 4-2 9-5 12l-163 162c-6 7-18 7-25 0l-18-18-4 4c0 1-1 2-2 3l-48 48c-7 7-18 7-25 0l-35-35c-3-3-5-8-5-12 0-5 2-10 5-13l48-48c1-1 2-1 3-2l5-3-20-20c-7-7-7-18 0-25l162-162c6-7 18-7 25 0l6 6 4-5c0-1 1-1 2-2l128-129c6-6 16-6 23-1l4 3 3-5c1-1 2-1 2-2l49-48c6-7 18-7 25 0l34 35c4 3 6 7 6 12 0 5-2 9-6 13m-497 396l41 41 56-55-42-42z m205-267l-169 169 104 103 169-169z m168-133l-141 141 68 69 141-141z m77-51l-55 56 42 41 55-55z m-16 59c-6-6-6-15 0-20 5-5 14-5 19 0 6 5 6 14 0 20-2 2-6 4-10 4-3 0-7-2-9-4m-376 375c6 5 6 14 0 20-3 2-6 4-10 4-3 0-7-2-10-4-5-6-5-15 0-20 6-5 15-5 20 0"/>
<glyph unicode="&#57353;" d="M459 425l-27 0c0 0-1 0-1 0l-51 0c0 0-1 0-1 0l-1 0-134 0c-1 0-1 0-2 0l-34 0c-1 0-1 0-1 0l-1 0-59 0c-29 0-53-25-53-55 0-4 2-6 6-6 3 0 6 2 6 6 0 23 18 43 41 43l55 0 0-126-196 0c-3 0-6-2-6-6l0-61c0-3 3-6 6-6l196 0 0-114-55 0c-23 0-41 20-41 43 0 4-3 6-6 6-4 0-6-2-6-6 0-30 24-55 53-55l60 0c0 0 0 0 1 0l34 0c1 0 1 0 2 0l0 0 151 0c0 0 1 0 1 0l35 0c0 0 1 0 1 0l1 0 26 0c29 0 53 25 53 55l0 227c0 30-24 55-53 55m-210-12l130 0c0-1 1-1 1-1l10 0 0-125-141 0z m141-313l-141 0 0 114 141 0 0-114z m34 1l-21 0 0 119c0 4-3 7-7 7l-154 0c-3 0-6-3-6-7l0-119-22 0 0 119c0 4-3 7-6 7l-195 0 0 48 195 0c3 0 6 3 6 6l0 131 22 0 0-131c0-3 3-6 6-6l154 0c4 0 7 3 7 6l0 131 21 0z m76 42c0-23-18-43-41-43l-22 0 0 313 22 0c23 0 41-20 41-43z"/>
<glyph unicode="&#57354;" d="M492 307l-32 0 0 170 5 0 0 0-5 0c0 2-1 4-2 5-2 2-6 2-8 0-2-1-2-3-2-5l0-89c-1-1-1-2-2-4-1-1-2-3-3-5-2-5-6-10-9-14-4-5-9-9-14-13-17-13-39-23-65-30-27-7-60-10-97-10l-6 0 0 0c-37 0-69 3-96 10-27 7-48 17-65 30-5 4-10 8-14 13-4 4-7 9-10 14-1 2-2 4-3 5 0 2-1 3-1 4l0 2 0 87c0 2-1 4-2 5-2 2-6 2-9 0-1-1-2-3-2-5l-5 0 5 0 0-170-31 0c-5 0-10-2-14-5-3-4-5-9-5-14l0-75c0-5 2-10 6-14 3-3 8-5 13-5l31 0 0-158c0-2 1-3 2-4 3-3 7-3 9 0 1 1 2 2 2 4l5 0-5 0 0 89c0 1 1 3 1 4 1 2 2 4 3 6 3 5 6 9 10 14 4 4 9 8 14 13 17 13 38 22 65 29 27 7 59 11 96 11l7 0 0 0c37 0 69-4 96-11 26-7 48-16 65-29 5-5 10-9 14-14 3-4 7-8 9-13 1-2 2-4 3-6 1-1 1-3 2-4l0-2 0-87-5 0 0 0 5 0c0-2 0-3 2-4 2-3 6-3 8 0 1 1 2 2 2 4l0 158 32 0c5 0 10 2 13 5 4 4 6 9 6 14l0 75c0 5-2 10-6 14-3 3-8 5-13 5m-442-101l-38 0 0 89 38 0z m398-54l-11 11c-2 1-3 3-5 4-1 2-3 3-5 4-17 14-40 25-67 32-29 7-64 11-103 11l-2 0-1 0c-39 0-74-4-103-11-27-7-50-18-68-32-1-1-3-2-5-4-1-1-3-3-4-4l-11-11 0 209 11-10c1-2 3-3 4-5 2-1 4-2 5-4 18-13 41-24 68-31 29-8 64-12 103-12l1 0 2 0c39 0 74 4 103 12 27 7 50 18 67 31 2 2 4 3 5 4 2 2 3 3 5 5l11 10z m50 54l-38 0 0 89 38 0z"/>
<glyph unicode="&#57355;" d="M340 444l-170 0c-10 0-17-8-17-18l0-339c0-10 7-18 17-18l170 0c10 0 18 8 18 18l0 339c0 10-8 18-18 18m5-362l-180 0 0 349 180 0z m-214 417l249 0c3 0 6 3 6 7 0 3-3 6-6 6l-249 0c-4 0-7-3-7-6 0-4 3-7 7-7m249-485l-249 0c-4 0-7-3-7-6 0-4 3-7 7-7l249 0c3 0 6 3 6 7 0 3-3 6-6 6m-221 34c-4 0-6-3-6-6 0-4 2-7 6-7l192 0c4 0 7 3 7 7 0 3-3 6-7 6z m192 430l-192 0c-4 0-6-3-6-6 0-4 2-7 6-7l192 0c4 0 7 3 7 7 0 3-3 6-7 6"/>
<glyph unicode="&#57356;" d="M129 356l-97 0c-16 0-30 14-30 30l0 97c0 16 14 29 30 29l97 0c16 0 29-13 29-29l0-97c0-8-3-15-9-21-5-6-12-9-20-9z m-97 144c-10 0-18-8-18-17l0-97c0-10 8-18 18-18l97 0c4 0 9 2 12 6 3 3 5 7 5 12l0 97c0 9-8 17-17 17l-97 0z m271-144l-97 0c-16 0-29 14-29 30l0 97c0 16 13 29 29 29l97 0c16 0 30-13 30-29l0-97c0-16-14-30-30-30z m-97 144c-9 0-17-8-17-17l0-97c0-10 8-18 17-18l97 0c10 0 18 8 18 18l0 97c0 9-8 17-18 17l-97 0z m272-144l-97 0c-16 0-29 14-29 30l0 97c0 16 13 29 29 29l97 0c16 0 29-13 29-29l0-97c0-16-13-30-29-30z m-97 144c-10 0-17-8-17-17l0-97c0-10 7-18 17-18l97 0c9 0 17 8 17 18l0 97c0 9-8 17-17 17l-97 0z m-252-322l-97 0c-16 0-30 13-30 29l0 97c0 16 14 30 30 30l97 0c16 0 29-14 29-30l0-97c0-8-3-15-9-20-5-6-12-9-20-9z m-97 143c-10 0-18-7-18-17l0-97c0-9 8-17 18-17l97 0c4 0 9 2 12 5 3 3 5 8 5 12l0 97c0 10-8 17-17 17z m271-143l-97 0c-16 0-29 13-29 29l0 97c0 16 13 30 29 30l97 0c16 0 30-14 30-30l0-97c0-16-14-29-30-29z m-97 143c-9 0-17-7-17-17l0-97c0-9 8-17 17-17l97 0c10 0 18 8 18 17l0 97c0 10-8 17-18 17z m272-143l-97 0c-16 0-29 13-29 29l0 97c0 16 13 30 29 30l97 0c16 0 29-14 29-30l0-97c0-16-13-29-29-29z m-97 143c-10 0-17-7-17-17l0-97c0-9 7-17 17-17l97 0c9 0 17 8 17 17l0 97c0 10-8 17-17 17z m-252-322l-97 0c-16 0-30 14-30 30l0 97c0 16 14 29 30 29l97 0c16 0 29-13 29-29l0-97c0-8-3-15-9-21-5-5-12-9-20-9z m-97 144c-10 0-18-8-18-17l0-97c0-10 8-17 18-17l97 0c4 0 9 1 12 5 3 3 5 7 5 12l0 97c0 9-8 17-17 17z m271-144l-97 0c-16 0-29 14-29 30l0 97c0 16 13 29 29 29l97 0c16 0 30-13 30-29l0-97c0-16-14-30-30-30z m-97 144c-9 0-17-8-17-17l0-97c0-10 8-17 17-17l97 0c10 0 18 7 18 17l0 97c0 9-8 17-18 17z m272-144l-97 0c-16 0-29 14-29 30l0 97c0 16 13 29 29 29l97 0c16 0 29-13 29-29l0-97c0-16-13-30-29-30z m-97 144c-10 0-17-8-17-17l0-97c0-10 7-17 17-17l97 0c9 0 17 7 17 17l0 97c0 9-8 17-17 17z"/>
<glyph unicode="&#57357;" d="M509 69c0 1-1 2-2 3l-1 0-57 61 24 24c6 6 11 16-4 31l-55 55c-2 2-5 3-8 3-2 0-3 0-6-1l0 0c-5-1-8 2-11 5l-129 129c-2 2-2 4-3 9 0 10-2 13-6 17l-56 57c-1 1-3 2-5 4-8 5-15 5-22 1-1-1-2-2-3-3-2-2-9-8-19-18l-5-5-63 64c-7 7-14 9-22 6-6-3-43-36-52-48-5-8-5-16 0-22 0-1 1-2 2-3l1 0 63-68-23-24c-1-1-2-2-3-4-4-8-3-17 5-25l52-52c5-5 8-6 16-7l1 0c3-1 4-1 6-3l136-137c3-2 3-4 3-7 1-7 2-9 5-13l63-62c6-7 14-7 20-1 1 1 1 1 2 2l1 1 24 24 57-57c5-5 10-7 15-7 2 0 5 0 7 1 6 2 43 35 52 47 5 8 5 17 0 23m-495 377l-3 2 0 7 2 1c0 1 0 1 0 1 4 5 13 14 26 26 5 5 10 9 15 12 2 2 3 3 5 4l1 1 1 1 2 0c0 0 0 0 0 0l4 0 1-2c0-1 1-1 2-2l62-62-54-57z m327-405l-64 64-3 1 0 4c0 0 0 1 0 2 0 7-2 10-6 14l-136 137c-4 3-7 5-12 6-1 0-1 0-2 0-4 0-6 1-9 4l-52 52c-2 2-6 6-3 12l1 1c0 1 0 1 5 5l16 17c13 13 26 26 38 38 35 35 54 55 59 58l0 1c2 1 3 1 5 1 3 0 5-1 6-2 1 0 2-1 3-2l57-56c2-3 2-5 2-9 1-11 2-14 6-18l130-129c7-7 11-8 15-8 2 0 3 0 5 1l4 0 55-55c1-1 2-2 3-2 2-3 4-4 4-7 0-3-2-5-3-6z m159 12c0 0 0 0 0 0-4-5-13-15-26-26-5-5-10-9-15-13-2-1-3-3-4-4l-5-1c0 0 0 0 0 0l-4 0-1 2c0 0-1 1-2 2l-57 57 56 53 57-60 6-3z"/>
<glyph unicode="&#57358;" d="M513 383c-1 9-6 18-13 24-3 1-6 2-9 2-13 0-28-12-31-25-1-5-3-10-7-15-2-3-4-5-6-6l-1-1-4-1c-3-1-8-2-12-3-13-4-26-8-37-12-9-3-17-6-24-9-17-7-33-10-48-7-2 0-3 0-4 1l-121 41-1 1c-4 5-9 8-14 8l-4 0 0 0-172-6c-2 0-4-2-4-5l0-37c0-2 2-4 4-4 17-2 29-3 38-5 14-2 20-4 28-7 1-1 5-3 6-3 2-2 5-3 7-4 13-6 31-14 43-19 8-4 14-6 15-7 1 0 1 0 2-1 3-1 4-2 6-5l2-3c9-13 12-27 12-53 0-7 0-13 0-21-1-11-2-22-4-39-1-6-2-11-2-13l0-2c-1-6-2-10-2-13-1-12 1-20 5-25 3-4 6-5 7-5 2 0 3 0 5 0 3-1 7-1 11-2 5 0 10-1 14-1 2 0 3 0 4 0 1 0 1 0 2 0 7 0 13 3 17 9 2 3 3 7 3 9 0 1 1 4 1 8l1 1c1 7 2 14 3 20l0 2c2 14 3 23 4 28 0 4 1 10 1 17 1 6 1 12 1 18l1 8 0 1-6 65 3 2c8 7 20 11 35 11 12 0 24-2 37-6 16-5 26-8 35-8 5 0 11 1 21 4l10 3c5 1 9 3 13 4 12 4 23 7 32 10 8 2 15 5 21 7 18 6 29 11 36 15 5 4 10 8 15 12 3 3 5 6 8 10 1 2 3 4 4 6l0 0 3 4c2 3 3 5 5 6 5 6 6 12 5 16m-286-163c0-1 0-4 0-7 0-6-1-11-1-17-1-7-1-13-2-17 0-5-2-15-3-28l-1-1c-1-7-2-14-3-21l-1-9c0-2-1-4-2-6-2-3-6-5-10-5 0 0-1 0-1 0-2 0-3 0-4 0-5 1-10 1-14 2-4 0-8 0-11 1l-5 0-2 3c-3 3-4 9-3 18 1 3 1 7 2 13l0 1c0 0 0 1 0 2l2 12c2 17 3 29 4 40 0 7 1 14 1 21 0 27-4 43-14 58-6 8-6 8-13 12-1 0-7 3-14 6l-2 1c-13 5-30 13-42 18-3 2-5 3-7 4-2 1-5 3-6 3-9 4-16 6-31 9-7 1-16 2-28 3l-6 1 0 29 170 7c0 0 0 0 1 0l2 1 0-2 1 0c3-2 6-6 9-12 2-2 3-5 4-8 1-2 2-5 3-8 1-3 3-7 4-10 4-9 8-18 12-27 1-3 3-6 4-9l1-3 7-74z m274 153c-2-2-4-4-6-7 0-1-5-7-6-9-3-4-5-7-8-9-4-4-8-8-13-11-6-3-17-8-34-14-6-3-13-5-21-7-9-3-20-7-32-10-4-2-8-3-13-4l-10-3c-8-2-13-4-19-4-7 0-16 3-31 8-14 4-27 6-40 6-13 0-24-2-33-7l-6-4-5 12c-5 10-9 19-12 27-1 3-2 6-4 9l-5 14 111-38c1-1 3-1 5-1 17-3 35-1 53 7 7 3 15 6 24 9 11 4 23 8 37 12 4 1 8 2 12 3 2 1 3 1 4 1 1 0 1 1 2 1 1 1 5 4 9 10 5 6 8 12 9 18 2 9 15 19 21 19l2 0 2-2c5-4 9-10 10-17 0-4-1-7-3-9"/>
<glyph unicode="&#57359;" d="M69 175c2-3 7-3 10 0l79 78c0 1 0 1 0 1 0 8 1 16 3 23l-92-92c-3-3-3-8 0-10m-1 153c0-4 4-7 8-7l109 0c5 5 11 10 17 15l-126 0c-4 0-8-4-8-8m111-256c4 0 8 4 8 8l0 105c-6 6-11 13-15 20l0-125c0-4 3-8 7-8m150 373c-4 0-7-3-7-8l0-112c6-5 11-11 15-18l0 130c0 5-4 8-8 8m-156 0c-2 0-3-1-5-2-3-3-3-8 0-11l81-81c2 0 4 0 6 0 6 0 11 0 16-1l-92 93c-2 1-4 2-6 2m267-111c-1 1-3 2-5 2-2 0-4-1-5-2l-77-77c0-1 0-2 0-3 0-7-1-14-2-20l89 89c3 3 3 8 0 11m-103-265c3 3 3 8 0 11l-77 77c-2 0-3 0-5 0-6 0-12 0-18 2l89-90c3-2 8-2 11 0m-29 103l127 0c5 0 8 4 8 8 0 4-3 7-8 7l-109 0c-5-5-11-10-18-15m181 171c-6 7-10 11-12 16-2 4-2 8-3 17-2 15-3 20-8 27-9 14-20 26-32 38-14 13-30 25-47 35-7 4-12 5-24 6l-3 1c-6 0-10 1-13 2-4 2-8 4-14 8l-4 2c-15 9-21 12-30 13-14 3-28 4-43 4-21 0-42-3-63-8-7-2-12-5-23-14-6-6-10-9-14-11-5-2-10-3-20-5-15-3-22-5-29-10-13-9-25-20-37-32-10-11-19-23-28-35-5-8-6-14-8-29l0-3c-1-8-2-12-4-16-1-4-4-8-10-16-10-13-13-18-15-27-3-17-5-34-5-50 0-18 2-35 5-52 2-8 5-14 14-24l1-1c5-6 8-9 10-14 2-5 3-10 4-21 2-16 4-23 9-30 8-13 18-25 29-37 12-12 25-23 39-32 7-6 14-8 30-10 10-2 15-3 20-5 6-2 10-5 19-11 16-11 24-15 34-16 35-6 71-5 105 4 8 2 14 5 25 15 7 6 10 9 15 11 5 2 9 3 19 5 15 3 21 5 28 10 17 12 32 25 45 40 11 13 21 27 29 42 4 7 5 13 6 25 0 9 1 12 3 17 1 4 3 8 9 17 8 13 10 19 12 26 2 14 3 27 3 41 0 20-3 41-8 61-2 9-5 14-16 26m8-126c-1-6-4-11-10-21-7-10-9-14-11-20-2-6-3-10-3-20-1-10-2-15-5-20-7-14-17-27-27-39-13-14-27-27-42-39-5-3-11-5-23-7-12-2-17-3-23-6-5-3-9-5-17-13-9-7-14-11-20-12-19-5-39-8-60-8-13 0-27 1-40 4-9 1-16 5-28 13-11 7-15 10-22 13-6 3-11 4-22 6-14 2-20 3-26 7-13 9-25 20-36 31-11 11-20 23-28 35-3 5-5 10-6 24-2 13-3 19-6 25-2 6-5 10-12 18l-1 1c-7 7-10 11-11 18-3 16-5 32-5 49 0 16 2 32 5 47 1 6 4 12 12 21l1 1c6 9 9 13 11 19 3 5 4 10 5 20l0 3c2 11 3 17 6 22 8 12 17 24 27 34 11 11 22 21 35 30 5 4 11 6 24 8 11 2 16 3 22 6 6 3 10 5 18 13 8 7 12 10 17 11 33 9 68 10 101 4 7-1 14-4 25-11l4-3c7-4 12-6 16-8 5-2 9-3 16-3l4-1c9-1 14-1 18-4 16-9 31-21 45-34 11-11 21-23 30-36 3-4 4-9 6-20 1-11 2-16 4-22 3-6 7-10 14-19 8-9 12-13 14-20 4-19 7-39 7-58 0-13-1-26-3-39m-152 37c0 50-40 90-90 90-49 0-90-40-90-90 0-49 41-90 90-90 50 0 90 41 90 90m-166 0c0 42 34 77 76 77 43 0 77-35 77-77 0-42-34-77-77-77-42 0-76 35-76 77"/>
<glyph unicode="&#57360;" d="M429 87c0 0 1 1 1 1 0 0 0 0-1-1m58 164c2 2 5 3 10 5 3 1 4 1 5 2 8 4 10 6 10 15-1 10-3 13-12 16-1 0-2 0-4 1-5 1-8 2-10 3-10 4-12 16-5 23 3 2 7 5 10 8 5 3 6 3 7 5 3 5 3 5 0 15-2 6-7 10-14 9 0 0 0 0-1 0l0 1-6 0c-1 0-2 0-3 0-3 0-5 0-6 0-10 1-16 12-10 21 1 2 3 4 5 7 2 3 3 4 5 6 1 2 2 4 2 7 1 10-10 19-20 16-2 0-3 0-6-1-5-2-7-2-10-3-9-1-17 7-15 16 0 3 1 5 3 10 1 3 2 4 2 6 1 3 2 4 2 6 0 4-2 7-5 10-1 0-1 0-2 1-6 5-11 6-18 2-5-4-10-7-14-8-9-4-19 3-19 13 0 3 0 6 1 12 0 1 0 2 0 3 1 6-2 11-8 14 0 0-1 0-2 0-1 1-2 1-3 2-5 1-10 0-13-4-1-1-1-1-1-2-5-5-8-8-11-10-8-7-20-3-22 7-1 2-1 4-2 8 0 3 0 4-1 6-1 7-6 11-13 12-1 0-2 0-2 0-5 1-11-1-13-6-2-4-4-7-7-13-2-5-7-8-12-8-6 0-11 2-14 8-1 2-1 2-1 2-2 5-4 7-5 10-2 6-8 9-14 8-2-1-3-1-3-1-6 0-10-4-11-10-1-4-2-7-3-13-1-4-2-7-5-9-6-5-14-5-20 1-2 2-4 5-8 9-2 1-2 1-2 2-4 4-9 5-13 3-1 0-2 0-3-1-1 0-2 0-2-1-5-1-8-6-8-12 0-3 0-5 1-11 0-2 0-2 0-3 0-6-2-11-7-14-5-3-10-3-15 0-2 1-3 2-6 4-2 1-3 2-3 2-8 5-8 5-12 4-2 0-3-1-5-2-1-1-4-3-5-4-4-3-6-8-4-13 0-1 0-1 1-2 1-6 2-8 4-11 4-10-4-21-14-20-3 0-5 1-10 2-2 1-3 1-4 1-11 3-14 2-21-7-3-5-3-10 0-14 1-2 2-3 4-5 2-4 3-5 4-7 4-5 4-10 2-15-3-6-7-8-14-8 0 0 0 0-1 0-6 0-9 0-12 0-10 0-18-9-16-19 0-4 2-5 4-7 5-5 8-7 12-10 4-4 6-9 5-14-1-6-5-9-11-11-5-1-8-2-11-3-3-1-4-1-5-2-6-2-7-5-8-12 0-1 0-1 0-3 0-6 3-11 9-13 4-2 8-4 12-6 5-2 8-6 9-11 0-6-2-10-8-13-1-1-2-1-4-3-4-2-6-3-8-5-6-3-8-8-7-14 1-2 1-4 1-5 1-6 5-9 10-9 5-1 10-2 15-3 6-1 10-4 12-9 2-5 1-10-3-14-3-2-5-5-9-9-4-4-4-4-5-6-2-5-2-8 3-16 2-5 7-7 12-6 1 0 1 0 3 0 5 1 7 1 10 2 8 0 13-1 16-6 4-5 3-10 0-16-1-2-2-4-4-7-1-1-1-2-1-3-4-6-5-8-3-12 0-3 1-3 5-8 5-5 10-6 16-3 6 2 10 4 14 5 6 2 11 1 15-3 4-4 5-9 3-14 0-4-1-7-2-10-3-12-1-16 10-21 4-2 9-2 13 1 2 2 4 4 9 7 1 1 2 2 2 3 6 4 11 5 16 2 6-3 9-7 9-14 0-2 0-4 0-7 0-3 0-5 0-6 0-7 4-12 11-13 0 0 0 0 1 0 2-1 2-1 3-1 5-1 10 1 13 5 2 4 4 7 8 12 4 5 8 7 15 6 6-1 10-4 12-11 0-1 0-1 0-2 2-5 3-9 5-12 1-4 4-6 8-7 2-1 3-1 6-1 1 0 2 0 2 0 6 0 10 3 11 8 2 6 4 11 6 15 2 6 6 9 12 10 5 1 10-1 13-6 1-2 2-3 3-5 2-3 3-4 4-5 2-4 3-5 5-7 4-3 6-3 15-1 6 2 9 6 10 12 0 1 0 1 0 3 0 7 0 10 1 13 0 3 2 6 3 8 6 6 14 7 21 1 4-3 7-6 10-9 5-4 12-5 17-1 1 0 1 1 2 1 6 3 8 8 7 14-1 4-2 7-3 13 0 2 0 2-1 4 0 4 1 7 3 10 4 5 11 7 19 4 1-1 3-1 5-3 4-2 6-2 9-3 4-2 9-2 12 1 0 1 3 3 4 4 1 1 2 2 3 3 3 5 2 10-2 17-1 1-1 1-1 2-2 4-3 6-4 7-3 6-3 10 0 15 4 5 8 7 15 6 5 0 10-1 15-2 6-1 12 2 14 8 1 2 1 2 1 2 3 5 2 12-2 16-1 1-2 3-5 5-3 3-4 5-5 6-8 9-3 21 8 23 1 0 2 1 3 1 4 1 6 1 7 1 9 0 16 6 18 15 1 6-1 11-6 14-1 1-1 1-2 1-6 4-9 6-13 9-7 5-7 16 1 21m-58-164c1 1 1 1 1 1 0 0-1-1-1-1m49 132c4-3 8-5 14-9 1 0 1 0 1-1 0-4 0-5-4-5-3 0-5 0-9-1-2 0-3 0-4-1-21-3-31-28-15-45 1-1 3-3 5-5 3-3 4-5 6-6-2-3-2-3-2-4-5 1-11 2-16 2-11 2-20-2-27-12-6-8-6-18-1-28 1-2 2-3 3-6 1-2 1-2 2-3 1-2 2-4 2-4 0 0-1-1-3-3-2 1-3 2-7 3-3 2-5 2-6 3-13 5-26 2-34-8-5-6-7-13-6-21 1-1 1-1 1-3 1-7 2-10 3-14-1 0-2 0-3-1-4 3-8 6-12 10-12 9-29 8-39-3-3-4-5-9-6-14-1-4-1-8-2-15 0-2 0-3 0-4-2 0-3 0-3 0 0 0-1 1-2 4-1 1-2 2-3 4-2 2-3 4-4 5-6 9-15 13-26 12-11-1-19-8-23-18-2-4-3-9-5-15 0 0 0 0-1 0-1 0-2 0-2 0-1 3-2 6-4 11 0 1 0 1 0 2-4 11-12 18-23 20-11 2-21-2-28-11-4-6-6-9-8-13-2 2-3 2-4 2 0 2 0 3 0 6 0 4 0 5 0 7 0 12-5 21-16 26-10 5-21 3-30-4-1-1-1-1-3-2-4-4-6-5-8-7-4 2-3 0-2 6 1 3 1 6 2 9 3 9 1 19-5 26-8 9-19 12-30 8-5-2-9-3-15-6-2 1-3 2-3 3 0 0 0 0 1 2 1 1 1 1 2 3 1 3 2 4 3 5 6 11 7 21 0 31-6 10-16 13-28 12-3 0-6-1-11-2-1 0-2 0-3 0 0 2-1 3-1 4 0 0 1 1 3 2 3 4 6 6 8 9 6 7 9 16 7 25-3 11-11 19-22 21-5 0-10 1-15 2 0 1-1 2-1 3 3 2 5 3 9 6 2 1 3 2 4 3 10 6 15 15 14 26-2 10-8 17-16 21-4 3-9 4-13 6-1 2-1 2-1 3 1 1 1 2 1 2 0-1 1 0 3 0 3 1 6 2 10 3 11 3 19 10 21 21 2 11-1 20-10 27-3 3-6 6-11 10 0-1 2 3 3 3 3 0 6 0 12 0 0 0 0 0 1 0 12 0 21 5 26 15 5 9 4 19-3 29-1 1-2 3-4 6-2 3-3 4-4 5 4 4 1 3 7 1 1 0 2 0 3 0 6-2 9-3 13-3 20-2 35 19 27 38-1 3-2 5-4 10 0 1 0 1 0 1 1 1 2 2 3 3 0-1 0-1 0-1 1 0 3-1 3-1 1-1 1-1 3-2 3-2 5-3 6-4 10-6 20-6 29 0 9 6 14 15 13 26 0 0 0 1 0 3 0 5 0 8-1 10 1 0 1 1 2 1 1 1 2 1 2 1 0-1 0-1 1-2 4-4 6-7 9-10 11-10 27-11 38-1 5 4 8 10 9 16 1 6 2 9 3 13 0 0 1 0 2 0 2-2 4-5 6-10 1-1 1-1 1-2 6-11 16-16 28-15 10 1 18 7 22 15 3 6 5 9 7 13 1-1 1-1 2-1 0 0 1 0 1 0 0-1 0-1 0-2 1-1 1-2 1-5 1-4 1-6 2-9 4-19 28-27 43-15 4 4 7 7 12 12 1 1 1 1 2 2 0 0 0 0 1-1 1 0 2-1 3-1-1-1-1-1-1-3-1-6-1-9-1-12-1-20 19-34 37-27 6 3 10 5 16 10 1 0 1 0 2-1 2-1 2-2 3-2-2-2-2-4-3-6-3-6-4-8-4-12-4-18 12-35 31-32 3 1 5 1 10 3 3 1 4 1 6 1 1 1 4-1 4-3-1-1-2-2-4-5-3-3-5-5-6-8-11-17-1-40 20-41 2-1 4-1 7-1 1 0 1 0 1 0l1 0c1 0 2 0 3 0 3 0 4 0 6 0 0-1 1-3 1-4 0 0 0 0 0 0 0 0-1-1-2-2-4-2-8-5-12-9-14-13-9-37 9-44 3-2 6-2 11-4 3-1 4-1 5-1 1-1 1-1 2-1 0 0 0-1 0-3 0 0 0-1 0-1-1 0-1 0-2-1-1 0-2-1-4-1-7-3-10-5-13-7-16-10-16-32-2-43m-90 109c-4 0-6-1-12-2-2-1-3-1-5-1 0 0 0 0-1 0-1-1-1-1-1-1-16-3-28 1-37 13-8 10-10 23-5 36 1 1 1 2 2 4 2 4 2 5 3 7 3 10-3 24-14 27-1 0-2 1-3 1l0 1c-17 7-35 11-54 11-21 1-42-2-62-10-12-4-19-15-16-27 0-3 1-5 3-10 0 0 0 0 0-1 1 0 1-1 1-1 5-11 4-22-3-33-9-14-26-20-42-15-5 1-9 2-13 3-7 1-14 0-20-4 0 0 0 0 0 0-5-1-8-4-10-9-3-7-4-12-5-17-10-33-9-66 3-99 2-9 8-15 17-17 7-2 13-1 20 3 14 6 26 5 38-4 15-10 19-30 10-46-9-17-3-32 14-39 38-14 77-14 116 0 4 1 8 4 11 8 8 8 8 19 3 29-9 16-3 37 11 47 13 8 25 9 39 1 16-7 32-1 38 15 14 37 14 75 2 113-4 11-16 19-28 17m13-126c-3-8-10-11-19-7-18 10-36 9-52-2-21-14-28-42-16-64 3-6 3-10-1-15-1-1-4-3-6-4-36-13-71-12-106 1-10 3-12 10-7 19 11 23 6 49-14 64-16 11-33 13-51 5-5-3-8-3-11-2-5 1-7 3-9 8-10 30-11 61-3 92 2 4 3 8 6 15 0 1 0 1 0 1 1 0 2 0 3 1 1 0 1 1 2 1 3 2 6 3 10 2 3-1 7-1 11-3 29-9 61 8 65 42 1 8-1 16-4 24 0 0 0 1 0 2-1 0-1 0-1 1-1 3-2 5-2 6-1 5 2 10 8 13 18 7 37 10 57 9 15 0 29-3 43-8l1-1c4-2 7-3 10-4 3-1 5-6 4-10 0-1-1-2-2-5-1-3-1-4-2-5-7-18-5-35 7-50 12-15 29-21 49-17 1 0 1 0 2 1 1 0 1 0 1 0 1 0 2 0 5 1 5 1 8 2 10 2 7 1 12-2 14-9 12-34 11-69-2-104m-42-26c-14 1-26-9-27-24 0-13 10-24 24-25 11-2 22 5 26 16 7 17-6 33-23 33m-1-36c-8 0-13 5-13 12 1 6 7 11 14 11 7 0 12-5 12-11 0-7-6-12-13-12m-204 196c14 0 26 11 25 25 0 14-10 24-25 24-13 0-25-12-26-25 0-14 11-24 26-24m0 35c8 0 12-4 12-10 0-7-5-12-12-12-7 0-12 5-12 11 0 6 6 11 12 11m-4-193c-14 0-25-11-25-24-1-14 10-25 24-25 12-1 22 7 26 17 5 17-8 32-25 32m9-33c-2-2-5-3-8-3-7 0-13 5-13 12 0 6 5 11 13 11 9 0 16-11 8-20m201 189c14 0 26 11 26 25 0 13-11 24-25 24-15 0-26-10-27-24 0-14 12-25 26-25m1 36c7 0 12-5 12-11 0-6-6-12-13-12-7 0-12 5-12 12 0 6 5 11 13 11"/>
<glyph unicode="&#57361;" d="M473 395l-6 9c-4 6-12 9-21 9-4 0-9-1-14-2-6-1-12-3-16-3-3 0-6 1-11 6l-1 1 0 0c-2 3-1 8 1 16 0 1 1 2 1 3 2 9 3 13 3 19 0 8-4 14-10 18-2 2-5 4-6 5-4 2-9 4-13 4-3 0-5-1-6-1-1 0-1 0-2-1-1 0-10-4-21-13-5-4-11-7-16-7l-1 0c-5 2-10 5-11 14-2 15-5 22-6 25-3 8-10 13-18 14l-6 0c-5 2-11 1-15-1-6-3-13-11-16-18-6-16-13-19-17-19l0-1-1 1c-1 0-1 0-1 0 0 0-1 0-1 0l-1 0-1 0c-2 1-6 4-10 10-8 12-18 24-31 24-1 0-3 0-5 0-2-1-7-2-11-4-14-6-15-19-16-34 0-12-4-16-7-19l-1-1-1-1c-1 0-2 0-3 0-3 0-8 1-15 5-14 9-21 12-28 12-4 0-9-1-14-6-2-1-4-3-5-4-3-2-5-5-7-9-4-10 0-22 5-32 4-10 4-14-3-23l-1-1-1 0c-2-1-4-1-8-1-6 0-12 1-16 2-3 0-5 0-7 0 0 0-1 0-2 0-10 0-17-4-22-12-3-3-5-7-5-9-5-12 2-25 10-32 1-1 2-1 3-2 4-3 13-13 11-21-1-6-11-11-15-12-10-2-17-5-20-6-10-5-13-13-14-15-1-2-1-4-1-7 0-2 0-5 0-6-1-7 2-14 7-18 4-4 9-8 18-10 8-2 17-7 20-13 2-6-6-16-14-22-21-16-19-30-17-35 0-1 0-1 0-2l4-7c2-5 9-15 28-15 3 0 7 1 10 1l2 0c1 0 3 0 5 0 5 0 9-1 11-3 0 0 0 0 1-1 5-5 3-13 0-19 0 0-1-1-1-1 0 0-6-13-8-18-4-9-2-18 1-23 1-1 5-7 13-12 5-2 10-4 15-4 5 0 9 2 12 3 5 2 11 6 12 7 1 0 7 4 13 4 4 0 6-2 7-2 6-4 6-7 6-19-1-3-1-6-1-8 0-6 0-23 12-30 1-1 6-4 13-6 3 0 6-1 8-1 5 0 10 2 13 5 4 2 8 5 11 10l1 1c6 11 12 16 20 16 0 0 1 0 2 0 7-1 12-9 16-24l0-1c4-13 14-21 25-21 3 0 6 0 9 0l1 0c1 1 1 1 2 1 10 1 19 9 21 22l1 1c0 0 0 1 0 2 1 11 4 22 14 25 1 0 3 0 4 0 6 0 12-6 16-12 3-3 5-6 8-8 9-6 17-7 20-7 1 0 1 0 1 0 3 0 5 1 7 2l1 0c1 1 6 3 9 5 7 3 12 10 13 18 0 5-1 10-2 15-3 16-2 24 3 28 1 1 3 2 7 2 8 0 17-4 22-6l3-1c4-1 8-2 12-2 8 0 13 4 15 5 1 1 2 2 3 3 0 1 3 4 5 7 2 1 3 3 4 5l0 1c1 1 2 2 2 3 5 10 0 17-9 28-9 10-11 19-7 27l1 1c3 3 15 6 27 6 1 0 2 0 2 0l2 0c13 0 21 9 23 17l0 3c1 2 2 5 2 8 3 11-4 21-11 25-21 13-24 16-25 26l0 2 1 1c3 4 10 9 22 15l2 1c16 8 16 21 15 25l0 2c-1 2-1 5-2 9-3 14-13 17-17 18l-1 0c-3 1-11 3-22 5l-2 0c-2 1-7 2-10 8-3 5 0 10 0 11l1 1c1 1 5 6 10 13 11 13 10 25 6 33l3 3z m-14-25c-7-9-12-14-12-14 0 0-9-12-2-25 8-14 21-15 21-15l1 0c2 0 16-2 20-4l1 0c4-1 7-3 8-9 1-5 2-10 2-10 1-2 1-7-8-12l-2-1c-7-3-31-15-30-28 2-16 5-21 31-37 1-1 8-6 6-12-1-4-3-10-3-11 0-3-3-7-11-7l0 0c-1 0-2 0-3 0-15 0-33-4-39-14-9-15-1-31 8-42 8-9 9-11 8-14l-2-2 0 0c-1-1-1-3-2-4-3-3-6-7-7-7l0-1c-1 0-3-2-7-2-3 0-5 0-8 1 0 1-1 1-2 1-6 3-17 7-27 7-6 0-11-2-15-5-13-10-9-31-7-40 1-7 1-10 1-11 0-3-1-7-6-9-3-2-10-5-10-5l-1-1-1 0c-2 0-6 1-12 6-2 1-4 3-6 6-6 6-14 16-26 16-3 0-5-1-7-1-20-6-23-27-24-35 0-1 0-2 0-2 0-2-3-12-10-13-1 0-2 0-3 0-3 0-6-1-8-1-6 0-10 5-12 12l-1 1c-5 21-14 32-27 33-1 0-2 0-3 0-12 0-23-7-31-21l-1-1c-2-4-6-6-7-7-2-2-5-3-11-1-6 1-10 4-10 4-2 1-5 5-5 19 0 2 0 5 0 7 1 12 2 22-11 30-4 3-9 4-14 4-11 0-20-5-20-6 0 0-5-4-10-5-4-2-9-3-15 0-6 4-9 8-9 8 0 1-3 5 0 11 1 4 7 17 8 17 0 1 12 20-2 35-5 5-12 8-21 8-3 0-5 0-6 0l-3 0c-2-1-5-1-8-1-4 0-13 0-17 8l-3 7c-1 2-2 10 13 21 11 9 22 23 17 36-4 13-21 19-27 21-8 2-12 5-13 7-2 1-4 4-3 8 0 2 0 6 0 8l0 1 0 1c0 0 2 5 7 7 4 2 16 5 18 6 0 0 22 6 25 22 2 16-13 31-17 34l-1 0c-1 1-10 10-7 19 1 2 2 4 3 5 4 7 8 8 14 8 1 0 3-1 5-1 5-1 11-2 18-2 9 0 15 2 19 6 10 13 12 23 5 38-5 10-6 17-4 21 0 2 2 3 2 4 2 1 6 4 7 5 0 1 2 2 5 2 3 0 8-1 21-10 8-4 15-7 22-7 6 0 10 2 13 5 7 7 11 14 12 29 1 17 3 20 9 23 3 1 6 2 8 2 1 1 1 1 2 1 4 0 9-2 20-19 11-16 21-16 22-16l1 0 0 0c0 0 1 0 2 0 6 0 21 3 30 27 2 4 6 10 10 11 2 2 6 1 7 1l7-1c2 0 5-1 7-5l0-1c2-3 4-8 6-21 1-12 8-21 18-24 8-3 21 1 30 9 10 8 17 10 17 10 1 1 2 1 4 1 2 0 4-1 6-2 2-1 5-4 6-4 2-2 4-4 4-8 0-4 0-7-2-16-1-1-1-2-1-3-3-11-6-22 3-30 8-6 13-8 20-8 4 0 10 0 19 3 4 1 8 2 11 2 7 0 10-4 11-5l6-8c1-1 4-8-4-18m-82-114c0 67-54 122-121 122-67 0-122-55-122-122 0-67 55-121 122-121 67 0 121 54 121 121m-121-109c-60 0-109 49-109 109 0 60 49 109 109 109 60 0 109-49 109-109 0-60-49-109-109-109"/>
<glyph unicode="&#57362;" d="M495 104l-94 94 2 3c15 30 23 63 23 96 0 117-96 213-213 213-118 0-213-96-213-213 0-118 95-213 213-213 35 0 70 9 101 26l4 1 92-92c11-11 27-18 43-18 16 0 31 7 42 18 24 23 24 62 0 85m-192 13c-28-14-59-21-90-21-111 0-201 90-201 201 0 110 90 201 201 201 111 0 201-91 201-201 0-29-7-58-18-84l-3-6-130 129c-11 12-26 18-42 18-17 0-32-6-43-18-24-23-24-61 0-85l131-131z m184-90c-9-9-21-14-34-14-13 0-25 5-35 14l-232 233c-9 9-14 21-14 34 0 13 5 25 14 34 10 9 22 14 35 14 12 0 25-5 34-14l232-232c9-9 14-22 14-34 0-13-5-25-14-35"/>
<glyph unicode="&#57363;" d="M506 135l-100 97-1 1c0 0 0 1-1 1l-156 152-99 95c-3 3-7 3-9 0-2-1-2-4-1-6l2-5-6-2c-14-2-29-11-46-25l-3-3-71 70c-2 3-6 3-8 0-3-2-3-6 0-8l70-70-4-3c-16-17-26-32-30-47l-2-8-9 8c-1 1-2 2-4 2-1 0-3-1-4-2-2-2-2-6 0-9l272-271c0 0 1 0 1-1l0 0 99-98c2-2 6-2 8 0 2 1 2 3 2 4 0 2 0 3-2 5l-142 141c0 0-2 2-3 5-2 7-1 15 2 24 5 15 18 31 36 48 29 25 52 32 69 22 2-1 4-2 5-3 0-1 1-1 1-1l1-1 125-120c2-3 6-3 8 0 2 2 2 6 0 8m-407 300c25 21 46 27 59 19 1-1 3-2 4-3l1-1 61-59-9-2c-14-3-29-12-45-26l-5-4-3 6c0 0-1 1-1 1l-66 66z m24-144l-68 68 0 2c-2 6-2 13 1 22 4 11 13 24 26 37l4 4 66-66c1-1 1-1 2-1l5-3-4-5c-16-17-26-33-30-49z m217-23c-16-3-33-13-51-29-23-21-37-41-42-60l-2-9-105 105 0 0c0 0-1 1-2 3l0 1c0 1-1 2-1 3 0 3 0 5-1 7 0 4 1 9 3 15 5 15 18 31 36 48 26 23 47 31 63 25l1-1 111-106z"/>
<glyph unicode="&#57364;" d="M296 344c-3 3-11 10-25 18-29 18-57 23-82 14-7-2-14-6-21-11l-3-3-3 4-147 144c-1 1-2 2-4 2-1 0-3-1-4-2-3-2-3-6 0-8l149-148-3-3c-6-8-11-15-13-23-9-22-6-46 8-72 6-11 12-18 14-20l236-237c2-2 6-2 9 0 1 1 1 3 1 5 0 1 0 3-1 4l-237 237 0 0c-1 1-2 2-3 3-3 4-5 9-8 13-12 23-15 44-8 63 4 10 10 19 19 27 8 6 15 11 23 14 21 7 46 3 72-13 6-3 11-7 16-11 3-2 5-4 6-5l212-213c2-2 6-2 8 0 3 3 3 7 0 9z"/>
<glyph unicode="&#57365;" d="M505 131c0 1 0 3-2 4l-21 21c0 0 0 1-1 1l-103 100c-1 1-2 2-3 3l-149 144c-2 2-6 2-9 0-1-2-2-4-1-6l2-6-6-1c-13-3-28-11-45-25l-3-2-149 146c-2 3-6 3-8 0-1-1-2-2-2-4 0-2 1-3 2-4l148-147-4-3c-16-17-27-32-31-47l-2-8-8 8c-1 1-3 1-4 1-2 0-4 0-5-1-2-3-2-7 0-9l294-293c2-2 6-2 9 0 2 2 2 6 0 9l-144 143 0 1 0 0 0 0 1 1-1-1 4 2-5-1c0 0 0 1 0 1-2 7-1 15 2 24 5 16 17 32 36 48 28 25 50 33 66 23l1 0 131-127c1-1 3-2 4-2 2 0 3 1 5 2 1 1 1 3 1 5m-168 137c-14-4-31-13-48-29-24-20-38-41-42-60l-2-9-113 112 0 1c-2 7-2 14 1 22 6 15 18 31 36 47 29 25 52 34 67 25 1-1 2-2 3-3l1-1 106-103z"/>
<glyph unicode="&#57366;" d="M494 331l-481 0 0 43c0 3-3 6-7 6-3 0-6-3-6-6l0-234c0-3 3-6 6-6 4 0 7 3 7 6l0 45 481 0c10 0 19 8 19 18l0 110c0 10-9 18-19 18m6-134l-487 0 0 122 487 0z"/>
<glyph unicode="&#57367;" d="M414 106c-2 3-9 10-21 18-20 14-40 20-60 17-16-2-32-3-46-4-5 0-9-1-12-1-2 0-3 0-4 0l-2 0c-7-1-15 0-23 2-14 4-26 11-38 23l-45 45c-12 12-19 24-23 38-3 10-3 17-2 22l0 3c0 1 0 2 0 4 0 3 1 7 1 12 1 14 2 30 4 47 3 19-3 39-17 59-8 12-15 19-18 21l-98 98c-2 3-6 3-8 0-1-1-2-2-2-4 0-1 1-3 2-4l98-98c1-1 3-3 5-5 4-5 8-10 11-14 12-18 18-36 16-52-2-17-4-33-5-47 0-5 0-9 0-13l0-2 0 0 0-3-1 0c0 0 0 0 0-1-2-23 8-48 29-69l45-45c24-24 47-29 62-29 2 0 5 0 7 0 1 0 1 0 1 0l0 1 2 0 1 0 2 0c4 0 8 0 12 0 15 1 31 3 48 5 2 0 4 0 7 0 14 0 29-5 44-16 5-3 10-7 15-11 2-2 4-4 5-5l98-98c2-2 6-2 8 0 1 1 2 2 2 4 0 1-1 3-2 4z"/>
</font>
</defs>
</svg>
